<?xml version="1.0" encoding="UTF-8"?>
<svg width="186px" height="26px" viewBox="0 0 186 26" version="1.1" xmlns="http://www.w3.org/2000/svg" xmlns:xlink="http://www.w3.org/1999/xlink">
    <!-- Generator: Sketch 49.2 (51160) - http://www.bohemiancoding.com/sketch -->
    <title>AC-title</title>
    <desc>Created with Sketch.</desc>
    <defs></defs>
    <g id="AC-title" stroke="none" stroke-width="1" fill="none" fill-rule="evenodd">
        <g id="ac-title-inner" transform="translate(-5.000000, 1.000000)" fill-rule="nonzero">
            <rect id="Rectangle-path" fill="#FFFFFF" x="0" y="0" width="193.667" height="24.999"></rect>
            <g id="Group" transform="translate(5.000000, 3.000000)" fill="#7F88A5">
                <path d="M9.97,18.025 L9.145,14.9 C9.128,14.85 9.086,14.825 9.02,14.825 L3.045,14.825 C2.978,14.825 2.936,14.85 2.92,14.9 L2.095,18.025 C2.061,18.175 1.97,18.25 1.82,18.25 L0.52,18.25 C0.436,18.25 0.374,18.225 0.332,18.175 C0.29,18.125 0.277,18.059 0.295,17.975 L4.944,0.975 C4.977,0.825 5.069,0.75 5.219,0.75 L6.819,0.75 C6.969,0.75 7.06,0.825 7.094,0.975 L11.769,17.975 L11.794,18.05 C11.794,18.184 11.71,18.25 11.544,18.25 L10.243,18.25 C10.095,18.25 10.003,18.175 9.97,18.025 Z M3.357,13.337 C3.381,13.362 3.411,13.375 3.444,13.375 L8.619,13.375 C8.652,13.375 8.681,13.362 8.707,13.337 C8.733,13.312 8.736,13.292 8.72,13.275 L6.095,3.275 C6.078,3.242 6.061,3.225 6.045,3.225 C6.027,3.225 6.011,3.242 5.994,3.275 L3.345,13.275 C3.328,13.292 3.332,13.312 3.357,13.337 Z" id="Shape"></path>
                <path d="M16.295,18.025 L11.745,1.025 L11.72,0.95 C11.72,0.817 11.803,0.75 11.97,0.75 L13.32,0.75 C13.487,0.75 13.579,0.825 13.595,0.975 L17.245,15.275 C17.261,15.309 17.278,15.325 17.295,15.325 C17.312,15.325 17.328,15.308 17.345,15.275 L20.995,0.975 C21.028,0.825 21.12,0.75 21.269,0.75 L22.569,0.75 C22.653,0.75 22.715,0.775 22.757,0.825 C22.799,0.875 22.812,0.942 22.795,1.025 L18.245,18.025 C18.211,18.175 18.12,18.25 17.97,18.25 L16.57,18.25 C16.42,18.25 16.328,18.175 16.295,18.025 Z" id="Shape"></path>
                <path d="M34.97,2.3 L27.47,2.3 C27.403,2.3 27.369,2.334 27.369,2.4 L27.369,8.6 C27.369,8.667 27.402,8.7 27.47,8.7 L32.52,8.7 C32.686,8.7 32.77,8.783 32.77,8.95 L32.77,10 C32.77,10.167 32.686,10.25 32.52,10.25 L27.47,10.25 C27.403,10.25 27.369,10.284 27.369,10.35 L27.369,16.6 C27.369,16.667 27.402,16.7 27.47,16.7 L34.97,16.7 C35.136,16.7 35.22,16.783 35.22,16.95 L35.22,18 C35.22,18.167 35.136,18.25 34.97,18.25 L25.845,18.25 C25.678,18.25 25.595,18.167 25.595,18 L25.595,1 C25.595,0.833 25.678,0.75 25.845,0.75 L34.97,0.75 C35.136,0.75 35.22,0.833 35.22,1 L35.22,2.05 C35.22,2.217 35.136,2.3 34.97,2.3 Z" id="Shape"></path>
                <path d="M38.52,18 L38.52,1 C38.52,0.833 38.603,0.75 38.77,0.75 L40.044,0.75 C40.194,0.75 40.294,0.809 40.345,0.925 L47.069,14.1 C47.102,14.134 47.131,14.15 47.157,14.15 C47.181,14.15 47.194,14.125 47.194,14.075 L47.194,1 C47.194,0.833 47.277,0.75 47.444,0.75 L48.719,0.75 C48.885,0.75 48.969,0.833 48.969,1 L48.969,18 C48.969,18.167 48.885,18.25 48.719,18.25 L47.418,18.25 C47.269,18.25 47.168,18.192 47.118,18.075 L40.395,4.85 C40.361,4.817 40.333,4.804 40.307,4.812 C40.282,4.821 40.27,4.85 40.27,4.9 L40.294,18 C40.294,18.167 40.211,18.25 40.044,18.25 L38.77,18.25 C38.603,18.25 38.52,18.167 38.52,18 Z" id="Shape"></path>
                <path d="M62.444,1 L62.444,2.05 C62.444,2.217 62.361,2.3 62.194,2.3 L58.119,2.3 C58.053,2.3 58.019,2.334 58.019,2.4 L58.019,18 C58.019,18.167 57.935,18.25 57.769,18.25 L56.494,18.25 C56.328,18.25 56.244,18.167 56.244,18 L56.244,2.4 C56.244,2.334 56.211,2.3 56.144,2.3 L52.22,2.3 C52.053,2.3 51.97,2.217 51.97,2.05 L51.97,1 C51.97,0.833 52.053,0.75 52.22,0.75 L62.195,0.75 C62.361,0.75 62.444,0.833 62.444,1 Z" id="Shape"></path>
                <path d="M67.757,17.8 C66.982,17.367 66.382,16.759 65.956,15.975 C65.531,15.192 65.319,14.284 65.319,13.25 L65.319,1 C65.319,0.833 65.402,0.75 65.569,0.75 L66.843,0.75 C67.01,0.75 67.093,0.833 67.093,1 L67.093,13.35 C67.093,14.417 67.402,15.275 68.018,15.925 C68.635,16.575 69.444,16.9 70.444,16.9 C71.444,16.9 72.252,16.575 72.869,15.925 C73.485,15.275 73.794,14.417 73.794,13.35 L73.794,1 C73.794,0.833 73.877,0.75 74.044,0.75 L75.319,0.75 C75.485,0.75 75.569,0.833 75.569,1 L75.569,13.25 C75.569,14.284 75.356,15.192 74.931,15.975 C74.506,16.759 73.906,17.367 73.131,17.8 C72.356,18.234 71.459,18.45 70.443,18.45 C69.427,18.45 68.531,18.233 67.757,17.8 Z" id="Shape"></path>
                <path d="M87.844,18.05 L84.719,10.275 C84.702,10.225 84.669,10.2 84.619,10.2 L81.419,10.2 C81.352,10.2 81.318,10.233 81.318,10.3 L81.318,18 C81.318,18.167 81.235,18.25 81.068,18.25 L79.794,18.25 C79.627,18.25 79.544,18.167 79.544,18 L79.544,0.975 C79.544,0.808 79.627,0.725 79.794,0.725 L85.094,0.725 C86.427,0.725 87.502,1.167 88.319,2.05 C89.135,2.934 89.545,4.092 89.545,5.525 C89.545,6.675 89.266,7.65 88.707,8.45 C88.148,9.25 87.395,9.775 86.444,10.025 C86.378,10.059 86.361,10.1 86.394,10.15 L89.644,17.95 L89.669,18.05 C89.669,18.184 89.594,18.25 89.443,18.25 L88.119,18.25 C87.985,18.25 87.894,18.184 87.844,18.05 Z M81.318,2.375 L81.318,8.675 C81.318,8.742 81.351,8.775 81.419,8.775 L84.869,8.775 C85.735,8.775 86.435,8.48 86.969,7.888 C87.503,7.296 87.769,6.517 87.769,5.55 C87.769,4.567 87.502,3.775 86.969,3.175 C86.436,2.575 85.736,2.275 84.869,2.275 L81.419,2.275 C81.352,2.275 81.318,2.309 81.318,2.375 Z" id="Shape"></path>
                <path d="M101.869,18.025 L101.044,14.9 C101.027,14.85 100.985,14.825 100.919,14.825 L94.944,14.825 C94.877,14.825 94.835,14.85 94.819,14.9 L93.994,18.025 C93.96,18.175 93.869,18.25 93.719,18.25 L92.419,18.25 C92.335,18.25 92.273,18.225 92.231,18.175 C92.189,18.125 92.176,18.059 92.194,17.975 L96.843,0.975 C96.876,0.825 96.968,0.75 97.118,0.75 L98.718,0.75 C98.868,0.75 98.959,0.825 98.993,0.975 L103.668,17.975 L103.693,18.05 C103.693,18.184 103.609,18.25 103.443,18.25 L102.142,18.25 C101.994,18.25 101.902,18.175 101.869,18.025 Z M95.257,13.337 C95.281,13.362 95.311,13.375 95.344,13.375 L100.519,13.375 C100.552,13.375 100.581,13.362 100.607,13.337 C100.633,13.312 100.636,13.292 100.62,13.275 L97.995,3.275 C97.978,3.242 97.961,3.225 97.945,3.225 C97.927,3.225 97.911,3.242 97.894,3.275 L95.245,13.275 C95.228,13.292 95.231,13.312 95.257,13.337 Z" id="Shape"></path>
                <path d="M112.556,17.1 C111.631,16.2 111.168,15.009 111.168,13.525 L111.168,5.45 C111.168,3.967 111.631,2.779 112.556,1.888 C113.481,0.997 114.702,0.55 116.219,0.55 C117.752,0.55 118.981,0.992 119.907,1.875 C120.832,2.759 121.294,3.934 121.294,5.4 L121.294,5.625 C121.294,5.792 121.211,5.875 121.044,5.875 L119.77,5.925 C119.603,5.925 119.52,5.85 119.52,5.7 L119.52,5.35 C119.52,4.384 119.215,3.6 118.607,3 C117.999,2.4 117.203,2.1 116.22,2.1 C115.236,2.1 114.445,2.396 113.845,2.987 C113.244,3.579 112.945,4.366 112.945,5.35 L112.945,13.65 C112.945,14.634 113.245,15.421 113.845,16.013 C114.445,16.605 115.236,16.9 116.22,16.9 C117.202,16.9 117.998,16.6 118.607,16 C119.216,15.4 119.52,14.617 119.52,13.65 L119.52,13.3 C119.52,13.15 119.603,13.075 119.77,13.075 L121.044,13.15 C121.211,13.15 121.294,13.217 121.294,13.35 L121.294,13.575 C121.294,15.042 120.832,16.221 119.907,17.112 C118.981,18.004 117.753,18.45 116.219,18.45 C114.701,18.45 113.48,18 112.556,17.1 Z" id="Shape"></path>
                <path d="M133.243,18.025 L132.418,14.9 C132.401,14.85 132.359,14.825 132.293,14.825 L126.318,14.825 C126.251,14.825 126.209,14.85 126.193,14.9 L125.368,18.025 C125.334,18.175 125.243,18.25 125.093,18.25 L123.793,18.25 C123.709,18.25 123.647,18.225 123.605,18.175 C123.563,18.125 123.55,18.059 123.568,17.975 L128.217,0.975 C128.25,0.825 128.342,0.75 128.492,0.75 L130.092,0.75 C130.242,0.75 130.333,0.825 130.367,0.975 L135.042,17.975 L135.067,18.05 C135.067,18.184 134.983,18.25 134.817,18.25 L133.516,18.25 C133.368,18.25 133.276,18.175 133.243,18.025 Z M126.631,13.337 C126.655,13.362 126.685,13.375 126.718,13.375 L131.893,13.375 C131.926,13.375 131.955,13.362 131.981,13.337 C132.007,13.312 132.01,13.292 131.994,13.275 L129.369,3.275 C129.352,3.242 129.335,3.225 129.319,3.225 C129.301,3.225 129.285,3.242 129.268,3.275 L126.619,13.275 C126.602,13.292 126.605,13.312 126.631,13.337 Z" id="Shape"></path>
                <path d="M138.018,18 L138.018,1 C138.018,0.833 138.101,0.75 138.268,0.75 L139.542,0.75 C139.692,0.75 139.792,0.809 139.843,0.925 L146.568,14.1 C146.601,14.134 146.63,14.15 146.656,14.15 C146.68,14.15 146.693,14.125 146.693,14.075 L146.693,1 C146.693,0.833 146.776,0.75 146.943,0.75 L148.218,0.75 C148.384,0.75 148.468,0.833 148.468,1 L148.468,18 C148.468,18.167 148.384,18.25 148.218,18.25 L146.917,18.25 C146.768,18.25 146.667,18.192 146.617,18.075 L139.893,4.85 C139.859,4.817 139.831,4.804 139.805,4.812 C139.781,4.821 139.768,4.85 139.768,4.899 L139.792,17.999 C139.792,18.166 139.709,18.249 139.542,18.249 L138.268,18.249 C138.101,18.25 138.018,18.167 138.018,18 Z" id="Shape"></path>
                <path d="M152.593,18 L152.593,1 C152.593,0.833 152.676,0.75 152.843,0.75 L154.117,0.75 C154.284,0.75 154.367,0.833 154.367,1 L154.367,18 C154.367,18.167 154.284,18.25 154.117,18.25 L152.843,18.25 C152.676,18.25 152.593,18.167 152.593,18 Z" id="Shape"></path>
                <path d="M158.518,18 L158.518,1 C158.518,0.833 158.601,0.75 158.768,0.75 L160.042,0.75 C160.192,0.75 160.292,0.809 160.343,0.925 L167.068,14.1 C167.101,14.134 167.13,14.15 167.156,14.15 C167.18,14.15 167.193,14.125 167.193,14.075 L167.193,1 C167.193,0.833 167.276,0.75 167.443,0.75 L168.718,0.75 C168.884,0.75 168.968,0.833 168.968,1 L168.968,18 C168.968,18.167 168.884,18.25 168.718,18.25 L167.417,18.25 C167.268,18.25 167.167,18.192 167.117,18.075 L160.393,4.85 C160.359,4.817 160.331,4.804 160.305,4.812 C160.281,4.821 160.268,4.85 160.268,4.899 L160.292,17.999 C160.292,18.166 160.209,18.249 160.042,18.249 L158.768,18.249 C158.601,18.25 158.518,18.167 158.518,18 Z" id="Shape"></path>
                <path d="M181.593,18.025 L180.768,14.9 C180.751,14.85 180.709,14.825 180.643,14.825 L174.668,14.825 C174.601,14.825 174.559,14.85 174.543,14.9 L173.718,18.025 C173.684,18.175 173.593,18.25 173.443,18.25 L172.143,18.25 C172.059,18.25 171.997,18.225 171.955,18.175 C171.913,18.125 171.9,18.059 171.918,17.975 L176.567,0.975 C176.6,0.825 176.692,0.75 176.842,0.75 L178.442,0.75 C178.592,0.75 178.683,0.825 178.717,0.975 L183.392,17.975 L183.417,18.05 C183.417,18.184 183.333,18.25 183.167,18.25 L181.866,18.25 C181.718,18.25 181.626,18.175 181.593,18.025 Z M174.98,13.337 C175.004,13.362 175.034,13.375 175.067,13.375 L180.242,13.375 C180.275,13.375 180.304,13.362 180.33,13.337 C180.356,13.312 180.359,13.292 180.343,13.275 L177.718,3.275 C177.701,3.242 177.684,3.225 177.668,3.225 C177.65,3.225 177.634,3.242 177.617,3.275 L174.968,13.275 C174.951,13.292 174.955,13.312 174.98,13.337 Z" id="Shape"></path>
            </g>
        </g>
    </g>
</svg>