<?xml version="1.0" encoding="utf-8"?>
<!-- Generator: Adobe Illustrator 16.0.0, SVG Export Plug-In . SVG Version: 6.00 Build 0)  -->
<!DOCTYPE svg PUBLIC "-//W3C//DTD SVG 1.1//EN" "http://www.w3.org/Graphics/SVG/1.1/DTD/svg11.dtd">
<svg version="1.1" xmlns="http://www.w3.org/2000/svg" xmlns:xlink="http://www.w3.org/1999/xlink" x="0px" y="0px" width="25px"
	 height="25px" viewBox="0 0 25 25" enable-background="new 0 0 25 25" xml:space="preserve">
<g id="Layer_1">
	<g>
		<g>
			<path fill="#2F41C9" d="M22.721,17.632c-0.342,2.772-3.454,6.518-9.533,6.518C6.815,24.149,2,18.653,2,12.379
				C2,6.444,5.94,1.191,14.161,0.851v0.681c-2.141,0.584-4.33,3.648-4.33,10.118c0,5.253,2.529,7.782,6.227,8.171
				c2.431,0.244,5.254-0.827,6.176-2.48L22.721,17.632z"/>
			<g>
				<path fill="#7187F4" d="M15.436,1.289V0.851c3.357,0.195,5.593,1.702,6.664,2.919c0.827,0.875,1.12,2.384,0.729,3.696
					c-0.631,1.897-2.771,2.87-4.62,2.141c-1.898-0.633-2.871-2.725-2.14-4.572c0.388-0.973,1.021-1.605,1.847-1.946
					C18.403,2.895,17.868,1.483,15.436,1.289z"/>
			</g>
		</g>
	</g>
</g>
<g id="grid" display="none">
</g>
</svg>
