<?xml version="1.0" encoding="utf-8"?>
<!-- Generator: Adobe Illustrator 16.0.0, SVG Export Plug-In . SVG Version: 6.00 Build 0)  -->
<!DOCTYPE svg PUBLIC "-//W3C//DTD SVG 1.1//EN" "http://www.w3.org/Graphics/SVG/1.1/DTD/svg11.dtd">
<svg version="1.1" xmlns="http://www.w3.org/2000/svg" xmlns:xlink="http://www.w3.org/1999/xlink" x="0px" y="0px" width="630px"
	 height="340px" viewBox="0 0 630 340" enable-background="new 0 0 630 340" xml:space="preserve">
<g id="Layer_1">
	<g>
		<g>
			<path fill="#2F41C9" d="M93.162,203.135v2.073l-27.102,3.666c-4.464,0.798-4.464-2.868-4.464-2.868v-11.958
				c-3.826,10.363-15.942,14.987-25.348,14.987c-20.088,0-34.436-13.391-34.436-38.581c0-28.218,19.131-37.306,39.538-37.785v2.232
				c-7.652,1.596-12.116,10.522-12.116,33.001c0,22.958,4.782,33.321,17.058,33.321c8.45,0,14.667-6.697,15.305-14.668v-27.262
				c0-15.942-6.855-23.434-14.826-24.392v-2.232c6.855,0.798,11.637,2.871,14.826,5.741v-31.567c0-5.58-1.594-7.492-8.13-9.884
				v-1.913l31.566-6.377v104.104C85.032,200.583,86.626,202.337,93.162,203.135z"/>
			<path fill="#2F41C9" d="M167.45,186.235l2.073,0.798c-2.391,10.043-12.914,22-33.48,22c-20.884,0-36.507-17.855-36.507-37.942
				c0-23.755,16.421-37.305,35.871-38.423v2.073c-6.696,3.19-10.682,18.813-10.682,32.525h25.667
				c0-17.698-3.188-29.973-9.406-32.525v-2.073c18.493,0.798,30.769,10.522,30.769,36.67h-47.03
				c0.638,19.927,8.449,27.101,19.131,29.492C152.146,200.743,163.784,196.757,167.45,186.235z"/>
			<path fill="#2F41C9" d="M236.32,200.424c0,0-5.581,7.654-20.885,8.609v-2.392c8.928-1.913,9.885-14.189-1.275-21.362
				l-16.102-9.727c-15.146-9.724-19.291-24.073-10.044-35.231c0,0,5.421-7.015,20.406-7.654v2.232
				c-8.29,1.755-11.16,11.799,1.435,19.77l16.102,10.044C240.305,173.48,244.609,189.425,236.32,200.424z M210.015,206.801v2.232
				c-17.377-0.638-25.827-6.377-25.827-6.377V182.25h2.072C188.811,191.974,196.942,205.047,210.015,206.801z M214,134.74v-2.23
				c16.261,0.477,23.276,4.622,23.276,4.622v17.059h-2.073C232.972,144.944,225.319,136.017,214,134.74z"/>
			<path fill="#7187F4" d="M288.927,207.599h-36.349v-1.913c6.058-1.913,6.377-8.61,6.377-16.74V151.8
				c0-5.579-1.753-7.812-8.29-10.682v-2.073l31.725-6.535v56.436c0,8.769,0.797,15.144,6.536,16.74V207.599z M269,98.073
				c7.174,0,13.072,5.741,13.072,13.073c0,7.175-5.898,12.914-13.072,12.914c-7.334,0-13.073-5.739-13.073-12.914
				C255.927,103.814,261.666,98.073,269,98.073z"/>
			<path fill="#7187F4" d="M355.724,237.41l1.276,1.754c-21.363,15.784-53.885,12.914-59.784,0
				c-5.421-11.478,2.55-20.406,10.043-25.347l1.275,1.434c-7.812,11.637,11.638,19.449,11.638,19.449
				C332.13,240.76,346.318,241.875,355.724,237.41z M371.986,218.438c0,0-0.638,9.248-11,17.538l-1.275-1.753
				c4.464-5.103,3.029-11.48,3.029-11.48s-1.914-8.29-13.552-8.29h-21.682c-7.493,0-25.349-1.594-25.349-17.217
				c0,0-0.319-13.71,14.827-19.928c-10.522-4.145-14.188-13.552-14.188-20.885c0-12.276,8.13-22.958,28.855-23.756v2.232
				c-4.782,1.117-6.218,6.218-6.218,21.523c0,14.985,2.073,20.247,6.218,21.521v2.392c-4.942-0.159-8.927-0.956-12.276-2.232
				c-4.304,2.232-12.435,12.276,3.827,12.276h22.319C356.043,190.38,375.333,191.178,371.986,218.438z M382.508,146.539
				c-3.827,3.507-9.885,3.028-13.392-0.798c-1.754-2.073-2.551-4.464-2.231-6.697c0.318-1.434-3.189-0.796-5.899,1.913
				c3.826,3.986,5.42,9.726,5.42,15.465c0,10.203-7.015,22.798-28.855,23.913v-2.392c4.145-1.275,6.217-6.537,6.217-21.521
				c0-14.987-1.913-20.247-6.217-21.523v-2.232c10.203,0.319,17.377,3.03,22,7.016c4.783-6.377,10.363-8.769,14.029-9.405
				c3.188-0.798,7.174,0.317,9.725,2.868C386.812,136.973,386.493,143.031,382.508,146.539z"/>
			<path fill="#2F41C9" d="M424.113,205.686v1.913h-36.348v-1.913c6.058-1.753,6.217-8.45,6.217-16.581V151.64
				c0-5.579-1.594-7.652-8.13-10.522v-2.073l31.725-6.535v56.595C417.576,197.874,418.533,204.09,424.113,205.686z M470.983,205.686
				v1.913h-36.349v-1.913c6.059-1.753,6.377-8.769,6.377-16.9v-31.407c0-8.448-4.145-13.391-11.957-13.391
				c-1.913,0-3.985,0.479-5.739,1.754l-1.754-2.552c5.102-6.058,12.594-10.68,19.768-10.68c12.595,0,23.117,5.101,23.117,24.232
				v32.043C464.447,197.555,465.403,204.25,470.983,205.686z"/>
			<path fill="#2F41C9" d="M546.547,186.235l2.072,0.798c-2.392,10.043-12.914,22-33.479,22c-20.885,0-36.508-17.855-36.508-37.942
				c0-23.755,16.421-37.305,35.871-38.423v2.073c-6.696,3.19-10.681,18.813-10.681,32.525h25.667
				c0-17.698-3.188-29.973-9.406-32.525v-2.073c18.494,0.798,30.769,10.522,30.769,36.67h-47.03
				c0.637,19.927,8.449,27.101,19.13,29.492C531.242,200.743,542.879,196.757,546.547,186.235z"/>
			<path fill="#2F41C9" d="M596.125,205.686v1.913h-36.348v-1.913c6.058-1.913,6.218-8.61,6.218-16.74V151.8
				c0-5.579-1.595-7.812-8.131-10.682v-2.073l31.725-6.535v56.436C589.589,197.715,590.386,204.09,596.125,205.686z
				 M623.546,135.858c5.58,4.783,6.217,13.391,1.435,18.812c-4.942,5.58-13.232,6.218-18.972,1.434
				c-2.71-2.551-4.304-5.579-4.304-8.769c0-1.434-3.348-1.594-7.174,2.073l-1.435-1.754c7.812-10.682,12.595-12.435,16.421-14.188
				C613.343,131.712,619.72,132.51,623.546,135.858z"/>
		</g>
		<path fill="#7187F4" d="M237.712,115.465v2.073l-27.102,3.668c-4.464,0.796-4.464-2.87-4.464-2.87v-11.957
			c-3.826,10.362-15.942,14.986-25.348,14.986c-20.088,0-34.436-13.393-34.436-38.583c0-28.218,19.131-37.304,39.538-37.782v2.232
			c-7.652,1.594-12.117,10.522-12.117,33.001c0,22.956,4.784,33.318,17.059,33.318c8.449,0,14.667-6.694,15.305-14.665V71.624
			c0-15.942-6.855-23.437-14.826-24.392V45c6.855,0.798,11.638,2.87,14.826,5.739V19.174c0-5.582-1.594-7.495-8.13-9.886V7.375
			L229.582,1v104.104C229.582,112.916,231.176,114.669,237.712,115.465z"/>
		<g>
			<path fill="#7187F4" d="M423.994,337.566h-36.349v-1.913c6.058-1.913,6.377-8.609,6.377-16.74v-37.146
				c0-5.579-1.753-7.812-8.29-10.682v-2.073l31.726-6.535v56.436c0,8.769,0.797,15.144,6.537,16.74V337.566z M404.065,228.04
				c7.174,0,13.073,5.741,13.073,13.073c0,7.175-5.899,12.914-13.073,12.914c-7.333,0-13.073-5.739-13.073-12.914
				C390.992,233.781,396.732,228.04,404.065,228.04z"/>
			<path fill="#7187F4" d="M486.327,323.377C483.776,331.348,474.21,339,463.05,339c-12.594,0-23.595-5.101-23.595-24.392v-48.624
				h-8.927l-0.319-2.073h9.246v-21.364l23.436-3.347v24.711h19.768l-0.319,2.073h-19.449v48.145c0,8.929,3.507,13.393,12.116,13.393
				c4.623,0,7.971-2.871,9.565-5.103L486.327,323.377z"/>
			<path fill="#7187F4" d="M569.704,326.565l1.914,0.958C569.863,333.58,562.052,339,552.008,339c0,0-17.696,0-17.696-15.146
				v-24.709c-14.348,3.188-16.899,11.797-16.899,19.608c0,0-0.159,10.522,8.291,10.522c1.435,0,3.188-0.159,4.304-1.117l1.435,1.755
				c-3.826,5.101-10.682,9.086-19.29,9.086c-3.029,0-19.131-1.275-19.131-16.261c0-16.58,13.072-18.972,41.291-25.826v-10.043
				c0-14.827-7.493-23.117-16.899-20.725l-0.957-1.913c6.058-2.073,11.479-1.754,11.479-1.754c20.885,0,29.653,13.072,29.653,31.884
				v23.754c0,0-0.159,11.32,7.653,11.161C565.24,329.276,568.907,329.276,569.704,326.565z M500.514,286.39
				c-1.753-3.666-1.435-7.971,0.638-10.682c1.754-2.232,4.146-5.579,10.363-9.246l0.957,1.913c-1.435,1.115-2.87,2.868,0.159,3.826
				c2.551,0.636,4.464,2.232,5.739,4.781c2.71,4.943,0.797,11.001-4.304,13.712C509.123,293.087,503.064,291.332,500.514,286.39z"/>
			<path fill="#7187F4" d="M613.384,337.566h-36.349v-1.913c6.059-1.753,6.377-8.45,6.377-16.74v-81.625
				c0-5.579-1.754-7.971-8.29-10.363v-1.913l31.725-6.377v100.278c0,8.769,0.797,15.144,6.536,16.74V337.566z"/>
		</g>
	</g>
</g>
<g id="grid" display="none">
</g>
</svg>
