<?xml version="1.0" encoding="UTF-8"?>
<svg id="cr-dd-svg" width="630px" height="340px" viewBox="0 0 630 340" version="1.1" xmlns="http://www.w3.org/2000/svg" xmlns:xlink="http://www.w3.org/1999/xlink">
	<title>Digital Designer</title>
	<defs></defs>
	<g id="digital-designer" stroke="none" stroke-width="1" fill="none" fill-rule="evenodd">
		<g id="cr-dd-outer" transform="translate(2.000000, 1.000000)">
			<g id="cr-ner" fill="#2F41C9" transform="translate(384.000000, 131.000000)">
					<path d="M237.7339,3.8579 C243.3139,8.6409 243.9519,17.2479 239.1699,22.6699 C234.2269,28.2499 225.9369,28.8879 220.1979,24.1039 C217.4869,21.5539 215.8939,18.5249 215.8939,15.3349 C215.8939,13.9009 212.5449,13.7419 208.7189,17.4079 L207.2839,15.6539 C215.0959,4.9729 219.8789,3.2189 223.7049,1.4659 C227.5309,-0.2881 233.9079,0.5099 237.7339,3.8579 M210.3129,73.6859 L210.3129,75.5989 L173.9649,75.5989 L173.9649,73.6859 C180.0229,71.7729 180.1829,65.0759 180.1829,56.9459 L180.1829,19.7999 C180.1829,14.2199 178.5879,11.9879 172.0519,9.1179 L172.0519,7.0449 L203.7769,0.5099 L203.7769,56.9459 C203.7769,65.7149 204.5739,72.0899 210.3129,73.6859"></path>
					<path d="M160.7349,54.2351 L162.8069,55.0331 C160.4159,65.0761 149.8939,77.0331 129.3279,77.0331 C108.4429,77.0331 92.8199,59.1781 92.8199,39.0911 C92.8199,15.3351 109.2409,1.7851 128.6909,0.6681 L128.6909,2.7401 C121.9949,5.9301 118.0089,21.5531 118.0089,35.2651 L143.6759,35.2651 C143.6759,17.5671 140.4879,5.2921 134.2699,2.7401 L134.2699,0.6681 C152.7639,1.4661 165.0389,11.1901 165.0389,37.3371 L118.0089,37.3371 C118.6459,57.2651 126.4589,64.4381 137.1399,66.8301 C145.4299,68.7431 157.0669,64.7571 160.7349,54.2351"></path>
					<path d="M85.1709,73.6858 L85.1709,75.5988 L48.8229,75.5988 L48.8229,73.6858 C54.8809,71.9328 55.1999,64.9168 55.1999,56.7858 L55.1999,25.3788 C55.1999,16.9308 51.0549,11.9878 43.2429,11.9878 C41.3299,11.9878 39.2569,12.4668 37.5039,13.7418 L35.7499,11.1898 C40.8519,5.1328 48.3439,0.5098 55.5179,0.5098 C68.1129,0.5098 78.6349,5.6108 78.6349,24.7428 L78.6349,56.7858 C78.6349,65.5548 79.5909,72.2498 85.1709,73.6858 M38.3009,73.6858 L38.3009,75.5988 L1.9529,75.5988 L1.9529,73.6858 C8.0099,71.9328 8.1699,65.2368 8.1699,57.1058 L8.1699,19.6398 C8.1699,14.0608 6.5749,11.9878 0.0389,9.1178 L0.0389,7.0448 L31.7639,0.5098 L31.7639,57.1058 C31.7639,65.8738 32.7209,72.0898 38.3009,73.6858"></path>
			</g>
			<path id="cr-i" fill="#7187F4" d="M267.188,97.073 C274.362,97.073 280.26,102.814 280.26,110.147 C280.26,117.322 274.362,123.061 267.188,123.061 C259.854,123.061 254.115,117.322 254.115,110.147 C254.115,102.814 259.854,97.073 267.188,97.073 Z"></path>
			<g id="cr-des" fill="#2F41C9" transform="translate(0.000000, 87.000000)">
					<path d="M212.188,47.7402 L212.188,45.5102 C228.449,45.9872 235.464,50.1322 235.464,50.1322 L235.464,67.1912 L233.392,67.1912 C231.16,57.9442 223.507,49.0172 212.188,47.7402 Z M208.203,119.8012 L208.203,122.0332 C190.825,121.3952 182.376,115.6562 182.376,115.6562 L182.376,95.2492 L184.448,95.2492 C186.999,104.9742 195.13,118.0482 208.203,119.8012 Z M234.508,113.4242 C234.508,113.4242 228.927,121.0772 213.623,122.0332 L213.623,119.6412 C222.551,117.7282 223.507,105.4522 212.348,98.2792 L196.246,88.5532 C181.1,78.8282 176.955,64.4802 186.202,53.3222 C186.202,53.3222 191.623,46.3062 206.608,45.6682 L206.608,47.9002 C198.318,49.6552 195.448,59.6992 208.043,67.6702 L224.145,77.7132 C238.493,86.4802 242.797,102.4252 234.508,113.4242 Z"></path>
					<path d="M165.6377,98.2351 L167.7107,99.0331 C165.3197,109.0761 154.7967,121.0331 134.2307,121.0331 C113.3467,121.0331 97.7237,103.1781 97.7237,83.0911 C97.7237,59.3351 114.1447,45.7851 133.5947,44.6681 L133.5947,46.7401 C126.8987,49.9301 122.9127,65.5531 122.9127,79.2651 L148.5797,79.2651 C148.5797,61.5671 145.3907,49.2921 139.1737,46.7401 L139.1737,44.6681 C157.6667,45.4661 169.9417,55.1901 169.9417,81.3371 L122.9127,81.3371 C123.5507,101.2651 131.3617,108.4381 142.0437,110.8301 C150.3337,112.7431 161.9717,108.7571 165.6377,98.2351"></path>
					<path d="M91.3501,115.135 L91.3501,117.207 L64.2481,120.874 C59.7841,121.671 59.7841,118.005 59.7841,118.005 L59.7841,106.046 C55.9581,116.409 43.8421,121.033 34.4361,121.033 C14.3481,121.033 0.0001,107.642 0.0001,82.452 C0.0001,54.235 19.1311,45.147 39.5371,44.668 L39.5371,46.9 C31.8851,48.496 27.4211,57.422 27.4211,79.901 C27.4211,102.859 32.2041,113.222 44.4791,113.222 C52.9291,113.222 59.1461,106.525 59.7841,98.554 L59.7841,71.292 C59.7841,55.35 52.9291,47.858 44.9581,46.9 L44.9581,44.668 C51.8131,45.466 56.5951,47.538 59.7841,50.409 L59.7841,18.842 C59.7841,13.262 58.1901,11.35 51.6541,8.958 L51.6541,7.045 L83.2201,0.668 L83.2201,104.772 C83.2201,112.583 84.8141,114.337 91.3501,115.135"></path>
			</g>
			<g id="cr-ital" fill="#7187F4" transform="translate(383.000000, 217.000000)">
					<path d="M228.5718,119.5659 L192.2228,119.5659 L192.2228,117.6529 C198.2818,115.8989 198.5998,109.2029 198.5998,100.9129 L198.5998,19.2879 C198.5998,13.7089 196.8458,11.3169 190.3108,8.9249 L190.3108,7.0119 L222.0358,0.6349 L222.0358,100.9129 C222.0358,109.6819 222.8328,116.0569 228.5718,117.6529 L228.5718,119.5659 Z"></path>
					<path d="M115.7017,68.3904 C113.9487,64.7244 114.2667,60.4194 116.3387,57.7084 C118.0937,55.4764 120.4847,52.1294 126.7017,48.4634 L127.6587,50.3764 C126.2237,51.4904 124.7887,53.2444 127.8177,54.2024 C130.3687,54.8384 132.2817,56.4334 133.5567,58.9834 C136.2677,63.9264 134.3547,69.9844 129.2527,72.6954 C124.3107,75.0864 118.2517,73.3314 115.7017,68.3904 M184.8917,108.5654 L186.8057,109.5224 C185.0517,115.5804 177.2397,121.0004 167.1957,121.0004 C167.1957,121.0004 149.4997,121.0004 149.4997,105.8544 L149.4997,81.1454 C135.1507,84.3324 132.6007,92.9424 132.6007,100.7534 C132.6007,100.7534 132.4417,111.2754 140.8907,111.2754 C142.3257,111.2754 144.0787,111.1164 145.1947,110.1584 L146.6297,111.9134 C142.8047,117.0144 135.9487,121.0004 127.3397,121.0004 C124.3107,121.0004 108.2087,119.7254 108.2087,104.7394 C108.2087,88.1584 121.2807,85.7674 149.4997,78.9124 L149.4997,68.8694 C149.4997,54.0424 142.0067,45.7524 132.6007,48.1434 L131.6437,46.2314 C137.7017,44.1584 143.1227,44.4774 143.1227,44.4774 C164.0077,44.4774 172.7747,57.5484 172.7747,76.3614 L172.7747,100.1154 C172.7747,100.1154 172.6167,111.4354 180.4287,111.2754 C180.4287,111.2754 184.0947,111.2754 184.8917,108.5654"></path>
					<path d="M101.5146,105.3774 C98.9636,113.3484 89.3976,121.0004 78.2386,121.0004 C65.6436,121.0004 54.6426,115.8994 54.6426,96.6084 L54.6426,47.9844 L45.7156,47.9844 L45.3966,45.9114 L54.6426,45.9114 L54.6426,24.5474 L78.0786,21.2004 L78.0786,45.9114 L97.8476,45.9114 L97.5286,47.9844 L78.0786,47.9844 L78.0786,96.1294 C78.0786,105.0584 81.5856,109.5224 90.1956,109.5224 C94.8176,109.5224 98.1666,106.6514 99.7606,104.4194 L101.5146,105.3774 Z"></path>
					<path d="M19.2529,11.0398 C26.4269,11.0398 32.3269,16.7808 32.3269,24.1138 C32.3269,31.2888 26.4269,37.0278 19.2529,37.0278 C11.9199,37.0278 6.1799,31.2888 6.1799,24.1138 C6.1799,16.7808 11.9199,11.0398 19.2529,11.0398 Z M39.1819,120.5658 L2.8329,120.5658 L2.8329,118.6528 C8.8909,116.7398 9.2099,110.0428 9.2099,101.9128 L9.2099,64.7668 C9.2099,59.1878 7.4569,56.9548 0.9199,54.0848 L0.9199,52.0118 L32.6449,45.4778 L32.6449,101.9128 C32.6449,110.6818 33.4419,117.0568 39.1819,118.6528 L39.1819,120.5658 Z"></path>
			</g>
			<g id="cr-ig"  fill="#7187F4" transform="translate(248.000000, 129.000000)">
					<path d="M132.6958,16.5396 C128.8688,20.0466 122.8108,19.5676 119.3038,15.7416 C117.5498,13.6696 116.7528,11.2776 117.0718,9.0456 C117.3908,7.6116 113.8838,8.2496 111.1728,10.9586 C114.9998,14.9436 116.5928,20.6846 116.5928,26.4236 C116.5928,36.6266 109.5788,49.2216 87.7378,50.3366 L87.7378,47.9446 C91.8828,46.6706 93.9548,41.4076 93.9548,26.4236 C93.9548,11.4366 92.0418,6.1766 87.7378,4.9006 L87.7378,2.6676 C97.9408,2.9876 105.1148,5.6986 109.7378,9.6836 C114.5208,3.3066 120.1008,0.9146 123.7678,0.2786 C126.9558,-0.5194 130.9418,0.5956 133.4928,3.1466 C136.9998,6.9726 136.6808,13.0306 132.6958,16.5396 M122.1738,88.4386 C122.1738,88.4386 121.5358,97.6866 111.1728,105.9756 L109.8978,104.2226 C114.3618,99.1206 112.9268,92.7436 112.9268,92.7436 C112.9268,92.7436 111.0138,84.4526 99.3758,84.4526 L77.6938,84.4526 C70.2008,84.4526 52.3448,82.8596 52.3448,67.2366 C52.3448,67.2366 52.0258,53.5256 67.1718,47.3086 C56.6498,43.1636 52.9828,33.7566 52.9828,26.4236 C52.9828,14.1476 61.1138,3.4656 81.8388,2.6676 L81.8388,4.9006 C77.0568,6.0176 75.6208,11.1176 75.6208,26.4236 C75.6208,41.4076 77.6938,46.6706 81.8388,47.9446 L81.8388,50.3366 C76.8968,50.1766 72.9118,49.3806 69.5628,48.1046 C65.2588,50.3366 57.1288,60.3806 73.3898,60.3806 L95.7088,60.3806 C106.2308,60.3806 125.5218,61.1786 122.1738,88.4386 M105.9118,107.4106 L107.1878,109.1636 C85.8248,124.9476 53.3018,122.0776 47.4038,109.1636 C41.9828,97.6866 49.9538,88.7576 57.4468,83.8166 L58.7228,85.2506 C50.9108,96.8876 70.3608,104.6996 70.3608,104.6996 C82.3178,110.7596 96.5058,111.8746 105.9118,107.4106"></path>
					<path d="M39.115,77.599 L2.767,77.599 L2.767,75.686 C8.825,73.773 9.144,67.076 9.144,58.946 L9.144,21.8 C9.144,16.22 7.39,13.988 0.854,11.118 L0.854,9.045 L32.579,2.51 L32.579,58.946 C32.579,67.715 33.376,74.09 39.115,75.686 L39.115,77.599 Z"></path>
			</g>
			<path id="cr-d" fill="#7187F4" d="M235.8999,114.4646 L235.8999,116.5376 L208.7979,120.2056 C204.3349,121.0016 204.3349,117.3356 204.3349,117.3356 L204.3349,105.3796 C200.5079,115.7416 188.3919,120.3656 178.9859,120.3656 C158.8989,120.3656 144.5499,106.9726 144.5499,81.7826 C144.5499,53.5656 163.6819,44.4786 184.0879,44.0006 L184.0879,46.2326 C176.4359,47.8266 171.9709,56.7546 171.9709,79.2336 C171.9709,102.1896 176.7539,112.5516 189.0299,112.5516 C197.4789,112.5516 203.6969,105.8576 204.3349,97.8866 L204.3349,70.6246 C204.3349,54.6826 197.4789,47.1876 189.5079,46.2326 L189.5079,44.0006 C196.3629,44.7986 201.1459,46.8706 204.3349,49.7386 L204.3349,18.1746 C204.3349,12.5926 202.7399,10.6796 196.2039,8.2876 L196.2039,6.3746 L227.7699,-0.0004 L227.7699,104.1036 C227.7699,111.9156 229.3639,113.6696 235.8999,114.4646"></path>
		</g>
	</g>
</svg>