<?xml version="1.0" encoding="UTF-8"?>
<svg width="11px" height="19px" viewBox="0 0 11 19" version="1.1" xmlns="http://www.w3.org/2000/svg" xmlns:xlink="http://www.w3.org/1999/xlink">
    <!-- Generator: Sketch 49.2 (51160) - http://www.bohemiancoding.com/sketch -->
    <title>cr-right-arrow</title>
    <desc>Created with Sketch.</desc>
    <defs></defs>
    <g id="cr-right-arrow" stroke="none" stroke-width="1" fill="none" fill-rule="evenodd">
        <path d="M10.377,9.471 L1.923,17.925 C1.814,18.034 1.65,18.107 1.505,18.107 C1.36,18.107 1.197,18.034 1.088,17.925 L0.181,17.018 C0.072,16.909 0,16.764 0,16.601 C0,16.456 0.072,16.292 0.181,16.183 L7.312,9.054 L0.181,1.924 C0.072,1.815 0,1.651 0,1.506 C0,1.361 0.072,1.198 0.181,1.089 L1.088,0.182 C1.197,0.073 1.36,0 1.505,0 C1.65,0 1.814,0.073 1.923,0.182 L10.377,8.636 C10.486,8.745 10.559,8.909 10.559,9.054 C10.559,9.199 10.486,9.362 10.377,9.471" fill="#BFC2D0"></path>
    </g>
</svg>