<?xml version="1.0" encoding="UTF-8"?>
<svg width="19px" height="11px" viewBox="0 0 19 11" version="1.1" xmlns="http://www.w3.org/2000/svg" xmlns:xlink="http://www.w3.org/1999/xlink">
    <!-- Generator: Sketch 49.2 (51160) - http://www.bohemiancoding.com/sketch -->
    <title>cr-up-arrow</title>
    <desc>Created with Sketch.</desc>
    <defs></defs>
    <g id="cr-up-arrow" stroke="none" stroke-width="1" fill="none" fill-rule="evenodd">
        <path d="M14.8103987,5.41503286 L6.00331471,13.8190755 C5.88976229,13.9274314 5.71891278,14 5.5678568,14 C5.41680083,14 5.24699309,13.9274314 5.13344067,13.8190755 L4.18855952,12.9174352 C4.0750071,12.8090794 4,12.6649362 4,12.5028994 C4,12.3587563 4.0750071,12.1957254 4.18855952,12.0873695 L11.617388,5.00049705 L4.18855952,-2.08736953 C4.0750071,-2.19572541 4,-2.35875628 4,-2.50289943 C4,-2.64704258 4.0750071,-2.80907936 4.18855952,-2.91743525 L5.13344067,-3.8190755 C5.24699309,-3.92743138 5.41680083,-4 5.5678568,-4 C5.71891278,-4 5.88976229,-3.92743138 6.00331471,-3.8190755 L14.8103987,4.58496714 C14.9239511,4.69332302 15,4.8563539 15,5.00049705 C15,5.14464019 14.9239511,5.30667698 14.8103987,5.41503286" fill="#BFC2D0" transform="translate(9.500000, 5.000000) rotate(-90.000000) translate(-9.500000, -5.000000) "></path>
    </g>
</svg>