<?xml version="1.0" encoding="UTF-8"?>
<svg width="370px" height="197px" viewBox="0 0 370 197" version="1.1" xmlns="http://www.w3.org/2000/svg" xmlns:xlink="http://www.w3.org/1999/xlink">
    <title>cr-world-map</title>
    <defs></defs>
    <g id="cr-world-map" stroke="none" stroke-width="1" fill="none" fill-rule="evenodd">
        <g id="cr-map" transform="translate(5.000000, 6.000000)">
            <path d="M317.293269,57.5452026 C317.293269,57.5452026 317.292269,57.4822026 317.289269,57.3952026 C317.131269,57.3432026 317.293269,57.5452026 317.293269,57.5452026 Z M306.812869,84.2044026 C305.357869,86.6984026 305.777869,84.4124026 305.777869,82.3424026 C305.777869,80.2664026 304.322869,80.3684026 303.492869,79.8504026 C302.662869,79.3304026 302.041869,80.5774026 300.693869,82.4414026 C299.345869,84.3094026 300.376869,84.4124026 302.144869,85.8634026 C303.908869,87.3174026 303.908869,88.1474026 305.568869,90.5344026 C307.228869,92.9214026 306.294869,92.7144026 306.189869,93.6474026 C306.085869,94.5824026 303.800869,96.8634026 302.974869,97.4834026 C302.144869,98.1064026 301.519869,98.8344026 300.796869,98.2134026 C300.068869,97.5914026 299.550869,97.4834026 299.443869,96.7604026 C299.345869,96.0324026 298.515869,96.3454026 297.578869,94.7874026 C296.644869,93.2334026 296.439869,94.2694026 296.023869,92.9214026 C295.609869,91.5754026 295.091869,92.0894026 294.574869,92.6094026 C294.048869,93.1274026 293.841869,94.8934026 294.048869,96.1384026 C294.261869,97.3834026 293.636869,99.1434026 293.636869,99.1434026 C293.740869,98.9364026 293.015869,98.5194026 292.806869,97.2764026 C292.597869,96.0324026 292.703869,95.9284026 292.703869,94.5764026 C292.703869,93.2334026 292.912869,94.7874026 292.806869,93.1274026 C292.703869,91.4714026 292.390869,91.4714026 291.873869,89.8074026 C291.355869,88.1474026 291.248869,88.5634026 290.628869,88.3574026 C290.011869,88.1474026 289.386869,89.9154026 288.865869,89.2884026 C288.347869,88.6664026 288.347869,88.7704026 288.347869,87.1064026 C288.347869,85.4484026 287.310869,86.2804026 286.164869,84.9324026 C285.025869,83.5854026 285.236869,83.7934026 284.923869,82.8564026 C284.611869,81.9254026 283.160869,80.1584026 282.433869,80.0564026 C281.708869,79.9524026 280.773869,79.5384026 280.253869,79.5384026 C279.736869,79.5384026 279.839869,79.6424026 279.527869,79.3304026 C279.214869,79.0174026 277.763869,80.0564026 276.933869,80.8864026 C276.103869,81.7164026 275.277869,82.5444026 274.755869,83.2734026 C274.238869,83.9994026 271.953869,85.1364026 271.537869,85.2444026 C271.126869,85.3494026 270.296869,86.5934026 270.085869,87.3174026 C269.880869,88.0454026 269.050869,88.9774026 268.738869,90.5344026 C268.425869,92.0894026 269.050869,92.0894026 269.050869,93.6454026 C269.050869,95.2004026 268.943869,94.9934026 269.050869,96.0314026 C269.158869,97.0684026 268.533869,97.2764026 268.533869,97.2764026 C268.533869,97.2764026 267.078869,98.6244026 266.769869,98.7274026 C266.457869,98.8324026 265.314869,99.3514026 265.212869,98.7274026 C265.105869,98.1024026 264.382869,97.8974026 264.382869,97.0684026 C264.382869,96.2384026 263.757869,95.8254026 263.654869,94.6834026 C263.550869,93.5404026 262.927869,93.9564026 262.824869,92.7104026 C262.720869,91.4654026 260.437869,87.3174026 259.917869,85.9684026 C259.400869,84.6184026 259.609869,85.1404026 259.917869,83.1694026 C260.230869,81.1924026 258.986869,81.5054026 259.195869,80.6784026 C259.400869,79.8464026 258.365869,80.3684026 258.160869,80.6784026 C257.949869,80.9884026 256.601869,81.8174026 255.767869,81.0914026 C254.941869,80.3684026 255.044869,80.0544026 254.423869,79.3304026 C253.798869,78.6024026 253.593869,78.4984026 252.552869,77.8794026 C251.517869,77.2534026 251.412869,76.1104026 250.996869,76.1104026 C250.583869,76.1104026 248.919869,75.1794026 248.919869,75.1794026 L246.642869,74.9744026 L244.669869,75.0744026 C244.669869,75.0744026 242.804869,75.0744026 241.453869,74.8664026 C240.105869,74.6594026 240.105869,74.8664026 239.583869,74.3494026 C239.064869,73.8334026 237.925869,73.7234026 237.720869,72.8954026 C237.507869,72.0654026 237.302869,72.5844026 236.783869,72.3784026 C236.265869,72.1734026 236.056869,72.4794026 235.851869,72.2734026 C235.644869,72.0654026 234.605869,72.1734026 233.363869,72.0654026 C232.115869,71.9634026 231.494869,71.2354026 230.146869,70.3034026 C228.798869,69.3704026 227.968869,69.1604026 227.449869,67.8134026 C226.927869,66.4644026 226.306869,68.8534026 227.136869,70.4074026 C227.968869,71.9634026 227.861869,71.9634026 227.968869,72.5874026 C228.070869,73.2084026 228.382869,73.3114026 228.798869,74.8664026 C229.212869,76.4274026 229.937869,75.8044026 230.664869,76.8394026 C231.390869,77.8794026 232.015869,76.8394026 233.570869,76.5294026 C235.126869,76.2194026 234.501869,75.8044026 236.056869,74.2464026 C237.613869,72.6904026 236.783869,74.2464026 237.507869,75.5964026 C238.238869,76.9424026 238.136869,76.7344026 239.171869,77.7724026 C240.210869,78.8114026 240.626869,78.6024026 241.345869,79.2254026 C242.078869,79.8464026 240.935869,80.7814026 240.105869,81.7164026 C239.271869,82.6494026 238.859869,82.7504026 238.654869,83.3764026 C238.443869,83.9994026 237.408869,85.3494026 236.474869,86.0724026 C235.539869,86.7984026 234.193869,88.0454026 234.193869,88.0454026 C234.193869,88.0454026 230.869869,89.6004026 230.455869,89.6004026 C230.042869,89.6004026 226.306869,91.9864026 226.306869,91.9864026 L223.816869,92.6094026 C223.816869,92.6094026 221.951869,92.0894026 221.847869,91.6754026 C221.742869,91.2574026 220.812869,89.4944026 220.812869,88.1474026 C220.812869,86.7984026 218.835869,84.7254026 218.630869,84.1004026 C218.423869,83.4794026 217.076869,82.2334026 216.662869,81.6134026 C216.242869,80.9884026 215.207869,79.3304026 215.103869,78.9134026 C214.999869,78.5004026 214.376869,77.4624026 213.859869,76.0094026 C213.339869,74.5554026 211.162869,72.5844026 211.162869,72.1734026 C211.162869,71.7574026 209.916869,70.6164026 209.605869,70.6164026 C209.296869,70.6164026 208.462869,70.9294026 208.462869,70.9294026 C208.462869,70.9294026 207.011869,69.8904026 206.908869,69.5774026 C206.802869,69.2654026 207.324869,70.9294026 207.636869,71.2354026 C207.945869,71.5484026 210.328869,76.3214026 210.541869,77.2534026 C210.748869,78.1854026 211.162869,78.5004026 211.470869,79.5384026 C211.783869,80.5754026 212.197869,80.7814026 212.822869,82.6494026 C213.447869,84.5164026 213.859869,83.9994026 214.376869,85.3454026 C214.898869,86.6954026 215.103869,86.3874026 215.933869,87.4214026 C216.763869,88.4604026 216.662869,87.8364026 217.597869,89.1824026 C218.527869,90.5344026 218.943869,90.9484026 219.566869,91.9864026 C220.183869,93.0244026 220.392869,93.8524026 220.705869,95.3064026 C221.013869,96.7574026 221.742869,95.7234026 222.677869,95.9284026 C222.677869,95.9284026 224.232869,95.4084026 227.240869,95.6164026 C230.249869,95.8254026 229.212869,95.4084026 229.624869,95.3064026 C230.042869,95.2004026 231.289869,94.9954026 231.494869,94.7864026 C231.699869,94.5764026 230.664869,98.6264026 230.455869,99.3514026 C230.249869,100.077403 229.107869,101.427403 229.107869,101.427403 C229.107869,101.427403 228.277869,102.465403 228.173869,102.775403 C228.070869,103.086403 226.619869,105.058403 225.892869,106.093403 C225.167869,107.134403 223.923869,108.066403 223.402869,108.479403 C222.886869,108.895403 222.156869,109.936403 221.429869,111.073403 C220.705869,112.216403 218.630869,114.603403 218.630869,114.603403 C218.630869,114.603403 217.281869,116.262403 216.972869,116.675403 C216.662869,117.091403 215.933869,118.130403 215.933869,118.541403 C215.933869,118.956403 215.728869,120.308403 216.138869,120.824403 C216.554869,121.344403 216.662869,123.418403 217.281869,125.080403 C217.902869,126.738403 217.492869,126.323403 217.697869,128.087403 C217.902869,129.853403 217.902869,130.162403 217.902869,130.474403 C217.902869,130.784403 217.281869,132.133403 217.281869,132.652403 C217.281869,133.171403 215.724869,134.208403 214.999869,134.625403 C214.273869,135.036403 214.167869,135.350403 213.648869,135.663403 C213.130869,135.972403 211.574869,137.940403 211.574869,137.940403 C211.574869,137.940403 210.435869,139.498403 210.328869,141.054403 C210.224869,142.611403 210.541869,141.577403 210.748869,141.886403 C210.953869,142.198403 210.748869,143.546403 210.953869,144.477403 C211.162869,145.410403 210.640869,144.997403 210.328869,145.101403 C210.019869,145.204403 209.707869,145.827403 209.189869,146.140403 C208.671869,146.453403 208.050869,146.968403 207.529869,148.317403 C207.011869,149.667403 207.220869,149.145403 206.908869,149.562403 C206.595869,149.977403 206.490869,150.286403 206.283869,150.808403 C206.074869,151.328403 205.869869,152.050403 205.144869,152.259403 C204.414869,152.467403 203.792869,153.609403 203.171869,154.125403 C202.552869,154.646403 202.654869,154.646403 201.718869,155.474403 C200.789869,156.308403 200.476869,156.722403 199.955869,157.242403 C199.437869,157.757403 198.917869,158.173403 198.507869,157.968403 C198.087869,157.757403 197.361869,158.592403 196.843869,158.592403 C196.326869,158.592403 195.806869,159.213403 195.289869,159.213403 C194.767869,159.213403 194.249869,159.523403 193.628869,159.213403 C193.003869,158.900403 192.173869,159.832403 191.763869,159.936403 C191.343869,160.043403 190.205869,159.317403 190.205869,159.317403 C190.205869,159.317403 189.787869,158.592403 189.474869,157.862403 C189.166869,157.136403 189.062869,155.580403 188.960869,154.955403 C188.857869,154.337403 188.443869,153.923403 188.130869,153.194403 C187.818869,152.467403 187.919869,152.676403 187.505869,152.160403 C187.093869,151.635403 186.679869,151.225403 186.054869,150.496403 C185.429869,149.772403 185.845869,149.667403 185.742869,149.253403 C185.640869,148.835403 185.537869,147.904403 185.328869,147.592403 C185.117869,147.280403 185.220869,145.930403 185.220869,145.410403 C185.220869,144.895403 185.117869,144.477403 184.912869,143.648403 C184.703869,142.816403 184.291869,142.611403 184.185869,141.990403 C184.085869,141.368403 183.773869,140.431403 183.251869,139.498403 C182.734869,138.566403 182.318869,137.423403 181.492869,136.387403 C180.662869,135.350403 181.283869,135.350403 181.179869,134.312403 C181.074869,133.275403 181.492869,132.550403 181.697869,131.824403 L182.318869,130.888403 L183.251869,129.126403 L183.460869,128.502403 C183.460869,128.502403 183.667869,127.155403 183.773869,126.843403 C183.873869,126.530403 183.460869,125.600403 183.148869,125.080403 C182.839869,124.561403 183.148869,124.455403 183.251869,123.731403 C183.355869,123.007403 183.148869,123.007403 183.046869,121.969403 C182.943869,120.929403 182.425869,120.824403 182.009869,119.892403 C181.595869,118.960403 181.386869,118.541403 181.283869,117.817403 C181.179869,117.091403 180.349869,115.950403 180.037869,115.536403 C179.728869,115.118403 179.105869,114.391403 178.167869,113.563403 C177.238869,112.735403 177.654869,112.318403 177.654869,112.318403 C177.654869,112.318403 177.859869,110.973403 178.167869,110.660403 C178.480869,110.350403 178.480869,109.001403 178.583869,108.377403 C178.689869,107.755403 178.064869,106.093403 178.064869,106.093403 L177.755869,105.681403 L176.820869,104.641403 C176.820869,104.641403 175.882869,104.746403 175.681869,104.335403 C175.474869,103.914403 174.642869,104.538403 174.642869,104.538403 L174.021869,104.439403 C174.021869,104.439403 173.396869,104.020403 173.292869,103.605403 C173.191869,103.190403 172.671869,102.878403 172.361869,102.465403 C172.048869,102.048403 171.632869,102.360403 171.320869,102.046403 C171.007869,101.739403 170.699869,102.046403 169.767869,101.739403 C168.833869,101.427403 169.039869,102.046403 168.517869,101.841403 C168.003869,101.640403 167.486869,102.046403 167.070869,102.046403 C166.652869,102.046403 165.619869,102.673403 165.308869,102.673403 C164.996869,102.673403 163.955869,103.086403 163.541869,103.086403 C163.128869,103.086403 162.503869,103.605403 162.089869,103.503403 C161.673869,103.395403 161.363869,103.706403 160.843869,103.395403 C160.326869,103.086403 159.599869,103.814403 159.291869,104.020403 C158.978869,104.227403 157.835869,104.641403 157.421869,104.439403 C157.005869,104.227403 156.175869,104.746403 155.763869,104.439403 C155.345869,104.122403 154.617869,104.227403 154.312869,103.914403 C154.001869,103.605403 153.064869,103.395403 152.755869,102.982403 C152.443869,102.569403 151.091869,101.532403 151.091869,101.532403 C151.091869,101.532403 150.056869,100.391403 149.849869,100.077403 C149.644869,99.7654026 148.810869,98.6264026 148.710869,98.3134026 C148.605869,98.0034026 147.775869,96.5514026 147.667869,96.2384026 C147.564869,95.9284026 146.841869,95.3064026 146.423869,94.8934026 C146.007869,94.4754026 144.765869,93.7504026 144.765869,93.7504026 C144.765869,93.7504026 144.453869,93.1274026 144.664869,92.8184026 C144.869869,92.5074026 144.560869,91.1544026 144.560869,91.1544026 C144.560869,91.1544026 143.935869,90.2254026 144.142869,89.7024026 C144.351869,89.1824026 144.972869,88.0454026 145.181869,87.4214026 C145.382869,86.7984026 145.382869,86.2804026 145.595869,84.9324026 C145.802869,83.5854026 145.595869,83.7934026 145.382869,83.1694026 C145.177869,82.5444026 145.181869,82.2334026 145.074869,80.4694026 L145.283869,79.9524026 C145.283869,79.9524026 146.115869,78.6024026 146.423869,77.4624026 C146.738869,76.3214026 147.359869,75.5964026 147.564869,75.2844026 C147.771869,74.9744026 148.189869,74.5554026 148.605869,73.9354026 C149.023869,73.3114026 149.537869,72.6904026 149.849869,72.4844026 C150.158869,72.2774026 150.675869,71.6544026 150.675869,71.6544026 C150.675869,71.6544026 151.509869,70.7184026 152.130869,70.3074026 C152.751869,69.8914026 154.207869,68.5414026 154.207869,68.5414026 C154.207869,68.5414026 154.207869,67.6084026 154.099869,67.0914026 C153.998869,66.5724026 154.828869,65.7404026 154.828869,65.7404026 L155.140869,64.8084026 L157.210869,63.6654026 L158.251869,62.6334026 L159.804869,60.5524026 C159.804869,60.5524026 160.326869,61.3804026 160.638869,61.5934026 C160.951869,61.8014026 161.781869,61.5934026 162.503869,61.0754026 C163.232869,60.5584026 163.650869,61.1804026 164.267869,61.0754026 C164.888869,60.9714026 165.308869,60.8644026 166.031869,61.1774026 C166.757869,61.4884026 167.486869,60.8644026 168.003869,60.4524026 C168.521869,60.0364026 168.833869,60.2454026 168.833869,60.2454026 C168.833869,60.2454026 169.976869,59.8284026 174.021869,59.5164026 C178.064869,59.2074026 175.369869,59.5164026 176.199869,59.2074026 C177.029869,58.8934026 178.064869,58.7944026 178.792869,58.4814026 C179.519869,58.1664026 179.105869,58.6894026 179.623869,59.0004026 C180.144869,59.3094026 178.998869,60.0364026 178.894869,60.8644026 C178.792869,61.6984026 178.689869,61.5914026 178.792869,62.9394026 C178.894869,64.2914026 180.041869,62.9434026 180.867869,64.6034026 C181.697869,66.2624026 182.529869,64.8084026 183.355869,65.3294026 C184.185869,65.8474026 185.019869,65.8474026 186.679869,67.0924026 C188.335869,68.3364026 188.648869,67.7154026 189.787869,67.8134026 C190.933869,67.9174026 190.412869,68.3374026 190.617869,67.5054026 C190.830869,66.6774026 191.763869,66.5724026 191.763869,64.9144026 C191.763869,63.2534026 191.968869,64.3954026 192.384869,64.8084026 C192.798869,65.2234026 193.835869,65.1204026 194.458869,65.8454026 C195.080869,66.5724026 196.535869,66.0534026 197.570869,66.6774026 C198.609869,67.2984026 201.101869,66.6774026 202.449869,66.9914026 C203.796869,67.2984026 204.935869,67.1954026 205.873869,67.2984026 C206.802869,67.4024026 207.113869,67.0914026 207.636869,66.9914026 C208.154869,66.8874026 208.564869,66.3644026 209.707869,64.1864026 C209.707869,64.1864026 210.123869,63.0444026 210.435869,61.3864026 C210.748869,59.7274026 210.328869,60.5584026 210.228869,59.8284026 C210.123869,59.1004026 208.876869,59.7274026 208.564869,59.5164026 C208.255869,59.3094026 206.595869,59.6204026 205.873869,59.4134026 C205.144869,59.2054026 204.623869,59.6204026 203.796869,59.5164026 C202.962869,59.4134026 202.132869,59.5164026 201.615869,59.3094026 C201.097869,59.1004026 200.582869,59.0004026 199.851869,58.2724026 C199.128869,57.5454026 198.609869,57.9604026 198.712869,56.6124026 C198.820869,55.2624026 198.294869,55.0574026 198.712869,53.8094026 C199.124869,52.5634026 197.777869,52.9824026 196.634869,53.8094026 C195.496869,54.6434026 194.976869,53.7084026 194.455869,53.6034026 C193.937869,53.4994026 194.044869,54.3314026 193.937869,54.7464026 C193.835869,55.1634026 195.080869,56.4014026 195.496869,56.6124026 C195.910869,56.8214026 194.455869,57.2384026 194.455869,57.2384026 C194.455869,57.2384026 194.357869,57.9604026 194.357869,58.3754026 C194.357869,58.7904026 193.937869,58.8934026 193.628869,58.6894026 C193.316869,58.4764026 193.214869,59.1004026 192.906869,58.5834026 C192.593869,58.0634026 192.281869,57.7534026 191.968869,57.3394026 C191.656869,56.9264026 191.242869,55.8854026 191.035869,55.4724026 C190.830869,55.0574026 190.205869,54.6434026 189.996869,54.4334026 C189.787869,54.2254026 189.583869,53.1904026 189.583869,52.2554026 C189.583869,51.3224026 188.753869,50.7994026 188.023869,50.9074026 C187.300869,51.0124026 187.197869,50.3884026 186.259869,49.7634026 C185.332869,49.1424026 185.537869,48.9364026 184.498869,48.3134026 C183.460869,47.6894026 182.738869,46.9624026 181.595869,46.7594026 C180.453869,46.5494026 181.074869,47.4794026 181.283869,48.2074026 C181.492869,48.9364026 181.697869,48.7304026 182.425869,49.5594026 C183.148869,50.3884026 183.460869,50.6984026 183.460869,50.6984026 C183.460869,50.6984026 185.019869,51.7374026 185.640869,51.8444026 C186.259869,51.9454026 187.505869,53.7084026 188.027869,54.0184026 C188.544869,54.3314026 188.335869,54.1224026 188.130869,54.5384026 C187.923869,54.9544026 187.611869,54.5384026 187.093869,54.2254026 C186.572869,53.9194026 186.679869,54.6434026 186.572869,55.2624026 C186.470869,55.8854026 186.572869,55.7824026 186.572869,55.7824026 C186.572869,55.7824026 184.603869,57.8574026 184.291869,58.1664026 C183.978869,58.4764026 183.255869,57.9584026 182.738869,57.5454026 C182.220869,57.1304026 183.564869,57.5454026 184.085869,57.3394026 C184.603869,57.1304026 185.640869,55.8854026 185.849869,55.4724026 C186.054869,55.0574026 185.332869,54.8504026 185.332869,54.8504026 C185.332869,54.8504026 184.603869,54.1224026 184.498869,53.8094026 C184.398869,53.4994026 183.568869,53.0874026 182.738869,52.3624026 C181.904869,51.6314026 181.492869,51.8394026 181.074869,51.6314026 C180.662869,51.4274026 180.144869,51.1144026 179.519869,50.7994026 C178.894869,50.4924026 178.484869,49.1434026 178.171869,48.8324026 C177.859869,48.5194026 177.445869,48.7294026 177.445869,48.7294026 C177.445869,48.7294026 176.613869,48.9364026 176.306869,48.4174026 C175.994869,47.8994026 175.582869,48.3134026 175.783869,49.6644026 C175.994869,51.0124026 173.087869,49.9714026 172.570869,49.8684026 C172.048869,49.7634026 171.015869,50.9074026 171.015869,50.9074026 L169.767869,52.7754026 C169.767869,52.7754026 168.628869,53.0874026 168.107869,53.3974026 C167.587869,53.7084026 166.656869,55.2644026 166.968869,55.8854026 C167.277869,56.5094026 166.865869,56.7194026 166.240869,57.3394026 C165.619869,57.9584026 163.544869,58.6874026 163.027869,59.3094026 C162.503869,59.9334026 161.677869,59.7254026 160.843869,59.2054026 C160.017869,58.6874026 159.392869,59.0004026 159.082869,58.8934026 C158.769869,58.7904026 157.322869,58.5834026 157.322869,58.5834026 C157.322869,58.5834026 156.693869,58.1664026 156.488869,57.2334026 C156.281869,56.3024026 156.281869,55.6794026 156.593869,55.0574026 C156.902869,54.4334026 156.800869,53.1884026 156.693869,52.2554026 C156.593869,51.3184026 156.800869,50.4924026 157.732869,49.7634026 C158.666869,49.0384026 157.732869,49.2474026 159.082869,49.3514026 C160.429869,49.4514026 161.263869,49.7634026 162.402869,50.3824026 C163.544869,51.0094026 164.167869,50.2824026 164.580869,50.0774026 C164.996869,49.8684026 164.996869,50.4924026 165.513869,49.5564026 C166.031869,48.6244026 165.308869,48.4134026 165.826869,47.6894026 C166.347869,46.9624026 165.513869,47.0674026 165.513869,47.0674026 C165.513869,47.0674026 164.996869,45.8194026 164.683869,45.7174026 C164.371869,45.6144026 164.062869,45.1974026 163.441869,44.7864026 C162.820869,44.3724026 161.884869,43.8494026 164.789869,43.9574026 C167.691869,44.0594026 163.857869,42.9184026 163.650869,42.5034026 C163.441869,42.0884026 164.271869,41.6694026 165.410869,41.8784026 C166.552869,42.0884026 165.931869,41.8784026 166.449869,41.7794026 C166.968869,41.6734026 166.865869,41.5694026 167.798869,41.4674026 C168.730869,41.3624026 168.628869,41.1544026 169.042869,41.0504026 C169.455869,40.9474026 169.664869,40.1184026 170.806869,39.1824026 C171.945869,38.2494026 171.119869,39.1824026 172.257869,38.7664026 C173.400869,38.3554026 172.570869,37.1084026 173.191869,36.8994026 C173.814869,36.6954026 174.333869,36.3854026 175.582869,36.2764026 C176.820869,36.1754026 175.582869,36.2764026 175.890869,36.1754026 C176.203869,36.0724026 176.820869,34.9304026 177.654869,34.5134026 C178.484869,34.0974026 177.859869,34.8234026 178.275869,35.1364026 C178.689869,35.4484026 179.623869,35.2404026 180.248869,34.8234026 C180.867869,34.4124026 181.492869,34.6164026 182.529869,34.8234026 C183.564869,35.0344026 183.046869,35.6554026 183.564869,35.6554026 C184.085869,35.6554026 184.498869,35.9684026 184.808869,35.5534026 C185.121869,35.1364026 186.158869,34.6164026 186.679869,34.6164026 C187.197869,34.6164026 188.130869,34.7214026 188.130869,34.7214026 C188.130869,34.7214026 188.753869,34.8234026 189.062869,34.8234026 C189.374869,34.8234026 190.933869,33.7894026 190.722869,32.2334026 C190.517869,30.6784026 191.869869,31.7164026 192.486869,31.8174026 C193.111869,31.9224026 193.937869,31.4014026 193.214869,29.3264026 C192.486869,27.2514026 193.732869,28.7064026 194.562869,28.9154026 C195.392869,29.1174026 196.531869,28.4984026 197.048869,27.9784026 C197.570869,27.4584026 196.847869,26.8394026 196.535869,26.6304026 C196.222869,26.4234026 195.183869,26.8394026 194.562869,26.7344026 C193.937869,26.6304026 192.906869,27.0454026 192.384869,27.0454026 C191.869869,27.0454026 190.722869,25.3834026 190.933869,25.1774026 C191.138869,24.9724026 192.076869,23.3134026 192.593869,22.6884026 C193.111869,22.0634026 192.695869,21.6494026 192.695869,21.6494026 C192.695869,21.6494026 192.486869,20.3014026 189.374869,22.2714026 C186.259869,24.2444026 187.611869,23.2084026 187.406869,24.2444026 C187.197869,25.2844026 186.884869,25.5964026 186.884869,26.6304026 C186.884869,27.6704026 187.923869,28.1854026 187.923869,28.1854026 C187.923869,28.1854026 186.470869,29.8464026 186.470869,30.5734026 C186.470869,31.2974026 184.185869,32.7524026 184.185869,32.7524026 C184.185869,32.7524026 183.152869,33.4744026 182.943869,33.1654026 C182.738869,32.8524026 181.074869,32.9584026 181.183869,31.5054026 C181.287869,30.0564026 179.832869,30.2614026 177.546869,28.7044026 C175.265869,27.1514026 175.582869,28.8094026 175.060869,29.3264026 C174.542869,29.8464026 174.333869,26.1104026 174.953869,25.0764026 C175.582869,24.0384026 174.953869,25.0764026 175.582869,24.9724026 C176.207869,24.8664026 177.033869,24.8664026 177.859869,24.4524026 C178.693869,24.0404026 178.277869,23.5154026 178.484869,22.8954026 C178.693869,22.2714026 180.867869,20.6134026 181.492869,20.0934026 C182.117869,19.5774026 184.294869,18.1204026 185.121869,17.3994026 C185.951869,16.6704026 186.884869,16.2574026 188.134869,15.3274026 C189.374869,14.3894026 189.896869,14.5974026 190.830869,14.4894026 C191.763869,14.3894026 192.486869,14.5974026 193.527869,14.7004026 C194.562869,14.8024026 195.601869,14.5974026 196.326869,14.8024026 C197.052869,15.0114026 198.195869,15.2194026 200.890869,15.6344026 C203.587869,16.0514026 201.619869,15.8384026 203.587869,16.5654026 C205.560869,17.2944026 205.664869,16.8774026 206.908869,17.5004026 C208.154869,18.1204026 207.220869,18.6414026 207.015869,19.1624026 C206.808869,19.6824026 205.457869,19.8864026 204.626869,19.1624026 C203.796869,18.4334026 203.074869,19.0584026 201.515869,19.3704026 C199.958869,19.6824026 203.900869,21.6494026 204.626869,22.7904026 C205.351869,23.9324026 206.595869,22.4814026 208.777869,20.7164026 C210.957869,18.9524026 210.435869,19.6824026 212.197869,18.8504026 C213.964869,18.0214026 215.210869,18.1204026 215.624869,17.5024026 C216.041869,16.8774026 218.115869,16.8814026 218.634869,17.5024026 C219.152869,18.1204026 220.607869,16.8774026 221.226869,17.3994026 C221.847869,17.9194026 222.365869,16.5654026 223.927869,15.8384026 C225.480869,15.1144026 225.062869,15.8384026 226.410869,16.7744026 C227.761869,17.7094026 227.556869,16.9834026 228.279869,17.5024026 C229.003869,18.0214026 232.015869,18.4334026 233.158869,17.1894026 C234.296869,15.9464026 232.740869,17.1894026 231.912869,15.4274026 C231.082869,13.6634026 230.771869,14.9064026 230.458869,13.0384026 C230.150869,11.1734026 231.292869,12.0034026 232.640869,12.0034026 C233.988869,12.0034026 233.265869,12.4204026 234.091869,12.6244026 C234.921869,12.8334026 234.814869,13.4564026 235.234869,13.8704026 C235.644869,14.2824026 235.851869,14.8024026 235.957869,15.6344026 C236.060869,16.4624026 235.751869,17.9194026 236.060869,18.1204026 C236.373869,18.3324026 236.166869,19.0584026 238.138869,18.5384026 C240.105869,18.0214026 238.033869,16.8774026 237.095869,13.5584026 C236.164869,10.2394026 238.238869,15.1144026 239.380869,16.3594026 C240.523869,17.6064026 241.457869,15.5314026 241.457869,15.2194026 C241.457869,14.9064026 240.939869,14.2824026 240.523869,12.6244026 C240.105869,10.9634026 241.353869,11.8994026 243.322869,11.1754026 C245.291869,10.4454026 245.398869,10.7614026 247.472869,10.6564026 C249.548869,10.5524026 250.999869,9.82440256 252.039869,8.58140256 C253.076869,7.33640256 253.593869,8.16440256 254.011869,8.16440256 C254.423869,8.16440256 255.359869,7.85340256 259.195869,7.74940256 C263.037869,7.64940256 260.132869,8.16440256 261.998869,8.37340256 C263.863869,8.58140256 263.761869,8.06140256 265.005869,8.16440256 C266.248869,8.27440256 266.769869,8.58140256 267.287869,8.78840256 C267.808869,8.99840256 267.082869,9.51340256 266.769869,9.61840256 C266.457869,9.72040256 265.832869,10.5524026 265.318869,11.3824026 C264.796869,12.2124026 266.351869,12.2124026 269.050869,11.8994026 C271.749869,11.5884026 271.960869,12.3154026 272.683869,12.6274026 C273.408869,12.9394026 275.486869,13.1434026 276.416869,13.0444026 C277.353869,12.9394026 279.115869,12.1074026 280.566869,12.1074026 C282.025869,12.1074026 282.021869,12.4204026 283.060869,12.3154026 C284.093869,12.2124026 284.093869,12.6274026 285.337869,13.2484026 C286.587869,13.8704026 287.623869,13.7674026 288.966869,13.9754026 C290.316869,14.1834026 290.316869,14.0784026 291.355869,14.0784026 C292.390869,14.0784026 292.912869,14.2824026 293.224869,14.4894026 C293.537869,14.7004026 295.193869,14.6004026 295.613869,14.6004026 C296.027869,14.6004026 296.644869,13.7674026 297.269869,13.3504026 C297.894869,12.9394026 297.685869,13.2524026 298.103869,12.1074026 C298.515869,10.9694026 298.416869,12.3154026 299.658869,12.5244026 C300.902869,12.7294026 300.796869,12.9394026 301.419869,13.0444026 C302.041869,13.1434026 302.666869,13.8704026 303.179869,13.9754026 C303.701869,14.0784026 305.880869,14.1834026 306.812869,14.1834026 C307.746869,14.1834026 309.822869,14.0784026 311.583869,14.1834026 C313.347869,14.2824026 314.908869,13.9754026 315.632869,14.8024026 C316.359869,15.6344026 318.123869,15.2234026 320.716869,15.4274026 C323.310869,15.6344026 325.279869,15.9464026 326.730869,16.3634026 C328.187869,16.7744026 328.703869,16.7744026 329.011869,17.0874026 C329.324869,17.4004026 329.951869,15.4274026 330.363869,15.3274026 C330.777869,15.2194026 339.910869,16.9834026 340.632869,16.9834026 C341.361869,16.9834026 342.705869,17.8134026 343.646869,18.1204026 C344.574869,18.4334026 345.611869,18.1204026 346.753869,18.0214026 C347.896869,17.9194026 351.525869,18.7514026 351.628869,19.1644026 C351.734869,19.5774026 353.390869,20.8204026 353.703869,21.0284026 C354.015869,21.2374026 351.425869,21.1334026 350.699869,20.7204026 C349.970869,20.3054026 346.445869,19.4754026 345.927869,19.5774026 C345.406869,19.6824026 345.302869,20.8204026 344.781869,20.7204026 C344.265869,20.6134026 343.539869,21.1334026 343.539869,21.1334026 L345.714869,22.3784026 C345.714869,22.3784026 348.722869,24.1404026 349.035869,24.0404026 C349.347869,23.9354026 348.517869,25.0764026 348.205869,24.8664026 C347.936869,24.6874026 346.724869,24.8194026 346.412869,24.8564026 C346.155869,25.1454026 345.641869,25.7044026 344.677869,26.7344026 C341.669869,29.9524026 343.433869,26.9424026 343.226869,26.1104026 C343.021869,25.2844026 342.087869,26.5274026 341.462869,26.7344026 C340.839869,26.9424026 338.451869,27.6704026 338.871869,29.3264026 C339.281869,30.9904026 340.111869,29.6414026 341.361869,30.7814026 C342.603869,31.9224026 342.083869,31.8174026 342.705869,33.3744026 C343.330869,34.9304026 342.396869,35.6554026 342.500869,36.5914026 C342.603869,37.5284026 342.500869,38.0454026 342.500869,39.0794026 C342.500869,40.1184026 342.087869,39.4944026 341.257869,38.8724026 C340.423869,38.2494026 340.632869,38.2494026 339.490869,37.2114026 C338.349869,36.1754026 338.142869,36.4874026 337.933869,34.9304026 C337.724869,33.3744026 337.003869,34.6214026 335.861869,33.1694026 C334.718869,31.7164026 334.718869,32.0264026 334.718869,30.2614026 C334.718869,28.4984026 335.443869,28.6024026 335.964869,27.8754026 C336.482869,27.1514026 335.548869,26.1104026 335.548869,25.1774026 C335.548869,24.2444026 334.613869,24.7644026 334.613869,24.7644026 L334.201869,24.3494026 C334.201869,24.3494026 333.888869,24.4524026 333.058869,25.3834026 C332.232869,26.3194026 331.193869,25.5964026 330.671869,24.8664026 C330.156869,24.1404026 329.429869,25.2844026 328.808869,26.0074026 C328.185869,26.7344026 329.011869,27.3574026 328.185869,28.7064026 C327.353869,30.0564026 327.457869,29.0174026 325.796869,28.7064026 C324.136869,28.3954026 322.167869,28.4984026 320.820869,27.9784026 C319.466869,27.4584026 317.806869,27.7704026 317.396869,28.4984026 C316.976869,29.2244026 315.320869,30.2614026 315.320869,30.2614026 C315.320869,30.2614026 314.281869,31.9224026 314.695869,34.4124026 C315.115869,36.8994026 315.423869,34.8294026 316.044869,35.6554026 C316.664869,36.4874026 317.910869,35.5534026 320.609869,35.8654026 C323.306869,36.1754026 323.203869,36.3854026 323.931869,37.6284026 C324.654869,38.8724026 324.970869,39.2864026 326.109869,40.1184026 C327.248869,40.9474026 325.900869,42.7124026 326.212869,43.8494026 C326.523869,44.9934026 325.900869,45.7214026 326.421869,45.7214026 C326.939869,45.7214026 324.970869,48.6244026 324.970869,49.2474026 C324.970869,49.8684026 324.654869,49.6644026 324.654869,49.6644026 C324.654869,49.6644026 324.345869,49.8684026 322.789869,49.7634026 C321.234869,49.6624026 320.708869,50.2864026 320.921869,51.1144026 C321.128869,51.9454026 320.816869,52.2554026 320.195869,52.8784026 C319.574869,53.5014026 319.365869,55.0574026 319.990869,55.5744026 C320.609869,56.0944026 321.646869,56.8214026 323.306869,57.8574026 C324.966869,58.8934026 324.859869,59.6204026 324.859869,59.6204026 C324.859869,59.6204026 323.832869,61.4884026 323.203869,62.0094026 C322.578869,62.5264026 321.855869,62.7334026 321.128869,62.3154026 C320.400869,61.9034026 320.400869,61.8014026 320.400869,60.0364026 C320.400869,58.2724026 319.158869,58.6894026 318.017869,57.8574026 C317.591869,57.5474026 317.382869,57.4254026 317.289869,57.3944026 C317.275869,56.9854026 317.201869,55.7944026 316.771869,55.3684026 C316.253869,54.8504026 315.525869,54.6434026 315.525869,54.6434026 C315.525869,54.6434026 313.451869,56.8214026 313.347869,55.7824026 C313.244869,54.7464026 312.621869,55.1634026 312.517869,53.4994026 C312.414869,51.8444026 310.857869,53.6034026 310.544869,53.6034026 C310.232869,53.6034026 309.714869,54.9544026 307.951869,57.1304026 C306.189869,59.3094026 309.714869,58.4764026 311.066869,58.5834026 C312.414869,58.6894026 311.271869,59.0004026 312.830869,58.4764026 C314.382869,57.9584026 313.556869,58.5834026 313.451869,59.3094026 C313.347869,60.0364026 313.039869,59.9334026 312.414869,60.7634026 C311.791869,61.5914026 312.312869,61.6944026 312.517869,62.3154026 C312.726869,62.9394026 313.656869,63.9794026 315.007869,65.4304026 C316.353869,66.8834026 316.253869,66.8834026 316.458869,66.7784026 C316.664869,66.6774026 317.708869,70.2024026 317.910869,70.9294026 C318.119869,71.6544026 317.292869,73.3164026 316.976869,74.2484026 C316.664869,75.1794026 314.906869,77.2554026 314.281869,77.5664026 C313.656869,77.8794026 313.142869,78.0894026 311.378869,78.5024026 C309.615869,78.9194026 309.509869,79.8504026 309.509869,79.8504026 C309.509869,79.8504026 308.949869,80.3664026 308.662869,80.6224026 C308.826869,80.5924026 308.115869,81.9754026 306.812869,84.2044026 Z M227.762069,131.614503 C227.762069,131.614503 228.897069,129.958503 229.213069,128.813503 L229.938069,131.096503 L229.938069,132.343503 C229.938069,132.757503 229.830069,133.173503 229.625069,133.587503 C229.418069,134.003503 229.317069,135.457503 229.213069,136.076503 C229.104069,136.700503 228.383069,137.528503 228.383069,138.051503 C228.383069,138.566503 227.344069,140.019503 227.344069,140.330503 C227.344069,140.638503 226.305069,141.990503 226.410069,142.302503 C226.514069,142.614503 225.996069,143.961503 226.098069,145.101503 C226.205069,146.246503 225.268069,146.040503 225.268069,146.040503 C225.268069,146.040503 224.438069,146.760503 223.612069,146.760503 C222.778069,146.760503 222.364069,147.072503 222.364069,147.072503 L221.014069,144.997503 C221.014069,144.997503 221.014069,142.816503 220.912069,142.094503 C220.813069,141.368503 221.326069,141.158503 221.844069,140.950503 C222.364069,140.747503 222.674069,139.709503 222.674069,138.879503 C222.674069,138.051503 222.674069,137.426503 222.778069,137.112503 C222.881069,136.801503 222.778069,135.663503 222.465069,134.727503 C222.157069,133.793503 223.090069,134.003503 223.090069,134.003503 C223.090069,134.003503 224.125069,133.481503 224.541069,133.382503 C224.955069,133.275503 225.680069,132.652503 225.680069,132.652503 L227.762069,131.614503 Z M358.162469,145.516903 C358.783469,146.552903 358.266469,147.591903 358.373469,148.317903 C358.471469,149.042903 358.162469,149.666903 358.162469,150.078903 C358.162469,150.495903 357.336469,151.634903 357.226469,152.879903 C357.123469,154.124903 356.709469,154.227903 356.502469,154.541903 C356.293469,154.854903 355.463469,155.473903 354.324469,157.242903 C353.182469,159.002903 353.182469,158.591903 351.937469,159.523903 C350.695469,160.455903 351.000469,160.349903 350.588469,160.766903 C350.178469,161.179903 349.553469,161.804903 349.031469,162.424903 C348.514469,163.049903 348.098469,163.462903 344.160469,165.225903 C340.211469,166.989903 342.496469,165.952903 342.183469,165.537903 C341.871469,165.122903 340.836469,165.330903 340.318469,165.020903 C339.799469,164.711903 339.594469,165.330903 338.969469,165.435903 C338.350469,165.537903 337.617469,164.811903 337.207469,164.393903 C336.791469,163.982903 336.687469,164.294903 336.791469,163.567903 C336.894469,162.841903 336.377469,163.049903 336.791469,162.114903 C337.207469,161.179903 336.170469,160.663903 336.170469,160.663903 C336.170469,160.663903 335.756469,160.042903 335.961469,159.523903 C336.170469,159.002903 336.791469,157.862903 336.791469,157.342903 C336.791469,156.821903 336.064469,157.862903 335.756469,157.862903 C335.443469,157.862903 333.471469,159.106903 333.471469,159.106903 L332.228469,159.208903 C332.228469,159.208903 332.332469,158.068903 332.332469,157.548903 C332.332469,157.029903 330.773469,156.617903 330.256469,155.579903 C329.742469,154.541903 328.596469,155.888903 327.873469,155.579903 C327.141469,155.267903 325.592469,155.888903 324.758469,155.680903 C323.928469,155.473903 323.619469,156.617903 322.891469,156.617903 C322.164469,156.617903 320.609469,157.655903 319.883469,157.342903 C319.152469,157.029903 318.535469,158.485903 318.119469,158.276903 C317.705469,158.068903 316.146469,158.584903 315.420469,158.584903 C314.695469,158.584903 314.178469,159.208903 313.344469,159.208903 C312.514469,159.208903 311.478469,159.728903 310.961469,159.831903 C310.439469,159.936903 309.193469,159.936903 309.193469,159.936903 C309.193469,159.936903 308.469469,159.317903 308.469469,159.002903 C308.469469,158.692903 308.680469,158.485903 309.193469,158.591903 C309.711469,158.692903 309.406469,156.410903 309.611469,155.680903 C309.818469,154.960903 309.510469,152.672903 309.301469,152.049903 C309.090469,151.430903 309.506469,148.732903 309.711469,148.214903 C309.920469,147.698903 310.127469,143.233903 310.439469,142.816903 C310.439469,142.816903 310.857469,142.403903 311.271469,142.300903 C311.683469,142.198903 312.201469,141.990903 312.826469,141.368903 C313.451469,140.746903 313.865469,140.638903 314.486469,140.537903 C315.107469,140.430903 315.316469,140.121903 316.254469,140.019903 C317.187469,139.914903 316.879469,139.914903 318.223469,139.291903 C319.570469,138.668903 319.779469,138.668903 320.709469,138.151903 C321.646469,137.631903 321.334469,137.528903 321.646469,137.425903 C321.955469,137.321903 322.057469,136.595903 322.369469,135.763903 C322.682469,134.933903 322.891469,135.036903 323.098469,134.520903 C323.307469,134.002903 323.203469,134.832903 323.512469,134.933903 C323.820469,135.036903 323.928469,135.556903 324.240469,135.452903 C324.549469,135.350903 324.549469,134.312903 324.654469,133.895903 C324.758469,133.481903 325.588469,133.481903 325.896469,133.069903 C326.209469,132.652903 326.209469,132.237903 326.623469,131.717903 C327.043469,131.200903 327.560469,130.990903 328.182469,130.683903 C328.805469,130.370903 329.221469,131.096903 329.633469,131.614903 C330.047469,132.132903 329.529469,132.237903 329.529469,132.237903 C329.529469,132.237903 331.703469,133.170903 332.019469,132.964903 C332.332469,132.756903 331.707469,132.445903 332.123469,131.302903 C332.537469,130.162903 332.435469,130.887903 333.055469,130.683903 C333.680469,130.473903 333.055469,130.683903 333.783469,129.955903 C334.510469,129.230903 335.023469,128.398903 336.170469,128.086903 C337.305469,127.774903 336.478469,127.985903 336.894469,127.985903 C337.305469,127.985903 337.617469,128.084903 338.760469,128.191903 C339.898469,128.293903 340.006469,128.293903 340.523469,128.293903 C341.045469,128.293903 341.045469,128.918903 341.045469,128.918903 C341.045469,128.918903 340.420469,129.853903 340.318469,130.270903 C340.211469,130.683903 340.107469,131.614903 340.006469,132.030903 C339.898469,132.443903 340.420469,133.170903 340.732469,133.170903 C341.045469,133.170903 341.357469,134.002903 341.769469,134.105903 C342.183469,134.207903 343.014469,135.036903 343.326469,135.350903 C343.639469,135.659903 344.264469,135.452903 344.674469,135.556903 C345.090469,135.662903 345.402469,135.033903 345.920469,135.139903 C346.437469,135.245903 346.750469,133.895903 347.062469,133.375903 C347.375469,132.860903 348.201469,131.096903 348.201469,131.096903 C348.201469,131.096903 348.619469,128.918903 348.826469,127.774903 C349.031469,126.635903 349.240469,127.672903 349.344469,127.880903 C349.445469,128.086903 349.758469,128.398903 349.965469,129.230903 C350.178469,130.057903 350.695469,130.264903 351.000469,130.990903 C351.312469,131.721903 351.521469,132.549903 351.834469,133.170903 C352.146469,133.788903 352.146469,134.725903 352.248469,135.141903 C352.351469,135.556903 352.248469,137.010903 351.937469,137.214903 C351.625469,137.425903 352.873469,137.940903 352.873469,137.940903 C352.873469,137.940903 354.115469,138.151903 354.428469,140.121903 C354.740469,142.090903 355.566469,141.990903 355.775469,142.717903 C355.980469,143.441903 356.605469,143.233903 357.539469,143.648903 C358.471469,144.067903 357.539469,144.477903 358.162469,145.516903 Z M310.127269,115.435803 C309.402269,115.639803 309.090269,114.915803 308.676269,114.292803 C308.264269,113.668803 307.951269,112.941803 307.846269,112.528803 C307.742269,112.111803 307.225269,110.972803 307.430269,110.555803 C307.639269,110.140803 307.016269,108.584803 308.777269,109.416803 C310.541269,110.241803 309.711269,108.167803 310.027269,108.272803 C310.340269,108.378803 310.857269,107.651803 311.166269,106.301803 C311.475269,104.958803 312.408269,104.850803 312.826269,104.958803 C313.244269,105.059803 313.760269,104.538803 314.281269,104.439803 C314.799269,104.334803 316.143269,102.464803 316.559269,101.840803 L317.080269,102.045803 C317.598269,102.253803 317.910269,102.464803 318.635269,103.190803 C319.365269,103.914803 318.740269,104.122803 318.840269,104.744803 C318.945269,105.370803 318.531269,105.578803 318.115269,106.617803 C317.701269,107.651803 318.219269,107.961803 318.635269,108.791803 C319.049269,109.622803 318.635269,109.521803 318.840269,109.936803 C319.049269,110.349803 318.322269,110.241803 318.014269,110.660803 C317.705269,111.073803 318.014269,111.073803 317.910269,111.804803 C317.807269,112.528803 317.076269,112.735803 316.455269,113.358803 C315.832269,113.980803 316.143269,114.292803 316.246269,114.393803 C316.354269,114.498803 315.729269,115.538803 315.420269,115.538803 C315.107269,115.538803 315.004269,115.742803 314.486269,115.742803 C313.965269,115.742803 313.139269,115.435803 313.139269,115.435803 C313.139269,115.435803 310.857269,115.225803 310.127269,115.435803 Z M360.029669,125.182903 C360.752669,125.705903 361.273669,126.325903 360.650669,126.325903 C360.029669,126.325903 358.060669,126.325903 357.851669,126.012903 C357.640669,125.703903 356.709669,125.494903 356.084669,124.767903 C355.463669,124.045903 354.115669,123.524903 353.806669,122.899903 C353.490669,122.278903 353.078669,122.073903 352.560669,122.073903 C352.039669,122.073903 351.521669,122.692903 350.797669,123.418903 C350.070669,124.145903 350.383669,123.006903 349.445669,123.318903 C348.513669,123.632903 347.476669,123.211903 346.955669,122.794903 C346.437669,122.383903 346.545669,121.758903 345.715669,122.073903 C344.886669,122.383903 344.369669,122.175903 344.677669,121.557903 C344.986669,120.932903 344.777669,120.098903 344.777669,120.098903 C344.777669,120.098903 345.090669,119.061903 344.369669,118.857903 C343.638669,118.649903 343.638669,117.923903 342.914669,117.716903 C342.187669,117.504903 341.045669,116.987903 341.045669,116.987903 C341.045669,116.987903 340.939669,116.987903 340.631669,116.880903 C340.322669,116.778903 340.322669,116.778903 339.488669,116.574903 C338.658669,116.366903 338.037669,116.574903 337.625669,116.055903 C337.207669,115.537903 337.416669,114.809903 337.416669,114.809903 C337.416669,114.809903 339.076669,115.016903 337.416669,113.771903 L335.756669,112.528903 C335.756669,112.528903 335.961669,112.420903 335.855669,112.215903 C335.756669,112.008903 336.890669,112.215903 336.890669,112.215903 C337.304669,112.111903 338.759669,111.073903 338.863669,112.941903 C338.968669,114.811903 339.072669,114.292903 339.693669,115.328903 C340.322669,116.366903 340.732669,116.678903 341.457669,116.157903 C342.183669,115.639903 343.013669,115.639903 343.218669,114.705903 C343.433669,113.771903 343.433669,113.771903 344.050669,113.771903 C344.674669,113.771903 344.883669,113.668903 345.195669,114.083903 C345.508669,114.498903 345.711669,114.083903 347.062669,114.811903 C348.410669,115.537903 349.552669,115.328903 350.383669,116.055903 C351.213669,116.782903 351.625669,116.678903 352.767669,117.090903 C353.908669,117.504903 353.386669,116.886903 354.427669,118.025903 C355.463669,119.166903 355.050669,119.477903 355.566669,119.997903 C356.084669,120.517903 356.502669,119.582903 356.293669,120.829903 C356.084669,122.073903 354.636669,120.829903 356.814669,122.588903 C358.990669,124.354903 359.304669,124.664903 360.029669,125.182903 Z M302.037469,115.536403 C302.141469,115.847403 302.863469,116.778403 302.863469,117.091403 C302.863469,117.402403 303.074469,118.232403 302.453469,118.956403 C301.828469,119.685403 301.310469,119.786403 301.310469,119.786403 C301.310469,119.786403 300.064469,119.162403 299.650469,118.541403 C299.234469,117.919403 298.717469,117.402403 297.990469,116.153403 C297.266469,114.916403 296.428469,113.563403 296.017469,112.941403 C295.605469,112.316403 294.980469,111.694403 294.666469,111.071403 C294.359469,110.449403 293.527469,108.585403 293.111469,108.372403 C292.699469,108.168403 292.598469,107.545403 291.865469,106.819403 C291.142469,106.091403 291.248469,105.470403 290.937469,105.057403 C290.621469,104.641403 289.896469,103.706403 289.896469,103.706403 L290.209469,103.605403 C290.209469,103.605403 290.726469,104.122403 291.557469,104.020403 C292.385469,103.914403 293.012469,105.679403 293.527469,106.298403 C294.049469,106.926403 294.359469,107.233403 295.498469,107.960403 C296.641469,108.685403 296.535469,107.341403 298.092469,109.515403 C299.650469,111.696403 298.922469,110.348403 299.650469,111.694403 C300.373469,113.042403 300.789469,113.771403 301.203469,114.084403 C301.619469,114.391403 301.932469,115.223403 302.037469,115.536403 Z M120.383169,119.268803 C120.174169,119.997803 120.695169,119.582803 120.485169,120.618803 C120.279169,121.656803 119.553169,123.318803 118.932169,123.731803 C118.311169,124.143803 118.307169,124.664803 117.893169,125.182803 C117.481169,125.704803 117.580169,124.664803 117.065169,126.116803 C116.543169,127.570803 116.647169,127.778803 116.233169,129.125803 C115.821169,130.473803 116.129169,129.125803 115.821169,130.473803 C115.508169,131.824803 115.717169,132.652803 115.404169,134.207803 C115.092169,135.763803 115.199169,135.763803 114.990169,136.908803 C114.783169,138.050803 115.508169,136.386803 114.574169,138.772803 C113.643169,141.158803 113.535169,141.053803 113.223169,142.094803 C112.914169,143.128803 113.330169,142.300803 112.188169,142.920803 C111.045169,143.545803 111.670169,143.336803 110.320169,143.750803 C108.973169,144.170803 107.309169,144.582803 106.795169,144.684803 C106.278169,144.789803 104.201169,145.412803 104.822169,146.659803 C105.444169,147.904803 105.444169,148.108803 104.822169,149.666803 C104.201169,151.225803 103.264169,151.743803 103.264169,152.466803 C103.264169,153.194803 102.850169,153.922803 102.746169,154.435803 C102.645169,154.960803 103.680169,153.922803 102.434169,155.473803 C101.194169,157.030803 101.090169,156.619803 100.672169,157.552803 C100.256169,158.485803 100.672169,157.756803 100.256169,158.485803 C99.844169,159.208803 98.805169,159.523803 98.805169,159.523803 C98.805169,159.523803 98.908169,160.042803 98.492169,159.831803 C98.078169,159.625803 98.180169,159.936803 96.627169,159.523803 C95.069169,159.106803 94.863169,158.068803 94.654169,158.797803 C94.451169,159.523803 94.758169,159.936803 95.690169,160.664803 C96.627169,161.392803 98.180169,161.594803 97.770169,162.324803 C97.354169,163.049803 97.354169,163.049803 97.041169,163.462803 C96.733169,163.879803 97.457169,163.567803 96.733169,163.879803 C96.006169,164.190803 95.588169,165.538803 95.279169,165.538803 C94.967169,165.538803 94.758169,166.057803 94.342169,165.850803 C93.930169,165.644803 92.895169,164.918803 92.686169,165.332803 C92.481169,165.746803 92.065169,164.812803 92.168169,166.265803 C92.270169,167.718803 92.481169,168.546803 91.957169,168.859803 C91.440169,169.168803 90.196169,168.859803 90.196169,168.859803 L89.988169,168.340803 L89.262169,168.546803 C89.262169,168.546803 88.949169,169.788803 89.467169,170.000803 C89.988169,170.208803 89.883169,170.413803 90.401169,171.037803 C90.918169,171.660803 90.613169,172.800803 90.613169,172.800803 C90.613169,172.800803 90.613169,173.112803 90.092169,173.630803 C89.574169,174.146803 89.369169,174.563803 89.262169,174.877803 C89.154169,175.188803 88.531169,176.534803 89.467169,176.427803 C90.401169,176.329803 91.127169,175.810803 91.127169,177.471803 C91.127169,179.127803 91.543169,178.716803 91.026169,179.855803 C90.508169,180.996803 90.092169,181.098803 89.988169,182.136803 C89.883169,183.177803 90.092169,183.276803 90.301169,183.901803 C90.508169,184.522803 91.026169,184.211803 90.508169,184.522803 C89.988169,184.836803 88.436169,184.522803 88.436169,184.522803 C87.705169,184.108803 86.151169,183.379803 85.633169,182.968803 C85.115169,182.553803 83.557169,180.272803 83.557169,180.272803 L82.414169,178.089803 C82.414169,178.089803 81.067169,176.433803 81.379169,175.810803 C81.692169,175.188803 82.313169,174.771803 82.313169,174.458803 C82.313169,174.152803 82.936169,173.320803 82.414169,173.007803 C81.901169,172.698803 81.901169,172.596803 81.588169,171.660803 C81.276169,170.726803 81.276169,169.896803 80.862169,169.689803 C80.442169,169.481803 80.137169,168.131803 79.719169,168.027803 C79.303169,167.923803 78.889169,167.198803 78.889169,167.198803 L78.264169,158.797803 C78.264169,158.797803 78.055169,154.960803 77.848169,154.124803 C77.643169,153.296803 78.160169,151.534803 77.643169,149.979803 C77.125169,148.420803 77.750169,146.552803 77.438169,145.929803 C77.125169,145.309803 77.643169,143.545803 77.330169,141.885803 C77.617169,140.167803 78.110169,138.084803 78.110169,138.084803 L76.692169,134.618803 L69.686169,128.769803 L62.840169,117.536803 L61.998169,117.193803 C61.998169,117.193803 62.633169,116.292803 62.424169,115.984803 C62.219169,115.670803 62.186169,114.809803 61.457169,114.186803 C60.731169,113.567803 60.834169,112.420803 61.457169,111.907803 C62.082169,111.387803 63.016169,109.727803 63.016169,109.727803 L64.572169,107.133803 C64.572169,107.133803 65.815169,105.784803 65.815169,104.850803 C65.815169,103.917803 67.578169,103.294803 66.541169,102.464803 C65.502169,101.639803 66.024169,100.909803 65.711169,100.284803 C65.401169,99.6648026 65.606169,99.2478026 66.541169,98.6258026 C67.479169,98.0028026 69.135169,95.7228026 69.135169,95.7228026 C69.135169,95.7228026 70.377169,95.4088026 70.690169,95.4088026 C71.002169,95.4088026 71.524169,92.0888026 72.459169,94.2698026 C73.389169,96.4468026 73.701169,95.3058026 73.389169,96.8618026 C73.076169,98.4188026 73.805169,98.1068026 74.223169,97.6918026 C74.635169,97.2768026 74.014169,98.0028026 74.840169,96.1378026 C75.674169,94.2698026 75.358169,93.6458026 75.879169,94.1648026 C76.401169,94.6828026 76.604169,94.7878026 77.537169,95.0998026 C78.473169,95.4088026 78.785169,95.3058026 79.094169,95.9278026 C79.403169,96.5508026 79.303169,95.7228026 81.067169,96.0328026 C82.830169,96.3428026 85.320169,95.4088026 85.012169,96.4468026 C84.888169,96.8578026 84.720169,96.9248026 84.647169,96.9288026 C84.735169,96.9518026 84.987169,97.0598026 85.526169,97.4838026 C86.981169,98.6258026 87.186169,98.8338026 88.014169,99.0408026 C88.844169,99.2478026 89.574169,99.1438026 90.817169,100.391803 C92.065169,101.639803 92.373169,101.739803 92.682169,102.360803 C92.994169,102.982803 93.516169,102.569803 94.033169,103.190803 C94.551169,103.809803 95.276169,103.814803 96.006169,103.814803 C96.731169,103.814803 96.006169,103.190803 97.145169,104.020803 C98.283169,104.850803 99.117169,104.954803 99.631169,106.617803 C100.153169,108.272803 101.194169,108.170803 100.360169,109.831803 C99.529169,111.490803 97.869169,112.215803 98.596169,112.111803 C99.322169,112.009803 100.672169,111.387803 101.090169,111.490803 C101.502169,111.592803 101.711169,111.176803 102.332169,111.490803 C102.953169,111.798803 103.059169,111.073803 102.953169,111.798803 C102.850169,112.528803 102.850169,111.798803 102.850169,112.528803 C102.850169,112.603803 102.847169,112.642803 102.844169,112.674803 C102.869169,112.496803 103.041169,111.898803 103.889169,112.111803 C105.135169,112.420803 104.406169,111.488803 105.858169,112.840803 C107.309169,114.186803 107.309169,113.771803 107.830169,114.498803 C108.348169,115.222803 108.867169,114.083803 109.178169,114.391803 C109.490169,114.706803 110.424169,114.498803 111.358169,114.706803 C112.293169,114.915803 111.670169,114.083803 113.123169,115.016803 C114.574169,115.950803 116.026169,115.639803 116.334169,116.469803 C116.647169,117.299803 117.481169,116.987803 117.893169,117.504803 C118.307169,118.025803 118.516169,117.299803 118.932169,118.025803 C119.346169,118.748803 120.592169,118.542803 120.383169,119.268803 Z M60.943669,99.0413026 L61.664669,100.079303 L60.318669,99.6643026 L59.070669,98.7323026 L57.519669,98.4213026 C57.519669,98.4213026 56.373669,97.3853026 56.062669,97.1713026 C55.757669,96.9663026 55.338669,96.6553026 55.338669,95.9323026 C55.338669,95.2003026 55.132669,95.3103026 55.025669,94.4783026 C54.923669,93.6473026 54.195669,93.6473026 53.882669,93.1273026 C53.574669,92.6093026 53.261669,92.3013026 52.847669,91.7823026 C52.431669,91.2633026 52.226669,91.6783026 51.812669,91.5753026 C51.396669,91.4713026 51.396669,91.4713026 50.771669,91.4713026 C50.150669,91.4713026 49.736669,91.4713026 49.218669,91.0523026 C48.701669,90.6403026 48.181669,90.7453026 47.660669,90.2263026 C47.142669,89.7073026 46.834669,89.7073026 46.521669,89.2943026 C46.209669,88.8753026 45.586669,88.8753026 45.277669,88.3573026 C44.961669,87.8363026 44.236669,88.4603026 43.927669,88.2513026 C43.617669,88.0453026 42.787669,88.6693026 42.787669,88.6693026 C42.787669,88.6693026 41.853669,88.6693026 41.541669,88.5643026 C41.228669,88.4603026 40.398669,88.2513026 40.398669,88.2513026 C40.398669,88.2513026 39.152669,88.0453026 38.742669,87.8363026 C38.326669,87.6323026 37.183669,86.9043026 37.183669,86.9043026 C37.183669,86.9043026 35.836669,86.3873026 35.631669,85.9703026 C35.422669,85.5573026 33.966669,85.0383026 33.863669,84.7263026 C33.761669,84.4143026 32.310669,83.8973026 32.310669,83.8973026 C32.310669,83.8973026 31.890669,82.8583026 32.099669,81.9273026 C32.310669,80.9943026 32.515669,81.1983026 32.203669,80.3703026 C31.890669,79.5433026 31.582669,79.5433026 31.064669,78.4003026 C30.547669,77.2603026 30.439669,76.9483026 29.507669,75.4953026 C28.578669,74.0423026 28.992669,75.1853026 28.578669,74.4553026 C28.158669,73.7293026 27.431669,71.9693026 27.119669,71.4473026 C26.814669,70.9293026 26.502669,70.5123026 26.396669,69.2703026 C26.293669,68.0253026 26.189669,68.4373026 25.355669,66.8873026 C24.525669,65.3313026 24.216669,66.6773026 23.802669,66.8873026 C23.386669,67.0923026 23.802669,68.1303026 24.115669,69.0643026 C24.427669,69.9983026 24.427669,70.0973026 25.043669,71.0353026 C25.672669,71.9693026 25.355669,72.6943026 25.566669,73.3163026 C25.771669,73.9393026 25.771669,74.5603026 25.980669,75.0823026 C26.160669,75.5263026 26.261669,76.9713026 26.287669,77.2963026 C26.278669,77.2653026 26.255669,77.2153026 26.189669,76.9483026 C26.084669,76.5303026 26.084669,76.5293026 25.672669,75.7003026 C25.254669,74.8763026 24.941669,74.7683026 24.941669,74.7683026 L24.316669,73.4183026 C24.316669,73.4183026 23.595669,72.2783026 23.490669,71.1373026 C23.386669,69.9983026 22.763669,68.9603026 22.763669,68.9603026 C22.763669,68.9603026 22.556669,65.7423026 22.660669,65.2233026 C22.763669,64.7043026 21.830669,64.0843026 21.105669,63.5633026 C20.375669,63.0443026 20.066669,63.0483026 19.652669,62.4233026 C19.240669,61.8013026 18.718669,60.2453026 18.511669,59.1013026 C18.302669,57.9603026 18.511669,56.3023026 18.302669,54.7463026 C18.093669,53.1903026 18.718669,53.5013026 19.441669,52.7753026 C20.170669,52.0503026 20.588669,50.8033026 21.105669,50.0773026 C21.623669,49.3523026 22.556669,48.3133026 23.281669,47.4833026 C24.007669,46.6573026 24.838669,45.1003026 24.838669,45.1003026 L25.355669,43.2293026 C25.355669,43.2293026 26.293669,43.1273026 26.705669,42.8133026 C27.119669,42.5073026 25.877669,38.0453026 25.771669,37.1103026 C25.672669,36.1753026 25.771669,36.1753026 25.980669,35.7623026 C26.189669,35.3433026 26.494669,31.9223026 26.189669,30.6783026 C25.877669,29.4353026 25.566669,30.0603026 25.043669,29.3283026 C24.525669,28.6033026 24.115669,29.8483026 23.904669,28.7063026 C23.695669,27.5663026 22.869669,28.0873026 19.754669,27.3593026 C16.642669,26.6343026 17.990669,27.0473026 17.058669,26.9423026 C16.125669,26.8393026 17.058669,26.9423026 16.642669,26.9423026 C16.228669,26.9423026 16.017669,26.9423026 15.398669,26.6343026 C14.777669,26.3213026 13.843669,26.8393026 13.009669,27.3593026 C12.183669,27.8793026 12.183669,27.5663026 11.558669,27.9783026 C10.937669,28.3973026 11.037669,28.2923026 10.937669,27.7743026 C10.832669,27.2553026 11.457669,26.8393026 10.523669,27.1513026 C9.58966901,27.4643026 9.27766901,28.0873026 8.65466901,28.5033026 C8.03366901,28.9153026 6.99266901,29.0213026 5.95766901,29.5393026 C4.92266901,30.0603026 4.19766901,29.4373026 2.95366901,30.2673026 C1.70366901,31.0973026 2.12366901,30.3663026 2.73866901,29.5393026 C3.36366901,28.7063026 2.22466901,29.4373026 2.32866901,29.1223026 C2.42966901,28.8103026 1.28966901,28.5033026 0.355669015,28.1863026 C-0.577330985,27.8793026 0.668669015,27.7743026 0.252669015,27.4643026 C-0.161330985,27.1513026 0.0476690146,27.1513026 0.252669015,26.0113026 C0.461669015,24.8663026 0.877669015,25.4913026 1.91266901,24.4553026 C2.95366901,23.4163026 2.84966901,23.9373026 3.98866901,23.8333026 C5.12766901,23.7283026 6.37366901,23.6233026 6.89466901,23.5203026 C7.41266901,23.4163026 8.13866901,22.9013026 8.96466901,21.8603026 C9.79866901,20.8263026 8.86366901,21.3413026 8.24266901,21.2373026 C7.61766901,21.1373026 7.09966901,21.7573026 6.89466901,22.0673026 C6.68366901,22.3783026 5.23466901,21.4453026 5.02366901,21.0283026 C4.81866901,20.6203026 5.75266901,19.9983026 6.26966901,19.6823026 C6.78766901,19.3723026 8.03766901,19.5773026 9.17566901,19.9983026 C10.316669,20.4053026 10.523669,20.4053026 10.523669,20.4053026 C10.523669,20.4053026 11.457669,19.6823026 11.353669,19.3723026 C11.250669,19.0603026 11.353669,18.5413026 10.523669,18.0213026 C9.69366901,17.5023026 12.183669,16.8813026 12.701669,16.5703026 C13.214669,16.2593026 15.191669,16.0533026 15.707669,16.1533026 C16.228669,16.2593026 18.820669,14.8083026 19.339669,15.1143026 C19.857669,15.4293026 23.177669,14.8083026 23.595669,14.9063026 C24.007669,15.0133026 27.431669,14.1853026 29.091669,14.0823026 C30.752669,13.9763026 31.890669,14.0823026 33.757669,14.0823026 C35.627669,14.0823026 34.279669,14.7003026 35.214669,15.4293026 C36.144669,16.1533026 35.832669,16.3633026 36.248669,16.4663026 C36.666669,16.5703026 36.248669,16.4663026 36.560669,16.9873026 C36.873669,17.5023026 38.742669,17.5023026 39.572669,17.4003026 C40.398669,17.2943026 42.992669,16.2593026 44.756669,15.9483026 C46.521669,15.6343026 48.802669,15.5313026 49.632669,15.4293026 C50.463669,15.3273026 52.638669,16.1533026 52.638669,16.1533026 C52.638669,16.1533026 59.382669,16.3633026 59.695669,16.4623026 C60.007669,16.5703026 59.382669,17.4003026 59.695669,17.4003026 C60.007669,17.4003026 60.627669,17.9193026 61.560669,17.9193026 C62.498669,17.9193026 63.328669,18.4383026 63.636669,18.3323026 C63.949669,18.2293026 64.881669,19.6823026 64.881669,19.3723026 C64.881669,19.0603026 65.814669,18.2293026 66.439669,17.6083026 C67.060669,16.9833026 67.890669,17.5023026 68.617669,17.4003026 C69.341669,17.2943026 72.140669,17.2943026 73.076669,17.4003026 C74.013669,17.5023026 74.740669,18.1203026 75.256669,18.1203026 C75.777669,18.1203026 75.879669,18.2293026 76.500669,18.7453026 C77.125669,19.2653026 79.611669,17.0873026 80.339669,15.0133026 C81.066669,12.9393026 82.000669,13.6633026 83.035669,13.2523026 C84.074669,12.8333026 83.453669,14.1833026 83.556669,15.1143026 C83.660669,16.0513026 83.660669,15.7403026 84.386669,15.9463026 C85.111669,16.1533026 85.011669,16.2593026 85.011669,16.2593026 C85.011669,16.2593026 84.699669,17.0873026 84.798669,17.6083026 C84.904669,18.1203026 85.011669,18.0213026 86.254669,17.4003026 C87.498669,16.7743026 86.980669,17.4003026 88.744669,16.5703026 C90.507669,15.7403026 89.779669,15.5313026 90.300669,15.6343026 C90.818669,15.7403026 91.234669,15.4273026 91.127669,16.4623026 C91.025669,17.5023026 89.779669,17.9193026 89.056669,18.3323026 C88.328669,18.7453026 87.084669,18.6453026 86.254669,19.0603026 C85.423669,19.4753026 84.490669,19.7833026 83.765669,20.6133026 C83.035669,21.4453026 83.035669,20.7203026 82.935669,20.4053026 C82.830669,20.0933026 82.101669,19.7843026 81.687669,19.5773026 C81.275669,19.3723026 81.482669,20.8203026 81.482669,20.8203026 C81.482669,20.8203026 81.379669,21.7573026 80.963669,22.2773026 C80.548669,22.7913026 79.302669,22.6903026 78.580669,22.8953026 C77.847669,23.1033026 75.357669,24.2483026 73.906669,24.7643026 C72.459669,25.2843026 69.652669,27.7703026 69.447669,28.2903026 C69.238669,28.8103026 69.341669,30.1603026 69.550669,30.7813026 C69.759669,31.4053026 71.836669,32.1313026 71.728669,32.5423026 C71.625669,32.9583026 78.263669,34.0013026 78.263669,34.0013026 L77.330669,34.9303026 C77.330669,34.9303026 76.709669,37.2113026 77.228669,37.8363026 C77.742669,38.4543026 79.302669,38.7703026 79.923669,38.5633026 C80.548669,38.3553026 81.066669,36.3853026 81.066669,35.5533026 C81.066669,34.7213026 82.414669,34.6213026 82.414669,34.6213026 C82.414669,34.6213026 83.865669,33.6853026 85.525669,33.4743026 C87.185669,33.2683026 85.734669,32.3373026 86.043669,29.1173026 C86.355669,25.9083026 86.980669,27.8793026 87.392669,27.6703026 C87.810669,27.4583026 89.988669,25.4913026 90.404669,24.8663026 C90.818669,24.2443026 92.269669,25.1773026 92.894669,25.1773026 C93.515669,25.1773026 95.175669,25.3893026 95.591669,26.4233026 C96.006669,27.4643026 96.211669,27.0453026 95.898669,27.7703026 C95.591669,28.4983026 96.418669,30.0563026 97.041669,29.7413026 C97.666669,29.4353026 100.568669,27.9783026 101.089669,27.6703026 C101.607669,27.3593026 101.816669,27.6703026 102.125669,27.7703026 C102.433669,27.8793026 102.125669,29.1173026 102.125669,29.1173026 C102.125669,29.1173026 102.228669,29.7413026 101.920669,31.1983026 C101.607669,32.6473026 102.023669,32.4413026 102.433669,32.7523026 C102.849669,33.0653026 102.746669,33.2683026 103.576669,34.6213026 C104.410669,35.9683026 104.093669,34.7213026 104.509669,34.5173026 C104.925669,34.3103026 105.443669,35.2403026 105.964669,35.6553026 C106.482669,36.0723026 105.548669,37.0043026 105.548669,37.0043026 C105.548669,37.0043026 104.714669,37.6283026 104.509669,38.0413026 C104.304669,38.4543026 102.849669,39.2863026 102.125669,39.8053026 C101.402669,40.3263026 100.152669,40.1183026 99.220669,40.1183026 C98.283669,40.1183026 94.242669,40.2183026 92.578669,40.6393026 C90.918669,41.0503026 89.574669,41.6733026 89.154669,41.8783026 C88.740669,42.0883026 88.531669,43.0223026 89.154669,42.9183026 C89.779669,42.8133026 90.507669,43.0223026 90.818669,42.9183026 C91.127669,42.8133026 93.515669,42.2993026 94.451669,42.7123026 C95.381669,43.1253026 93.929669,43.4373026 92.787669,44.4723026 C91.648669,45.5133026 93.203669,45.4063026 94.242669,45.7213026 C95.279669,46.0323026 95.175669,45.9303026 96.732669,45.3063026 C98.283669,44.6833026 97.457669,45.1003026 97.869669,45.4063026 C98.283669,45.7213026 97.560669,46.3433026 97.560669,46.3433026 C97.560669,46.3433026 97.457669,46.5493026 95.898669,47.0673026 C94.341669,47.5893026 94.863669,47.1703026 94.136669,47.2763026 C93.412669,47.3793026 93.515669,47.6893026 91.543669,49.2473026 C89.574669,50.8033026 89.882669,49.4563026 90.300669,48.4173026 C90.713669,47.3793026 89.369669,48.1083026 91.439669,46.8613026 C93.515669,45.6143026 91.230669,46.6533026 90.507669,46.8613026 C89.779669,47.0703026 88.019669,48.0023026 87.498669,48.0023026 C86.980669,48.0023026 85.632669,49.2473026 84.593669,50.0773026 C83.556669,50.9073026 83.556669,51.1143026 83.556669,52.0503026 C83.556669,52.9823026 81.892669,52.4633026 81.584669,52.4633026 C81.271669,52.4633026 79.302669,53.3973026 79.402669,53.9193026 C79.509669,54.4343026 78.054669,55.2663026 78.054669,55.2663026 C78.054669,55.2663026 76.709669,56.3023026 76.603669,56.7133026 C76.496669,57.1303026 74.527669,58.5833026 74.425669,59.4133026 C74.322669,60.2413026 73.701669,60.5583026 73.701669,60.5583026 C73.701669,60.5583026 72.041669,61.6963026 71.314669,62.1093026 C70.586669,62.5263026 67.578669,64.5983026 66.336669,65.5343026 C65.091669,66.4663026 65.091669,66.8833026 65.297669,67.6083026 C65.502669,68.3343026 64.984669,68.9603026 65.711669,71.1353026 C66.439669,73.3163026 65.400669,73.9373026 65.400669,73.9373026 C65.400669,73.9373026 64.779669,74.7663026 64.470669,75.0803026 C64.158669,75.3913026 63.427669,73.8333026 63.427669,73.8333026 C63.427669,73.8333026 62.908669,72.6923026 62.908669,70.8243026 C62.908669,68.9603026 62.498669,69.9983026 62.498669,69.6843026 C62.498669,69.3733026 61.980669,69.3733026 62.082669,69.0643026 C62.185669,68.7493026 61.146669,68.6453026 60.422669,68.0233026 C59.695669,67.4023026 59.279669,67.9173026 59.070669,67.6083026 C58.865669,67.2983026 57.519669,67.7153026 57.519669,67.4023026 C57.519669,67.0913026 56.685669,67.5053026 55.859669,68.8543026 C55.025669,70.2023026 54.923669,69.6843026 54.404669,69.5813026 C53.886669,69.4763026 52.951669,69.8923026 52.744669,68.7493026 C52.535669,67.6083026 51.191669,68.7493026 50.670669,68.7493026 C50.150669,68.7493026 49.527669,68.9603026 48.802669,69.1643026 C48.076669,69.3733026 47.347669,69.8923026 46.937669,70.3073026 C46.521669,70.7223026 44.961669,71.2353026 44.656669,71.6543026 C44.343669,72.0713026 44.031669,73.1053026 44.134669,73.4183026 C44.236669,73.7293026 42.992669,75.8043026 43.095669,76.3233026 C43.201669,76.8433026 42.058669,79.0233026 42.058669,79.7493026 C42.058669,80.4743026 42.267669,82.0303026 42.683669,82.7533026 C43.095669,83.4813026 45.273669,84.6253026 45.795669,84.7263026 C46.312669,84.8293026 47.871669,84.9323026 47.871669,84.9323026 C47.871669,84.9323026 49.111669,84.3123026 49.736669,84.1003026 C50.357669,83.8973026 50.879669,82.5503026 51.396669,81.3013026 C51.914669,80.0623026 51.812669,80.7813026 52.431669,80.4743026 C53.056669,80.1623026 54.093669,80.3703026 54.713669,80.7813026 C55.338669,81.1983026 55.025669,81.3013026 55.025669,81.6133026 C55.025669,81.9253026 54.093669,84.2043026 53.882669,84.7263026 C53.681669,85.2463026 52.330669,88.4603026 52.535669,88.3573026 C52.744669,88.2513026 53.886669,87.9443026 54.820669,87.9443026 C55.757669,87.9443026 57.207669,88.0453026 57.935669,88.4603026 C58.658669,88.8753026 58.035669,88.9783026 58.140669,89.3953026 C58.244669,89.8073026 58.140669,91.3643026 57.828669,92.6093026 C57.519669,93.8533026 57.935669,94.9953026 57.935669,95.7233026 C57.935669,96.4463026 58.449669,96.8633026 58.449669,96.8633026 C58.449669,96.8633026 59.588669,98.2133026 60.109669,98.3153026 C60.627669,98.4193026 60.943669,99.0413026 60.943669,99.0413026 Z M26.287469,77.2962026 C26.291469,77.3482026 26.293469,77.3772026 26.293469,77.3622026 C26.293469,77.3252026 26.291469,77.3132026 26.287469,77.2962026 Z M145.490569,15.3733026 C144.556569,16.1513026 144.556569,15.3733026 142.379569,15.8383026 C140.197569,16.3063026 138.642569,16.7743026 137.709569,16.7743026 C136.777569,16.7743026 134.752569,17.5523026 134.131569,17.8633026 C133.508569,18.1743026 135.219569,18.6413026 131.949569,19.5733026 C128.683569,20.5093026 127.906569,20.3523026 126.972569,21.5983026 C126.039569,22.8433026 126.351569,23.0013026 125.726569,23.7773026 C125.105569,24.5553026 123.240569,27.6703026 122.301569,26.8913026 C121.371569,26.1103026 120.904569,26.2653026 120.121569,25.4913026 C119.345569,24.7093026 118.881569,23.6203026 118.414569,23.0013026 C117.943569,22.3763026 117.793569,20.8203026 117.635569,19.8863026 C117.480569,18.9523026 116.078569,16.7743026 117.635569,17.0873026 C119.191569,17.3993026 120.121569,17.2393026 120.592569,16.9293026 C121.058569,16.6203026 121.525569,15.5313026 121.525569,15.5313026 C121.525569,15.5313026 121.371569,13.8173026 120.904569,12.8813026 C120.437569,11.9493026 120.746569,11.1733026 119.967569,10.2393026 C119.191569,9.30530256 119.191569,9.45730256 118.105569,8.52630256 C117.013569,7.59330256 117.326569,7.12430256 115.611569,6.96730256 C113.898569,6.81230256 113.435569,6.34830256 112.812569,6.50630256 C112.187569,6.65830256 110.166569,5.41130256 112.342569,5.25930256 C114.523569,5.10430256 116.543569,5.41130256 116.543569,5.41130256 C116.543569,5.41130256 119.345569,4.17130256 118.414569,4.01330256 C117.480569,3.85830256 119.812569,2.45930256 117.635569,2.92430256 C115.457569,3.39130256 112.967569,4.01330256 112.342569,4.17130256 C111.720569,4.32530256 110.166569,4.48130256 108.609569,4.95030256 C107.051569,5.41130256 105.189569,5.25930256 104.252569,6.34830256 C103.316569,7.43630256 104.252569,7.59330256 103.316569,7.43630256 C102.386569,7.28230256 104.097569,6.34830256 101.920569,7.43630256 C99.742569,8.52630256 100.363569,8.37330256 99.271569,8.05630256 C98.183569,7.74930256 97.406569,7.28230256 97.406569,7.28230256 C97.406569,7.28230256 98.804569,7.12430256 96.785569,6.96730256 C94.758569,6.81230256 94.758569,6.81230256 93.982569,5.88130256 C93.203569,4.95030256 93.670569,4.95030256 94.136569,4.63830256 C94.605569,4.32530256 94.914569,3.70430256 94.914569,3.70430256 L101.140569,2.92430256 C101.140569,2.92430256 103.324569,2.92430256 104.410569,2.14730256 C105.498569,1.36830256 104.410569,1.36830256 107.676569,0.747302565 C110.945569,0.125302565 110.010569,-0.189697435 111.720569,0.121302565 C113.435569,0.434302565 113.898569,0.434302565 115.769569,0.747302565 C117.638569,1.05630256 118.105569,0.591302565 119.816569,1.05630256 C121.525569,1.52230256 122.303569,1.36830256 123.707569,1.36830256 L128.062569,1.36830256 C130.242569,1.36830256 132.261569,0.121302565 133.041569,0.903302565 C133.820569,1.68130256 134.285569,1.36830256 136.931569,1.68130256 C139.576569,1.98930256 140.666569,1.36830256 141.754569,1.68130256 C142.845569,1.98930256 144.711569,1.52230256 146.888569,1.68130256 C149.072569,1.83330256 150.158569,1.52230256 150.933569,1.52230256 C151.717569,1.52230256 152.492569,0.434302565 153.586569,1.36830256 C154.670569,2.30230256 156.072569,1.05630256 156.230569,2.30230256 C156.381569,3.54730256 158.408569,2.61230256 156.381569,3.54730256 C154.361569,4.48130256 154.670569,4.32530256 153.273569,5.56930256 C151.871569,6.81230256 154.203569,7.90330256 151.250569,8.99430256 C148.293569,10.0813026 147.822569,8.37030256 147.047569,10.2393026 C146.269569,12.1073026 147.047569,12.5683026 146.888569,13.5053026 C146.734569,14.4363026 146.424569,14.5973026 145.490569,15.3733026 Z M91.025769,14.7493026 C90.091769,15.2193026 89.779769,13.5053026 89.312769,13.0383026 C88.843769,12.5683026 90.716769,11.4813026 91.494769,10.7063026 L92.582769,11.7933026 C92.582769,11.7933026 93.357769,11.4853026 95.689769,11.0193026 C98.025769,10.5503026 98.179769,10.8603026 99.429769,11.6393026 C100.671769,12.4203026 100.519769,12.4203026 102.849769,12.7293026 C105.189769,13.0383026 103.474769,14.5973026 103.474769,14.5973026 L105.498769,16.6203026 L106.123769,18.6413026 L105.498769,19.8863026 C105.498769,19.8863026 104.252769,19.1063026 103.629769,19.1063026 C103.011769,19.1063026 103.632769,19.1063026 104.560769,21.4393026 C105.498769,23.7773026 102.849769,21.7553026 102.849769,21.7553026 C102.849769,21.7553026 101.140769,22.2263026 102.541769,23.7773026 C103.939769,25.3333026 101.140769,25.1773026 100.209769,24.7093026 C99.271769,24.2443026 97.252769,23.4663026 96.164769,22.6883026 C95.072769,21.9093026 95.689769,21.2873026 97.252769,20.8203026 C98.804769,20.3533026 98.962769,19.8863026 99.429769,19.4193026 C99.896769,18.9523026 99.271769,17.5523026 98.492769,15.6843026 C97.716769,13.8173026 98.025769,15.2193026 94.451769,13.9743026 C90.871769,12.7293026 91.957769,14.2823026 91.025769,14.7493026 Z M58.658569,12.8812026 C58.035569,12.4202026 56.789569,12.5692026 56.789569,12.5692026 C57.726569,11.6382026 60.213569,9.45520256 61.148569,10.0812026 C62.082569,10.7062026 63.482569,9.61720256 64.572569,10.5502026 C65.660569,11.4822026 66.910569,12.5692026 67.838569,12.8812026 C68.775569,13.1942026 69.863569,12.1082026 70.795569,12.5692026 C71.728569,13.0382026 74.998569,10.2392026 74.373569,12.4202026 C73.756569,14.5972026 75.152569,15.2192026 73.441569,15.3732026 C71.728569,15.5312026 69.863569,16.7752026 69.084569,16.3062026 C68.301569,15.8382026 67.683569,15.3732026 66.439569,15.9952026 C65.193569,16.6202026 65.814569,16.6182026 64.414569,16.3062026 C63.015569,15.9952026 62.703569,16.6182026 62.394569,16.1522026 C62.082569,15.6842026 61.148569,15.8382026 61.303569,14.4372026 C61.457569,13.0382026 61.928569,13.1942026 60.992569,13.1942026 C60.058569,13.1942026 59.283569,13.3512026 58.658569,12.8812026 Z" id="cr-world" fill="#DBDDE3"></path>
            <path d="M69.2139,113.121 L70.0189,113.931 L70.0189,114.537 L69.6139,115.35 L68.7019,116.26 L67.8919,116.868 L66.5749,116.868 L65.4619,117.984 L65.0599,119.397 L64.4519,120.211 L63.8389,120.211 C63.8389,120.211 63.6419,119.198 63.2339,119.198 C62.8289,119.198 62.4249,119.298 62.4249,119.298 L62.4249,118.587 L62.4249,117.984 L61.8189,118.184 L61.1069,119.298 L61.1069,119.7 L61.1069,120.718 C61.1069,120.718 60.9699,121.59 61.1069,121.831 C61.3599,122.265 62.8289,122.843 62.8289,122.843 L63.8389,124.461 L67.8919,131.651 L68.7019,133.271 L68.1959,133.78 L69.1069,134.893 L71.1339,136.412 L72.1479,137.021 L74.0689,137.832 L75.6929,138.642 L75.6929,139.448 L77.1089,140.157 L78.1219,140.157 L78.1219,138.944 L79.3369,137.125 L78.7319,136.005 L78.8309,135.4 L78.7319,134.689 L79.3369,133.677 L79.3369,132.36 L79.3369,131.549 L78.5249,129.021 L77.2099,129.021 L76.9049,128.312 L76.8019,126.642 L76.1959,127.399 L74.9819,127.706 L74.2729,127.194 L72.9559,125.881 L71.9429,123.854 L72.9559,122.843 L73.3599,121.527 L73.4639,120.612 L75.2859,119.502 L76.8019,119.198 L77.6139,119.502 L77.5149,118.587 L77.1089,117.882 L77.6139,116.765 L75.6929,116.157 L74.3739,116.157 L73.4639,116.361 L72.1479,114.943 L70.2199,113.121 L69.2139,113.121 Z" id="cr-per" fill="#2F41C9"></path>
        </g>
    </g>
</svg>