<?xml version="1.0" encoding="utf-8"?>
<!-- Generator: Adobe Illustrator 16.0.0, SVG Export Plug-In . SVG Version: 6.00 Build 0)  -->
<!DOCTYPE svg PUBLIC "-//W3C//DTD SVG 1.1//EN" "http://www.w3.org/Graphics/SVG/1.1/DTD/svg11.dtd">
<svg version="1.1" xmlns="http://www.w3.org/2000/svg" xmlns:xlink="http://www.w3.org/1999/xlink" x="0px" y="0px" width="613px"
	 height="283px" viewBox="0 0 613 283" enable-background="new 0 0 613 283" xml:space="preserve">
<g id="Layer_1">
	<g>
		<g>
			<linearGradient id="SVGID_2_" gradientUnits="userSpaceOnUse" x1="0.6597" y1="81.125" x2="618.5854" y2="81.125">
				<stop  offset="0" style="stop-color:#2F41C9"/>
				<stop  offset="1" style="stop-color:#7187F4"/>
			</linearGradient>
			<path fill="url(#SVGID_2_)" d="M176.829,42.2c-2.002,0.4-5.852,0.6-11.551,0.6c-6.801,0-12.051-0.199-15.75-0.6v3.149
				c3.301,0.202,5.949,1.601,7.949,4.2c2,2.602,3,6.251,3,10.95c0,4.401-0.951,9.501-2.85,15.3l-6.9,20.7l-16.35-45.45
				c-0.201-0.998-0.299-1.65-0.299-1.95c0-1.699,0.674-2.749,2.023-3.149c1.352-0.398,3.574-0.601,6.676-0.601V42.2
				c-8.002,0.6-14.5,0.899-19.5,0.899c-9.9,0-18.801-0.3-26.699-0.899v3.149c3.6,0,6.498,2.801,8.699,8.4l26.1,66.3
				c1.6-0.199,4.051-0.3,7.35-0.3c3.199,0,5.6,0.101,7.201,0.3l20.25-60.15c1.5-4.598,3.123-7.999,4.875-10.199
				c1.748-2.199,3.674-3.649,5.775-4.351V42.2z"/>
			<linearGradient id="SVGID_4_" gradientUnits="userSpaceOnUse" x1="0.6592" y1="80.2998" x2="618.5862" y2="80.2998">
				<stop  offset="0" style="stop-color:#2F41C9"/>
				<stop  offset="1" style="stop-color:#7187F4"/>
			</linearGradient>
			<path fill="url(#SVGID_4_)" d="M223.626,120.05v-3.15c-3.1,0-5.275-0.773-6.525-2.324c-1.25-1.55-1.875-4.374-1.875-8.476V40.55
				c-7,1.401-15.699,2.1-26.1,2.1c-3,0-6.1-0.149-9.299-0.449v3.149c3.098,0,5.273,1.05,6.523,3.15
				c1.25,2.1,1.875,5.451,1.875,10.05v47.55c0,4.102-0.625,6.926-1.875,8.476c-1.25,1.551-3.426,2.324-6.523,2.324v3.15
				c11.598-0.398,19.098-0.6,22.5-0.6C205.726,119.45,212.827,119.651,223.626,120.05z"/>
			<linearGradient id="SVGID_6_" gradientUnits="userSpaceOnUse" x1="0.6587" y1="15.6499" x2="618.5833" y2="15.6499">
				<stop  offset="0" style="stop-color:#2F41C9"/>
				<stop  offset="1" style="stop-color:#7187F4"/>
			</linearGradient>
			<path fill="url(#SVGID_6_)" d="M188.677,25.25c2.799,2.2,6.848,3.3,12.15,3.3c5.197,0,9.225-1.1,12.074-3.3
				c2.85-2.198,4.275-5.4,4.275-9.601c0-4.199-1.426-7.398-4.275-9.6c-2.85-2.198-6.877-3.3-12.074-3.3
				c-5.303,0-9.352,1.102-12.15,3.3c-2.801,2.201-4.201,5.4-4.201,9.6C184.476,19.85,185.876,23.052,188.677,25.25z"/>
			<linearGradient id="SVGID_8_" gradientUnits="userSpaceOnUse" x1="0.6631" y1="81.1245" x2="618.5771" y2="81.1245">
				<stop  offset="0" style="stop-color:#2F41C9"/>
				<stop  offset="1" style="stop-color:#7187F4"/>
			</linearGradient>
			<path fill="url(#SVGID_8_)" d="M288.575,85.925c-2.603-3.549-6.701-7.624-12.301-12.225c-2.699-2.199-4.15-3.35-4.35-3.45
				c-4.702-3.698-8.152-6.825-10.35-9.375c-2.201-2.55-3.301-5.476-3.301-8.775c0-2.599,0.848-4.649,2.551-6.149
				c1.699-1.5,3.799-2.25,6.299-2.25c5.599,0,9.875,2.275,12.826,6.824c2.947,4.552,4.822,10.125,5.625,16.726h3
				c0-12.8,0.199-21.8,0.6-27h-3c-0.4,3.201-1.65,4.8-3.75,4.8c-0.702,0-1.602-0.3-2.702-0.9c-1.798-0.998-4.423-1.924-7.875-2.774
				c-3.448-0.849-7.125-1.275-11.022-1.275c-5.002,0-9.652,0.877-13.951,2.625c-4.301,1.751-7.75,4.275-10.35,7.575
				c-2.602,3.3-3.9,7.102-3.9,11.4c0,3.7,0.773,7.075,2.326,10.125c1.549,3.051,3.424,5.726,5.625,8.024
				c2.197,2.302,5.397,5.4,9.6,9.3c3.697,3.301,6.375,5.827,8.025,7.575c1.647,1.751,3.049,3.727,4.199,5.925
				c1.148,2.201,1.725,4.702,1.725,7.5c0,2.7-0.824,4.751-2.475,6.15c-1.65,1.401-3.727,2.1-6.225,2.1
				c-5.303,0-9.702-2.498-13.202-7.5c-3.5-4.999-5.698-11.599-6.599-19.8h-3c0,14.302-0.201,24.3-0.6,30h3
				c0.9-3.499,2.299-5.25,4.198-5.25c1.101,0,2.2,0.202,3.302,0.601c1.1,0.4,2.498,1.05,4.198,1.949c4,2.499,9.151,3.75,15.452,3.75
				c5.498,0,10.574-0.975,15.225-2.925s8.323-4.699,11.025-8.25c2.699-3.548,4.048-7.523,4.048-11.925
				C292.473,93.852,291.173,89.476,288.575,85.925z"/>
			<linearGradient id="SVGID_9_" gradientUnits="userSpaceOnUse" x1="0.6592" y1="81.3496" x2="618.585" y2="81.3496">
				<stop  offset="0" style="stop-color:#2F41C9"/>
				<stop  offset="1" style="stop-color:#7187F4"/>
			</linearGradient>
			<path fill="url(#SVGID_9_)" d="M305.147,48.5c1.248,2.1,1.875,5.451,1.875,10.05V96.8c0,5.002,0.35,9.025,1.049,12.075
				c0.699,3.052,1.801,5.475,3.301,7.274c3.301,3.999,8.949,6,16.949,6c11.399,0,19.352-3.75,23.852-11.25V121.7
				c6.998-1.402,15.697-2.101,26.1-2.101c3.098,0,6.198,0.15,9.299,0.45v-3.15c-3.101,0-5.275-1.05-6.523-3.149
				c-1.252-2.101-1.875-5.449-1.875-10.05V40.55c-7.002,1.401-15.702,2.1-26.102,2.1c-3.101,0-6.201-0.149-9.299-0.449v3.149
				c3.098,0,5.273,1.05,6.525,3.15c1.248,2.1,1.875,5.451,1.875,10.05v45c0,3.101-1.077,5.677-3.227,7.725
				c-2.15,2.051-4.676,3.075-7.574,3.075c-2.602,0-4.477-0.773-5.625-2.325c-1.151-1.549-1.725-3.923-1.725-7.125V40.55
				c-7.002,1.401-15.701,2.1-26.1,2.1c-3.102,0-6.203-0.149-9.301-0.449v3.149C301.72,45.35,303.896,46.399,305.147,48.5z"/>
			<g>
				<linearGradient id="SVGID_10_" gradientUnits="userSpaceOnUse" x1="0.6602" y1="80.5996" x2="618.5836" y2="80.5996">
					<stop  offset="0" style="stop-color:#2F41C9"/>
					<stop  offset="1" style="stop-color:#7187F4"/>
				</linearGradient>
				<path fill="url(#SVGID_10_)" d="M467.37,113c-0.699,0.6-1.449,1.125-2.25,1.575c-0.801,0.449-1.551,0.675-2.25,0.675
					c-0.899,0-1.525-0.45-1.875-1.351c-0.352-0.899-0.524-2.599-0.524-5.1V68.6c0-5.599-0.326-9.975-0.976-13.125
					c-0.65-3.149-1.975-5.774-3.975-7.875c-2.801-2.899-6.201-4.875-10.199-5.925c-4.002-1.05-8.752-1.575-14.25-1.575
					c-10.403,0-18.4,1.601-24,4.8c-3.201,1.801-5.551,3.802-7.051,6c-1.5,2.201-2.25,4.801-2.25,7.801
					c0,3.801,1.125,6.926,3.375,9.375c2.25,2.451,5.325,3.675,9.225,3.675c3.9,0,7.225-1.175,9.976-3.525
					c2.748-2.349,4.125-5.475,4.125-9.375c0-2.899-0.826-5.524-2.476-7.875c-1.649-2.349-4.176-4.125-7.574-5.325
					c2.498-1.699,5.299-2.55,8.4-2.55c3.9,0,6.648,1.252,8.25,3.75c1.598,2.501,2.4,5.351,2.4,8.55V68.75c0,2.7-1.251,4.8-3.75,6.3
					c-2.501,1.5-6.451,3.15-11.851,4.95c-5.1,1.701-9.25,3.352-12.449,4.95c-3.201,1.601-5.977,3.876-8.325,6.824
					c-2.351,2.951-3.524,6.676-3.524,11.176c0,5.2,1.623,9.524,4.875,12.975c3.248,3.45,8.074,5.175,14.475,5.175
					c9.3,0,16.299-3.799,21-11.399c0.199,3.501,1.5,6.276,3.9,8.324c2.4,2.049,6.6,3.075,12.6,3.075c8,0,14.148-1.849,18.449-5.55
					L467.37,113z M433.471,106.55c-1.601,1.701-3.451,2.55-5.55,2.55c-5.1,0-7.651-3.6-7.651-10.8c0-4.2,0.699-7.523,2.1-9.975
					c1.4-2.449,3.451-4.974,6.15-7.575c2.4-2.4,4.051-4.351,4.951-5.851V106.55z"/>
			</g>
			<linearGradient id="SVGID_11_" gradientUnits="userSpaceOnUse" x1="0.6577" y1="61.3999" x2="618.5816" y2="61.3999">
				<stop  offset="0" style="stop-color:#2F41C9"/>
				<stop  offset="1" style="stop-color:#7187F4"/>
			</linearGradient>
			<path fill="url(#SVGID_11_)" d="M516.421,120.05v-3.15c-3.102,0-5.275-0.773-6.525-2.324c-1.252-1.55-1.875-4.374-1.875-8.476
				V2.75c-7,1.401-15.701,2.1-26.1,2.1c-3.102,0-6.201-0.149-9.301-0.45v3.15c3.1,0,5.273,1.05,6.525,3.15
				c1.25,2.1,1.875,5.451,1.875,10.05v85.35c0,4.102-0.625,6.926-1.875,8.476c-1.252,1.551-3.426,2.324-6.525,2.324v3.15
				c11.6-0.398,19.1-0.6,22.5-0.6C498.518,119.45,505.62,119.651,516.421,120.05z"/>
		</g>
		<g>
			<linearGradient id="SVGID_12_" gradientUnits="userSpaceOnUse" x1="-3.0146" y1="194.4497" x2="614.9109" y2="194.4497">
				<stop  offset="0" style="stop-color:#2F41C9"/>
				<stop  offset="1" style="stop-color:#7187F4"/>
			</linearGradient>
			<path fill="url(#SVGID_12_)" d="M80.604,245.6c-1.252-2.1-1.875-5.449-1.875-10.05v-100.8c-7.002,1.401-15.701,2.1-26.1,2.1
				c-3.102,0-6.203-0.149-9.301-0.45v3.15c3.098,0,5.273,1.05,6.525,3.15c1.248,2.1,1.875,5.451,1.875,10.05v23.1
				c-4.002-2.498-9.201-3.75-15.6-3.75c-10.301,0-18.428,3.427-24.375,10.275c-5.951,6.851-8.926,16.927-8.926,30.225
				c0,14.002,2.799,24.427,8.4,31.275c5.6,6.851,12.998,10.274,22.199,10.274c4.4,0,8.025-0.899,10.875-2.699
				c2.85-1.801,5.326-4.65,7.426-8.551v10.65c6.998-1.401,15.697-2.1,26.1-2.1c3.098,0,6.199,0.149,9.301,0.449v-3.149
				C84.028,248.75,81.853,247.7,80.604,245.6z M51.729,235.55c0,3.101-1.076,5.677-3.225,7.725
				c-2.152,2.051-4.676,3.075-7.576,3.075c-3.1,0-5.549-2.475-7.35-7.425S30.88,225.35,30.88,213.05
				c0-12.099,1.125-21.124,3.375-27.075c2.25-5.948,5.723-8.925,10.424-8.925c2.498,0,4.85,0.651,7.051,1.95V235.55z"/>
			<linearGradient id="SVGID_13_" gradientUnits="userSpaceOnUse" x1="-3.0146" y1="213.1245" x2="614.9108" y2="213.1245">
				<stop  offset="0" style="stop-color:#2F41C9"/>
				<stop  offset="1" style="stop-color:#7187F4"/>
			</linearGradient>
			<path fill="url(#SVGID_13_)" d="M139.478,237.8c-4.799,0-8.875-2.049-12.225-6.15c-3.352-4.099-5.025-10.949-5.025-20.55
				c0-2.399,0.049-4.2,0.15-5.399h38.699c0-22.399-9.449-33.601-28.35-33.601c-11.602,0-20.924,3.427-27.975,10.275
				c-7.051,6.851-10.574,17.126-10.574,30.825c0,14.301,3.148,24.7,9.449,31.199c6.301,6.502,14.699,9.75,25.199,9.75
				c8.199,0,14.926-2.498,20.176-7.5c5.25-4.999,8.975-10.999,11.176-18l-2.551-0.899C152.827,234.45,146.776,237.8,139.478,237.8z
				 M131.679,175.55c2.598,0,4.523,2.55,5.773,7.65c1.25,5.1,1.824,11.65,1.727,19.649h-17.4
				C122.776,184.65,126.077,175.55,131.679,175.55z"/>
			<linearGradient id="SVGID_14_" gradientUnits="userSpaceOnUse" x1="-3.0146" y1="213.1245" x2="614.9093" y2="213.1245">
				<stop  offset="0" style="stop-color:#2F41C9"/>
				<stop  offset="1" style="stop-color:#7187F4"/>
			</linearGradient>
			<path fill="url(#SVGID_14_)" d="M215.077,205.7c-2.699-2.199-4.15-3.35-4.35-3.45c-4.701-3.698-8.152-6.825-10.35-9.375
				c-2.201-2.55-3.301-5.476-3.301-8.775c0-2.599,0.848-4.649,2.551-6.149c1.699-1.5,3.799-2.25,6.299-2.25
				c5.6,0,9.875,2.275,12.826,6.824c2.947,4.552,4.822,10.125,5.625,16.726h3c0-12.8,0.199-21.8,0.6-27h-3
				c-0.4,3.201-1.65,4.8-3.75,4.8c-0.701,0-1.602-0.3-2.701-0.9c-1.799-0.998-4.424-1.924-7.875-2.774
				c-3.449-0.849-7.125-1.275-11.023-1.275c-5.002,0-9.652,0.877-13.951,2.625c-4.301,1.751-7.75,4.275-10.35,7.575
				c-2.602,3.3-3.9,7.102-3.9,11.4c0,3.7,0.773,7.075,2.326,10.125c1.549,3.051,3.424,5.726,5.625,8.024
				c2.197,2.302,5.398,5.4,9.6,9.3c3.697,3.301,6.375,5.827,8.025,7.575c1.648,1.751,3.049,3.727,4.199,5.925
				c1.148,2.201,1.725,4.702,1.725,7.5c0,2.7-0.824,4.751-2.475,6.15c-1.65,1.401-3.727,2.1-6.225,2.1
				c-5.303,0-9.701-2.498-13.201-7.5c-3.5-4.999-5.699-11.599-6.6-19.8h-3c0,14.302-0.201,24.3-0.6,30h3
				c0.9-3.499,2.299-5.25,4.199-5.25c1.1,0,2.199,0.202,3.301,0.601c1.1,0.4,2.498,1.05,4.199,1.949c4,2.499,9.15,3.75,15.451,3.75
				c5.498,0,10.574-0.975,15.225-2.925s8.324-4.699,11.025-8.25c2.699-3.548,4.049-7.523,4.049-11.925
				c0-5.198-1.301-9.574-3.898-13.125C224.776,214.376,220.677,210.301,215.077,205.7z"/>
			<linearGradient id="SVGID_15_" gradientUnits="userSpaceOnUse" x1="-3.0142" y1="212.2998" x2="614.9097" y2="212.2998">
				<stop  offset="0" style="stop-color:#2F41C9"/>
				<stop  offset="1" style="stop-color:#7187F4"/>
			</linearGradient>
			<path fill="url(#SVGID_15_)" d="M276.2,246.575c-1.252-1.55-1.875-4.374-1.875-8.476v-65.55c-7.002,1.401-15.701,2.1-26.1,2.1
				c-3,0-6.102-0.149-9.301-0.449v3.149c3.098,0,5.273,1.05,6.525,3.15c1.248,2.1,1.875,5.451,1.875,10.05v47.55
				c0,4.102-0.627,6.926-1.875,8.476c-1.252,1.551-3.428,2.324-6.525,2.324v3.15c11.6-0.398,19.1-0.6,22.5-0.6
				c3.398,0,10.5,0.201,21.301,0.6v-3.15C279.624,248.899,277.448,248.126,276.2,246.575z"/>
			<linearGradient id="SVGID_16_" gradientUnits="userSpaceOnUse" x1="-3.0142" y1="147.6499" x2="614.9127" y2="147.6499">
				<stop  offset="0" style="stop-color:#2F41C9"/>
				<stop  offset="1" style="stop-color:#7187F4"/>
			</linearGradient>
			<path fill="url(#SVGID_16_)" d="M259.925,160.55c5.199,0,9.225-1.1,12.074-3.3c2.852-2.198,4.275-5.4,4.275-9.601
				c0-4.199-1.424-7.398-4.275-9.6c-2.85-2.198-6.875-3.3-12.074-3.3c-5.301,0-9.352,1.102-12.15,3.3
				c-2.802,2.201-4.199,5.4-4.199,9.6c0,4.2,1.397,7.402,4.199,9.601C250.573,159.45,254.624,160.55,259.925,160.55z"/>
			<g>
				<linearGradient id="SVGID_17_" gradientUnits="userSpaceOnUse" x1="-3.0146" y1="225.2749" x2="614.9114" y2="225.2749">
					<stop  offset="0" style="stop-color:#2F41C9"/>
					<stop  offset="1" style="stop-color:#7187F4"/>
				</linearGradient>
				<path fill="url(#SVGID_17_)" d="M357.198,187.175c1.549,1.451,3.375,2.175,5.475,2.175c2.298,0,4.199-0.825,5.699-2.475
					c1.5-1.65,2.25-3.874,2.25-6.675c0-2.899-0.899-5.273-2.699-7.125c-1.801-1.85-4.35-2.775-7.65-2.775c-3,0-5.85,0.75-8.55,2.25
					s-5.002,3.551-6.899,6.15c-5.701-4.399-13.801-6.601-24.301-6.601c-9.802,0-17.625,2.025-23.475,6.075
					s-8.775,10.026-8.775,17.925c0,6.802,2.176,12.176,6.525,16.125c4.35,3.952,10.324,6.427,17.925,7.425
					c-5.399,2.602-9.524,5.4-12.375,8.4s-4.274,6.502-4.274,10.5c0,4.401,1.799,7.9,5.399,10.5c3.601,2.602,8.798,3.9,15.601,3.9
					h8.1c5.898,0,10.023,0.923,12.375,2.774c2.348,1.85,3.525,4.324,3.525,7.425c0,4.399-1.777,7.925-5.326,10.575
					c-3.551,2.648-8.625,3.976-15.225,3.976c-6.4,0-11.377-1.076-14.925-3.226c-3.55-2.151-5.325-5.175-5.325-9.075
					c0-3.101,1.35-6.3,4.051-9.6l-1.5-2.4c-5.902,1.399-10.301,3.301-13.201,5.7c-2.901,2.4-4.35,5.049-4.35,7.95
					c0,4.2,2.948,7.448,8.85,9.75c5.9,2.299,14,3.45,24.301,3.45c10.398,0,19.074-1.252,26.025-3.75
					c6.949-2.501,12.098-5.851,15.449-10.05c3.35-4.2,5.025-8.902,5.025-14.101c0-7.298-2.875-12.675-8.625-16.125
					c-5.752-3.45-13.725-5.175-23.926-5.175h-14.549c-3.601,0-5.4-1.599-5.4-4.8c0-2.4,1.298-4.5,3.9-6.3
					c0.899,0.101,2.299,0.149,4.199,0.149c9.799,0,17.625-2.024,23.475-6.075c5.851-4.05,8.775-10.023,8.775-17.925
					c0-6.199-1.852-11.25-5.55-15.149c2.101-3.301,5.349-5.851,9.75-7.65c-1.401,2.801-2.101,5.4-2.101,7.8
					C354.872,183.701,355.646,185.727,357.198,187.175z M325.098,212.524c-1.05,3.251-2.575,4.875-4.575,4.875
					c-2.002,0-3.525-1.624-4.574-4.875c-1.051-3.248-1.576-8.723-1.576-16.425c0-7.699,0.525-13.174,1.576-16.425
					c1.049-3.248,2.572-4.875,4.574-4.875c2,0,3.525,1.627,4.575,4.875c1.05,3.251,1.575,8.726,1.575,16.425
					C326.673,203.802,326.147,209.276,325.098,212.524z"/>
			</g>
			<linearGradient id="SVGID_18_" gradientUnits="userSpaceOnUse" x1="-3.0137" y1="212.0747" x2="614.9104" y2="212.0747">
				<stop  offset="0" style="stop-color:#2F41C9"/>
				<stop  offset="1" style="stop-color:#7187F4"/>
			</linearGradient>
			<path fill="url(#SVGID_18_)" d="M456.346,246.575c-1.251-1.55-1.875-4.374-1.875-8.476V197.45c0-5-0.351-9.023-1.05-12.075
				c-0.701-3.05-1.801-5.476-3.301-7.275c-3.299-3.998-8.949-6-16.949-6c-11.4,0-19.349,3.75-23.849,11.25v-10.8
				c-7.002,1.401-15.701,2.1-26.101,2.1c-3,0-6.101-0.149-9.3-0.449v3.149c3.098,0,5.273,1.05,6.525,3.15
				c1.248,2.1,1.875,5.451,1.875,10.05v47.55c0,4.102-0.627,6.926-1.875,8.476c-1.252,1.551-3.428,2.324-6.525,2.324v3.15
				c11.6-0.398,19.1-0.6,22.5-0.6c3.199,0,9.799,0.201,19.8,0.6v-3.15c-2.601,0-4.401-0.773-5.399-2.324
				c-1.002-1.55-1.5-4.374-1.5-8.476V190.7c0-3.099,1.072-5.675,3.225-7.726c2.148-2.048,4.674-3.075,7.574-3.075
				c2.6,0,4.475,0.776,5.625,2.325c1.148,1.552,1.726,3.926,1.726,7.125v48.75c0,4.102-0.501,6.926-1.5,8.476
				c-1.001,1.551-2.8,2.324-5.4,2.324v3.15c10.799-0.398,17.899-0.6,21.299-0.6c3.199,0,10.201,0.201,21,0.6v-3.15
				C459.77,248.899,457.594,248.126,456.346,246.575z"/>
			<linearGradient id="SVGID_19_" gradientUnits="userSpaceOnUse" x1="-3.0151" y1="213.1245" x2="614.9103" y2="213.1245">
				<stop  offset="0" style="stop-color:#2F41C9"/>
				<stop  offset="1" style="stop-color:#7187F4"/>
			</linearGradient>
			<path fill="url(#SVGID_19_)" d="M514.471,237.8c-4.8,0-8.876-2.049-12.226-6.15c-3.352-4.099-5.024-10.949-5.024-20.55
				c0-2.399,0.049-4.2,0.149-5.399h38.701c0-22.399-9.451-33.601-28.35-33.601c-11.601,0-20.925,3.427-27.976,10.275
				c-7.049,6.851-10.574,17.126-10.574,30.825c0,14.301,3.15,24.7,9.449,31.199c6.301,6.502,14.701,9.75,25.201,9.75
				c8.197,0,14.924-2.498,20.174-7.5c5.25-4.999,8.975-10.999,11.176-18l-2.551-0.899C527.821,234.45,521.768,237.8,514.471,237.8z
				 M506.671,175.55c2.6,0,4.523,2.55,5.775,7.65c1.248,5.1,1.822,11.65,1.725,19.649h-17.4
				C497.768,184.65,501.069,175.55,506.671,175.55z"/>
			<linearGradient id="SVGID_20_" gradientUnits="userSpaceOnUse" x1="-3.0151" y1="212.0747" x2="614.9107" y2="212.0747">
				<stop  offset="0" style="stop-color:#2F41C9"/>
				<stop  offset="1" style="stop-color:#7187F4"/>
			</linearGradient>
			<path fill="url(#SVGID_20_)" d="M606.946,176.6c-2.152-3-5.676-4.5-10.574-4.5c-9.102,0-15.551,3.75-19.352,11.25v-10.8
				c-7,1.401-15.699,2.1-26.1,2.1c-3,0-6.1-0.149-9.299-0.449v3.149c3.098,0,5.273,1.05,6.523,3.15
				c1.25,2.1,1.875,5.451,1.875,10.05v47.55c0,4.102-0.625,6.926-1.875,8.476c-1.25,1.551-3.426,2.324-6.523,2.324v3.15
				c1.297,0,2.348-0.049,3.148-0.15c10.801-0.3,17.75-0.449,20.852-0.449c3.498,0,10.5,0.149,21,0.449
				c0.898,0.102,1.998,0.15,3.299,0.15v-3.15c-4.701,0-8.025-0.874-9.975-2.625c-1.949-1.748-2.926-4.973-2.926-9.675v-45
				c0-2.899,0.85-5.573,2.551-8.024c1.699-2.449,3.799-4.224,6.301-5.325c1.398-0.698,3-1.05,4.799-1.05
				c-5.1,3.4-7.65,8.051-7.65,13.949c0,3.301,1.148,5.926,3.451,7.875c2.299,1.95,5.6,2.926,9.901,2.926
				c4.098,0,7.424-1.324,9.974-3.976c2.549-2.648,3.825-6.225,3.825-10.725C610.171,183.15,609.094,179.6,606.946,176.6z"/>
		</g>
	</g>
</g>
<g id="grid" display="none">
</g>
</svg>
