<?xml version="1.0" encoding="UTF-8"?>
<svg width="80px" height="80px" viewBox="0 0 80 80" version="1.1" xmlns="http://www.w3.org/2000/svg" xmlns:xlink="http://www.w3.org/1999/xlink">
    <title>icon-vis</title>
    <desc></desc>
    <defs></defs>
    <g id="icon-vis" stroke="none" stroke-width="1" fill="none" fill-rule="evenodd">
        <g id="icon-vis-group" transform="translate(2.000000, 1.000000)">
            <path d="M38.25,76.75 C17.986,76.75 1.5,60.264 1.5,40 C1.5,20.577 16.649,4.636 35.75,3.345 L35.75,5 L40.75,5 L40.75,3.345 C59.851,4.636 75,20.577 75,40 C75,60.264 58.514,76.75 38.25,76.75 M48.83,3.25 L72.676,3.25 C72.957,3.84 73.553,4.25 74.25,4.25 C75.219,4.25 76,3.467 76,2.5 C76,1.533 75.219,0.75 74.25,0.75 C73.553,0.75 72.957,1.16 72.676,1.75 L40.75,1.75 L40.75,0 L35.75,0 L35.75,1.75 L3.826,1.75 C3.545,1.16 2.949,0.75 2.25,0.75 C1.283,0.75 0.5,1.533 0.5,2.5 C0.5,3.467 1.283,4.25 2.25,4.25 C2.949,4.25 3.545,3.84 3.826,3.25 L27.67,3.25 C11.711,7.852 0,22.58 0,40 C0,61.091 17.159,78.25 38.25,78.25 C59.341,78.25 76.5,61.091 76.5,40 C76.5,22.58 64.789,7.852 48.83,3.25" id="Fill-1" fill="#7F88A5"></path>
            <path d="M55.0156,29.9004 L52.4596,32.4564 L47.8646,27.8594 L50.4196,25.3034 C50.6196,25.1044 51.0336,24.8904 51.5966,24.8904 C52.1426,24.8904 52.9946,25.0924 53.9566,26.0554 C54.8736,26.9714 55.1516,27.9154 55.2236,28.5464 C55.3136,29.3314 55.1026,29.8134 55.0156,29.9004 Z M31.6006,53.3154 L29.3026,51.0174 L27.0046,48.7184 L46.8036,28.9204 L51.3996,33.5164 L31.6006,53.3154 Z M53.5926,55.4314 C53.9076,55.7454 54.2446,56.3284 54.2456,56.8684 C54.2456,57.1464 54.1536,57.3754 53.9606,57.5674 C53.2306,58.2954 52.0316,57.4054 51.7886,57.1664 L40.1326,46.9044 L43.2986,43.7384 L53.5926,55.4314 Z M22.5576,57.8104 C23.1066,56.2764 24.6056,53.0544 26.1466,49.9814 L28.2476,52.0834 L30.3406,54.1764 C27.2836,55.7254 24.0836,57.2384 22.5576,57.8104 Z M28.5176,36.6794 L28.7596,35.7474 C29.9466,35.2934 31.0626,34.4534 31.7796,33.3954 C32.0546,32.9904 32.2536,32.5684 32.3926,32.1404 L33.0266,32.0694 L37.0096,36.5934 L32.9886,40.6154 L28.5176,36.6794 Z M26.9126,34.6204 C26.6516,34.6204 26.4116,34.5824 26.2016,34.5074 C23.6296,33.6044 22.4156,31.4344 21.8496,29.7734 C21.0896,27.5424 21.0716,24.9134 21.7266,22.9624 C22.2446,24.0834 23.0366,25.4474 24.2046,25.8874 C24.8646,26.1374 25.6196,26.2944 26.4196,26.4614 C27.2676,26.6364 28.1446,26.8194 28.8966,27.1174 C29.9166,27.5214 30.6896,29.1934 30.9136,29.8364 C31.3626,30.9624 30.9566,31.9354 30.5376,32.5534 C29.7266,33.7514 28.2026,34.6204 26.9126,34.6204 Z M56.7136,28.3764 C56.6156,27.5074 56.2406,26.2164 55.0176,24.9954 C53.6916,23.6694 52.4256,23.3904 51.5966,23.3904 C50.7166,23.3904 49.9016,23.7014 49.3596,24.2434 L38.0716,35.5314 L33.8936,30.7854 C33.7326,30.6004 33.4816,30.5084 33.2466,30.5354 L32.5976,30.6084 C32.5746,30.1704 32.4866,29.7344 32.3196,29.3144 C32.2196,29.0234 31.2886,26.4524 29.4496,25.7224 C28.5776,25.3774 27.6356,25.1814 26.7256,24.9924 C25.9846,24.8384 25.2846,24.6924 24.7346,24.4844 C23.8296,24.1434 23.0556,22.2864 22.7246,21.4934 C22.4626,20.8654 22.2886,20.4504 21.7446,20.4504 L21.3246,20.4594 L21.1026,20.7994 C19.5986,23.1134 19.3226,27.0024 20.4296,30.2564 C21.3806,33.0494 23.2536,35.0624 25.7036,35.9234 C26.0746,36.0534 26.4816,36.1204 26.9126,36.1204 C26.9806,36.1204 27.0486,36.1074 27.1176,36.1044 L26.9496,36.7484 C26.8776,37.0224 26.9666,37.3134 27.1796,37.5004 L31.9256,41.6774 L25.4136,48.1884 C25.3766,48.2254 25.2886,48.3524 25.2766,48.3784 C20.1806,58.3794 20.6896,58.8874 21.0966,59.2964 C21.2126,59.4114 21.4206,59.5494 21.7556,59.5494 C23.0706,59.5494 29.8856,56.1004 31.9436,55.0434 C31.9666,55.0314 32.0936,54.9434 32.1306,54.9064 L39.0706,47.9664 L50.7636,58.2584 C51.3506,58.8454 52.3106,59.3544 53.2736,59.3544 C53.8866,59.3544 54.4996,59.1494 55.0216,58.6284 C55.4956,58.1534 55.7456,57.5454 55.7456,56.8674 C55.7446,55.8284 55.1566,54.8724 54.6846,54.4054 L44.3606,42.6764 L56.0766,30.9614 C56.5926,30.4454 56.8366,29.4544 56.7136,28.3764 Z" id="Fill-3" fill="#2F41C9"></path>
        </g>
    </g>
</svg>