<?xml version="1.0" encoding="UTF-8"?>
<svg width="80px" height="80px" viewBox="0 0 80 80" version="1.1" xmlns="http://www.w3.org/2000/svg" xmlns:xlink="http://www.w3.org/1999/xlink">
    <title>icon-ux</title>
    <desc></desc>
    <defs></defs>
    <g id="icon-ux" stroke="none" stroke-width="1" fill="none" fill-rule="evenodd">
        <g id="icon-ux-group" transform="translate(2.000000, 2.000000)">
            <path d="M68.7598,8.1015 L28.0688,8.1015 C27.6548,8.1015 27.3188,7.7655 27.3188,7.3515 C27.3188,6.9375 27.6548,6.6015 28.0688,6.6015 L68.7598,6.6015 C69.1738,6.6015 69.5098,6.9375 69.5098,7.3515 C69.5098,7.7655 69.1738,8.1015 68.7598,8.1015" id="Fill-1" fill="#7F88A5"></path>
            <path d="M73.75,74.0107 L2.75,74.0107 C2.061,74.0107 1.5,73.4497 1.5,72.7607 L1.5,14.3527 L75,14.3527 L75,72.7607 C75,73.4497 74.439,74.0107 73.75,74.0107 M2.75,1.4997 L73.75,1.4997 C74.439,1.4997 75,2.0607 75,2.7497 L75,12.8527 L1.5,12.8527 L1.5,2.7497 C1.5,2.0607 2.061,1.4997 2.75,1.4997 M73.75,-0.0003 L2.75,-0.0003 C1.233,-0.0003 0,1.2337 0,2.7497 L0,72.7607 C0,74.2777 1.233,75.5107 2.75,75.5107 L73.75,75.5107 C75.267,75.5107 76.5,74.2777 76.5,72.7607 L76.5,2.7497 C76.5,1.2337 75.267,-0.0003 73.75,-0.0003" id="Fill-3" fill="#7F88A5"></path>
            <path d="M8.4121,6.5586 C7.9741,6.5586 7.6171,6.9136 7.6171,7.3516 C7.6171,7.7886 7.9741,8.1446 8.4121,8.1446 C8.8491,8.1446 9.2051,7.7886 9.2051,7.3516 C9.2051,6.9136 8.8491,6.5586 8.4121,6.5586 M8.4121,9.6446 C7.1461,9.6446 6.1171,8.6166 6.1171,7.3516 C6.1171,6.0866 7.1461,5.0586 8.4121,5.0586 C9.6771,5.0586 10.7051,6.0866 10.7051,7.3516 C10.7051,8.6166 9.6771,9.6446 8.4121,9.6446" id="Fill-5" fill="#7F88A5"></path>
            <path d="M14.8672,6.5586 C14.4302,6.5586 14.0742,6.9136 14.0742,7.3516 C14.0742,7.7886 14.4302,8.1446 14.8672,8.1446 C15.3042,8.1446 15.6602,7.7886 15.6602,7.3516 C15.6602,6.9136 15.3042,6.5586 14.8672,6.5586 M14.8672,9.6446 C13.6022,9.6446 12.5742,8.6166 12.5742,7.3516 C12.5742,6.0866 13.6022,5.0586 14.8672,5.0586 C16.1322,5.0586 17.1602,6.0866 17.1602,7.3516 C17.1602,8.6166 16.1322,9.6446 14.8672,9.6446" id="Fill-7" fill="#7F88A5"></path>
            <path d="M21.3242,6.5586 C20.8872,6.5586 20.5312,6.9136 20.5312,7.3516 C20.5312,7.7886 20.8872,8.1446 21.3242,8.1446 C21.7612,8.1446 22.1172,7.7886 22.1172,7.3516 C22.1172,6.9136 21.7612,6.5586 21.3242,6.5586 M21.3242,9.6446 C20.0592,9.6446 19.0312,8.6166 19.0312,7.3516 C19.0312,6.0866 20.0592,5.0586 21.3242,5.0586 C22.5892,5.0586 23.6172,6.0866 23.6172,7.3516 C23.6172,8.6166 22.5892,9.6446 21.3242,9.6446" id="Fill-9" fill="#7F88A5"></path>
            <path d="M44.947,34.6687 L65.902,34.6687 L65.902,27.5017 L44.947,27.5017 L44.947,34.6687 Z M66.652,36.1687 L44.197,36.1687 C43.783,36.1687 43.447,35.8327 43.447,35.4187 L43.447,26.7517 C43.447,26.3377 43.783,26.0017 44.197,26.0017 L66.652,26.0017 C67.066,26.0017 67.402,26.3377 67.402,26.7517 L67.402,35.4187 C67.402,35.8327 67.066,36.1687 66.652,36.1687 Z" id="Fill-11" fill="#7F88A5"></path>
            <path d="M44.947,48.5017 L65.902,48.5017 L65.902,41.3357 L44.947,41.3357 L44.947,48.5017 Z M66.652,50.0017 L44.197,50.0017 C43.783,50.0017 43.447,49.6657 43.447,49.2517 L43.447,40.5857 C43.447,40.1717 43.783,39.8357 44.197,39.8357 L66.652,39.8357 C67.066,39.8357 67.402,40.1717 67.402,40.5857 L67.402,49.2517 C67.402,49.6657 67.066,50.0017 66.652,50.0017 Z" id="Fill-13" fill="#7F88A5"></path>
            <path d="M44.947,62.3357 L65.902,62.3357 L65.902,55.1687 L44.947,55.1687 L44.947,62.3357 Z M66.652,63.8357 L44.197,63.8357 C43.783,63.8357 43.447,63.4997 43.447,63.0857 L43.447,54.4187 C43.447,54.0047 43.783,53.6687 44.197,53.6687 L66.652,53.6687 C67.066,53.6687 67.402,54.0047 67.402,54.4187 L67.402,63.0857 C67.402,63.4997 67.066,63.8357 66.652,63.8357 Z" id="Fill-14" fill="#7F88A5"></path>
            <path d="M10.598,51.6657 L26.02,51.6657 L26.02,38.1717 L10.598,38.1717 L10.598,51.6657 Z M39.219,45.6687 C39.633,45.6687 39.969,45.3327 39.969,44.9187 C39.969,44.5047 39.633,44.1687 39.219,44.1687 L34.008,44.1687 L34.008,31.8357 L39.219,31.8357 C39.633,31.8357 39.969,31.4997 39.969,31.0857 C39.969,30.6717 39.633,30.3357 39.219,30.3357 L33.258,30.3357 C32.844,30.3357 32.508,30.6717 32.508,31.0857 L32.508,44.1687 L27.52,44.1687 L27.52,37.4217 C27.52,37.0077 27.184,36.6717 26.77,36.6717 L9.848,36.6717 C9.434,36.6717 9.098,37.0077 9.098,37.4217 L9.098,52.4157 C9.098,52.8297 9.434,53.1657 9.848,53.1657 L26.77,53.1657 C27.184,53.1657 27.52,52.8297 27.52,52.4157 L27.52,45.6687 L32.508,45.6687 L32.508,58.7517 C32.508,59.1657 32.844,59.5017 33.258,59.5017 L39.219,59.5017 C39.633,59.5017 39.969,59.1657 39.969,58.7517 C39.969,58.3377 39.633,58.0017 39.219,58.0017 L34.008,58.0017 L34.008,45.6687 L39.219,45.6687 Z" id="Fill-15" fill="#2F41C9"></path>
        </g>
    </g>
</svg>