<?xml version="1.0" encoding="UTF-8"?>
<svg width="80px" height="80px" viewBox="0 0 80 80" version="1.1" xmlns="http://www.w3.org/2000/svg" xmlns:xlink="http://www.w3.org/1999/xlink">
    <!-- Generator: Sketch 51.2 (57519) - http://www.bohemiancoding.com/sketch -->
    <title>icon-rem</title>
    <desc>Created with Sketch.</desc>
    <defs></defs>
    <g id="icon-rem" stroke="none" stroke-width="1" fill="none" fill-rule="evenodd">
        <g id="icon-rem-group" transform="translate(2.000000, 2.000000)">
            <path d="M22.5547,13.9697 C23.7957,13.9697 24.7667,14.3447 25.4407,15.0837 C26.8637,16.6487 26.6057,19.3707 26.3577,22.0047 C26.2277,23.3797 26.1047,24.6787 26.2617,25.5677 C27.2147,30.9437 29.6667,33.0457 34.1537,35.2497 L34.4087,35.3757 C34.3037,35.2937 34.2007,35.2097 34.0967,35.1227 C32.3467,33.6477 31.5537,32.2447 31.7417,30.9537 C31.8977,29.8767 32.7187,29.0057 34.1837,28.3657 C34.8897,28.0567 35.5047,27.9077 36.0637,27.9077 C37.5507,27.9077 38.2577,28.9677 38.7737,29.7417 C38.9057,29.9397 39.0217,30.1117 39.1337,30.2577 C39.9977,26.6957 47.0797,21.2387 48.0267,20.5237 C48.2907,20.3227 48.6027,20.0957 48.9427,19.8467 C50.8107,18.4847 54.6987,15.6477 54.3977,13.9737 C54.2517,13.1637 52.9827,12.6457 51.9437,12.3527 C45.9487,10.6647 38.2167,8.7367 31.3607,8.7367 C27.4127,8.7367 24.1527,9.3837 21.6687,10.6587 C19.6797,11.6807 18.9637,12.8767 19.0897,13.4017 C19.2107,13.9047 20.2807,14.1757 21.7917,14.0117 C22.0617,13.9837 22.3157,13.9697 22.5547,13.9697 M38.3767,37.4447 C39.0477,37.8137 39.7077,38.1857 40.3557,38.5617 C42.2457,39.6567 41.5807,41.5267 41.0957,42.8907 C40.8027,43.7147 40.4997,44.5667 40.6587,45.2047 C41.1017,47.0057 42.2867,48.2507 43.5417,49.5687 C45.2547,51.3657 47.0257,53.2247 46.8697,56.5187 C46.8427,57.1107 46.7617,57.8247 46.6687,58.6537 C46.3257,61.6997 45.8197,66.1917 47.8257,67.7407 C48.5027,66.6727 48.9507,65.4717 49.4227,64.2117 C50.0837,62.4417 50.7687,60.6107 52.1547,59.0007 C52.6687,58.4037 53.1907,57.8227 53.7087,57.2437 C55.2387,55.5387 56.6817,53.9287 57.8817,52.0117 C59.0247,50.1887 61.1517,46.7947 60.0487,44.6047 C59.6097,43.7307 57.7777,43.3037 56.1607,42.9277 C54.6997,42.5867 53.1867,42.2347 52.1967,41.5037 C49.5027,39.5207 46.4147,39.0207 43.4277,38.5367 C41.7437,38.2647 40.0307,37.9877 38.3767,37.4447 M48.0487,69.4887 C47.9477,69.4887 47.8457,69.4677 47.7477,69.4257 C44.1237,67.8397 44.7577,62.2107 45.1777,58.4857 C45.2687,57.6837 45.3467,56.9907 45.3717,56.4487 C45.4967,53.7947 44.0877,52.3157 42.4557,50.6037 C41.1207,49.2007 39.7407,47.7517 39.2007,45.5647 C38.9367,44.4887 39.3327,43.3717 39.6827,42.3887 C40.2497,40.7927 40.3087,40.2677 39.6027,39.8587 C37.6657,38.7357 35.6107,37.6377 33.4917,36.5957 C28.7757,34.2797 25.8387,31.7747 24.7847,25.8287 C24.5917,24.7407 24.7237,23.3427 24.8637,21.8637 C25.0717,19.6617 25.3077,17.1667 24.3307,16.0937 C23.8597,15.5747 23.0787,15.3787 21.9507,15.5037 C18.5447,15.8617 17.7797,14.3617 17.6317,13.7527 C17.2787,12.2897 18.5937,10.5517 20.9837,9.3247 C23.6817,7.9397 27.1727,7.2367 31.3607,7.2367 C37.7967,7.2367 44.9217,8.8737 50.7297,10.4587 C50.7527,10.4637 50.7827,10.4707 50.8227,10.4807 L50.8237,10.4797 L51.2257,10.5927 L51.2267,10.5927 L52.3297,10.9037 C52.3297,10.9037 52.3307,10.9037 52.3317,10.9047 C52.3327,10.9047 52.3347,10.9047 52.3357,10.9057 C54.4947,11.5157 55.6447,12.4297 55.8737,13.7077 C56.3407,16.3067 52.4207,19.1657 49.8257,21.0587 C49.4937,21.3017 49.1907,21.5237 48.9307,21.7197 C43.9827,25.4627 39.8567,30.1277 40.5997,31.1387 C40.7717,31.3707 40.7937,31.6807 40.6587,31.9357 C40.5227,32.1907 40.2617,32.3457 39.9647,32.3317 C38.6597,32.2777 38.0317,31.3327 37.5257,30.5737 C37.0297,29.8287 36.7157,29.4077 36.0637,29.4077 C35.7207,29.4077 35.2897,29.5187 34.7847,29.7407 C34.1257,30.0287 33.3217,30.5097 33.2257,31.1697 C33.1217,31.8817 33.7917,32.9047 35.0637,33.9757 C37.5457,36.0657 40.5197,36.5467 43.6667,37.0567 C46.8297,37.5687 50.1007,38.0977 53.0847,40.2967 C53.8277,40.8427 55.1877,41.1597 56.5017,41.4667 C58.5337,41.9397 60.6337,42.4297 61.3887,43.9307 C62.8707,46.8747 60.4517,50.7347 59.1537,52.8087 C57.8847,54.8337 56.3297,56.5687 54.8257,58.2447 C54.3137,58.8167 53.7987,59.3897 53.2907,59.9797 C52.0787,61.3867 51.4717,63.0137 50.8267,64.7377 C50.2617,66.2517 49.6767,67.8177 48.6497,69.1887 C48.5037,69.3817 48.2797,69.4887 48.0487,69.4887" id="Fill-1" fill="#7F88A5"></path>
            <path d="M38.4219,0 C17.3309,0 0.1719,17.159 0.1719,38.25 C0.1719,40.561 0.3889,42.819 0.7829,45.018 C1.0859,44.143 1.4689,43.307 1.9279,42.518 C1.7649,41.116 1.6719,39.694 1.6719,38.25 C1.6719,17.986 18.1579,1.5 38.4219,1.5 C58.6859,1.5 75.1719,17.986 75.1719,38.25 C75.1719,58.514 58.6859,75 38.4219,75 C31.7019,75 25.4019,73.178 19.9779,70.016 C19.7029,70.452 19.4299,70.87 19.1599,71.275 C24.8219,74.59 31.4009,76.5 38.4219,76.5 C59.5129,76.5 76.6719,59.341 76.6719,38.25 C76.6719,17.159 59.5129,0 38.4219,0" id="Fill-3" fill="#7F88A5"></path>
            <path d="M18.5977,69.1699 C18.3227,69.6089 18.0507,70.0269 17.7857,70.4309 C16.1427,72.9299 14.7657,74.6859 14.1927,74.9809 C11.9267,74.0129 1.4997,56.6249 1.4997,49.6299 C1.4997,49.2279 1.5237,48.8309 1.5607,48.4389 C1.6677,47.2889 1.9377,46.1899 2.3307,45.1499 C4.1477,40.3519 8.7777,36.9239 14.2047,36.9239 C21.2117,36.9239 26.9117,42.6239 26.9117,49.6299 C26.9117,54.3529 22.3247,63.2599 18.5977,69.1699 M14.2047,35.4239 C8.9647,35.4239 4.3897,38.2829 1.9277,42.5179 C1.4687,43.3069 1.0857,44.1429 0.7837,45.0179 C0.2847,46.4669 -0.0003,48.0139 -0.0003,49.6299 C-0.0003,54.5939 4.5727,63.2909 5.9737,65.8379 C6.9527,67.6179 11.9527,76.4999 14.2047,76.4999 C15.2167,76.4999 17.0937,74.3749 19.1597,71.2749 C19.4297,70.8699 19.7027,70.4519 19.9777,70.0159 C24.0107,63.6159 28.4117,54.1539 28.4117,49.6299 C28.4117,41.7969 22.0387,35.4239 14.2047,35.4239" id="Fill-5" fill="#2F41C9"></path>
            <path d="M14.2051,53.8799 C11.8621,53.8799 9.9571,51.9739 9.9571,49.6299 C9.9571,47.2869 11.8621,45.3809 14.2051,45.3809 C16.5501,45.3809 18.4571,47.2869 18.4571,49.6299 C18.4571,51.9739 16.5501,53.8799 14.2051,53.8799 M14.2051,43.8809 C11.0351,43.8809 8.4571,46.4599 8.4571,49.6299 C8.4571,52.8009 11.0351,55.3799 14.2051,55.3799 C17.3771,55.3799 19.9571,52.8009 19.9571,49.6299 C19.9571,46.4599 17.3771,43.8809 14.2051,43.8809" id="Fill-8" fill="#2F41C9"></path>
        </g>
    </g>
</svg>