<?xml version="1.0" encoding="UTF-8"?>
<svg width="131px" height="26px" viewBox="0 0 131 26" version="1.1" xmlns="http://www.w3.org/2000/svg" xmlns:xlink="http://www.w3.org/1999/xlink">
    <!-- Generator: Sketch 49.2 (51160) - http://www.bohemiancoding.com/sketch -->
    <title>OH-title</title>
    <desc>Created with Sketch.</desc>
    <defs></defs>
    <g id="OH-title" stroke="none" stroke-width="1" fill="none" fill-rule="evenodd">
        <g id="oh-title-inner" transform="translate(-5.000000, 1.000000)" fill-rule="nonzero">
            <rect id="Rectangle-path" fill="#FFFFFF" x="0" y="0" width="140" height="24.999"></rect>
            <g id="Group" transform="translate(5.000000, 3.000000)" fill="#7F88A5">
                <path d="M2.483,17.812 C1.709,17.387 1.108,16.791 0.683,16.024 C0.258,15.258 0.045,14.374 0.045,13.374 L0.045,5.65 C0.045,4.65 0.258,3.763 0.683,2.987 C1.108,2.212 1.708,1.612 2.483,1.187 C3.259,0.763 4.154,0.55 5.171,0.55 C6.188,0.55 7.084,0.763 7.859,1.188 C8.634,1.613 9.238,2.213 9.671,2.988 C10.105,3.763 10.321,4.651 10.321,5.651 L10.321,13.376 C10.321,14.376 10.104,15.26 9.671,16.026 C9.237,16.793 8.634,17.389 7.859,17.814 C7.085,18.239 6.188,18.452 5.171,18.452 C4.154,18.452 3.259,18.237 2.483,17.812 Z M7.621,15.95 C8.237,15.317 8.546,14.483 8.546,13.45 L8.546,5.6 C8.546,4.55 8.237,3.704 7.621,3.062 C7.005,2.42 6.188,2.1 5.171,2.1 C4.171,2.1 3.362,2.421 2.746,3.062 C2.13,3.703 1.821,4.55 1.821,5.6 L1.821,13.45 C1.821,14.483 2.13,15.317 2.746,15.95 C3.362,16.583 4.171,16.9 5.171,16.9 C6.188,16.9 7.005,16.583 7.621,15.95 Z" id="Shape"></path>
                <path d="M22.733,2.062 C23.558,2.954 23.97,4.133 23.97,5.6 C23.97,7.05 23.558,8.212 22.733,9.087 C21.908,9.962 20.829,10.4 19.496,10.4 L15.77,10.4 C15.704,10.4 15.67,10.434 15.67,10.5 L15.67,18 C15.67,18.167 15.586,18.25 15.42,18.25 L14.145,18.25 C13.979,18.25 13.895,18.167 13.895,18 L13.895,0.975 C13.895,0.808 13.979,0.725 14.145,0.725 L19.496,0.725 C20.829,0.725 21.908,1.171 22.733,2.062 Z M21.396,8.025 C21.929,7.425 22.197,6.625 22.197,5.625 C22.197,4.608 21.929,3.796 21.396,3.187 C20.863,2.578 20.155,2.274 19.271,2.274 L15.771,2.274 C15.705,2.274 15.671,2.308 15.671,2.374 L15.671,8.824 C15.671,8.89 15.704,8.924 15.771,8.924 L19.271,8.924 C20.154,8.925 20.862,8.625 21.396,8.025 Z" id="Shape"></path>
                <path d="M36.296,2.3 L28.796,2.3 C28.729,2.3 28.695,2.334 28.695,2.4 L28.695,8.6 C28.695,8.667 28.728,8.7 28.796,8.7 L33.846,8.7 C34.012,8.7 34.096,8.783 34.096,8.95 L34.096,10 C34.096,10.167 34.012,10.25 33.846,10.25 L28.796,10.25 C28.729,10.25 28.695,10.284 28.695,10.35 L28.695,16.6 C28.695,16.667 28.728,16.7 28.796,16.7 L36.296,16.7 C36.462,16.7 36.546,16.783 36.546,16.95 L36.546,18 C36.546,18.167 36.462,18.25 36.296,18.25 L27.171,18.25 C27.004,18.25 26.921,18.167 26.921,18 L26.921,1 C26.921,0.833 27.004,0.75 27.171,0.75 L36.296,0.75 C36.462,0.75 36.546,0.833 36.546,1 L36.546,2.05 C36.546,2.217 36.462,2.3 36.296,2.3 Z" id="Shape"></path>
                <path d="M39.846,18 L39.846,1 C39.846,0.833 39.929,0.75 40.096,0.75 L41.37,0.75 C41.52,0.75 41.62,0.809 41.671,0.925 L48.396,14.1 C48.429,14.134 48.458,14.15 48.484,14.15 C48.508,14.15 48.521,14.125 48.521,14.075 L48.521,1 C48.521,0.833 48.604,0.75 48.771,0.75 L50.046,0.75 C50.212,0.75 50.296,0.833 50.296,1 L50.296,18 C50.296,18.167 50.212,18.25 50.046,18.25 L48.745,18.25 C48.596,18.25 48.495,18.192 48.445,18.075 L41.721,4.85 C41.687,4.817 41.659,4.804 41.633,4.812 C41.608,4.821 41.596,4.85 41.596,4.9 L41.62,18 C41.62,18.167 41.537,18.25 41.37,18.25 L40.096,18.25 C39.929,18.25 39.846,18.167 39.846,18 Z" id="Shape"></path>
                <path d="M62.846,0.75 L64.121,0.75 C64.287,0.75 64.371,0.833 64.371,1 L64.371,18 C64.371,18.167 64.287,18.25 64.121,18.25 L62.846,18.25 C62.679,18.25 62.596,18.167 62.596,18 L62.596,10.35 C62.596,10.284 62.563,10.25 62.496,10.25 L56.296,10.25 C56.229,10.25 56.195,10.284 56.195,10.35 L56.195,18 C56.195,18.167 56.112,18.25 55.945,18.25 L54.671,18.25 C54.504,18.25 54.421,18.167 54.421,18 L54.421,1 C54.421,0.833 54.504,0.75 54.671,0.75 L55.945,0.75 C56.112,0.75 56.195,0.833 56.195,1 L56.195,8.6 C56.195,8.667 56.228,8.7 56.296,8.7 L62.496,8.7 C62.562,8.7 62.596,8.667 62.596,8.6 L62.596,1 C62.596,0.833 62.679,0.75 62.846,0.75 Z" id="Shape"></path>
                <path d="M77.771,2.3 L70.271,2.3 C70.204,2.3 70.17,2.334 70.17,2.4 L70.17,8.6 C70.17,8.667 70.203,8.7 70.271,8.7 L75.321,8.7 C75.487,8.7 75.571,8.783 75.571,8.95 L75.571,10 C75.571,10.167 75.487,10.25 75.321,10.25 L70.271,10.25 C70.204,10.25 70.17,10.284 70.17,10.35 L70.17,16.6 C70.17,16.667 70.203,16.7 70.271,16.7 L77.771,16.7 C77.937,16.7 78.021,16.783 78.021,16.95 L78.021,18 C78.021,18.167 77.937,18.25 77.771,18.25 L68.646,18.25 C68.479,18.25 68.396,18.167 68.396,18 L68.396,1 C68.396,0.833 68.479,0.75 68.646,0.75 L77.771,0.75 C77.937,0.75 78.021,0.833 78.021,1 L78.021,2.05 C78.021,2.217 77.937,2.3 77.771,2.3 Z" id="Shape"></path>
                <path d="M90.12,18.025 L89.295,14.9 C89.278,14.85 89.236,14.825 89.17,14.825 L83.195,14.825 C83.128,14.825 83.086,14.85 83.07,14.9 L82.245,18.025 C82.211,18.175 82.12,18.25 81.97,18.25 L80.67,18.25 C80.586,18.25 80.524,18.225 80.482,18.175 C80.44,18.125 80.427,18.059 80.445,17.975 L85.094,0.975 C85.127,0.825 85.219,0.75 85.369,0.75 L86.969,0.75 C87.119,0.75 87.21,0.825 87.244,0.975 L91.919,17.975 L91.944,18.05 C91.944,18.184 91.86,18.25 91.694,18.25 L90.393,18.25 C90.245,18.25 90.153,18.175 90.12,18.025 Z M83.508,13.337 C83.532,13.362 83.562,13.375 83.595,13.375 L88.77,13.375 C88.803,13.375 88.832,13.362 88.858,13.337 C88.884,13.312 88.887,13.292 88.871,13.275 L86.246,3.275 C86.229,3.242 86.212,3.225 86.196,3.225 C86.178,3.225 86.162,3.242 86.145,3.275 L83.496,13.275 C83.479,13.292 83.482,13.312 83.508,13.337 Z" id="Shape"></path>
                <path d="M94.896,18 L94.896,1 C94.896,0.833 94.979,0.75 95.146,0.75 L96.42,0.75 C96.587,0.75 96.67,0.833 96.67,1 L96.67,16.6 C96.67,16.667 96.703,16.7 96.771,16.7 L104.045,16.7 C104.212,16.7 104.295,16.783 104.295,16.95 L104.295,18 C104.295,18.167 104.212,18.25 104.045,18.25 L95.146,18.25 C94.979,18.25 94.896,18.167 94.896,18 Z" id="Shape"></path>
                <path d="M115.444,1 L115.444,2.05 C115.444,2.217 115.361,2.3 115.194,2.3 L111.119,2.3 C111.053,2.3 111.019,2.334 111.019,2.4 L111.019,18 C111.019,18.167 110.935,18.25 110.769,18.25 L109.494,18.25 C109.328,18.25 109.244,18.167 109.244,18 L109.244,2.4 C109.244,2.334 109.211,2.3 109.144,2.3 L105.219,2.3 C105.052,2.3 104.969,2.217 104.969,2.05 L104.969,1 C104.969,0.833 105.052,0.75 105.219,0.75 L115.194,0.75 C115.361,0.75 115.444,0.833 115.444,1 Z" id="Shape"></path>
                <path d="M126.92,0.75 L128.195,0.75 C128.361,0.75 128.445,0.833 128.445,1 L128.445,18 C128.445,18.167 128.361,18.25 128.195,18.25 L126.92,18.25 C126.753,18.25 126.67,18.167 126.67,18 L126.67,10.35 C126.67,10.284 126.637,10.25 126.57,10.25 L120.37,10.25 C120.303,10.25 120.269,10.284 120.269,10.35 L120.269,18 C120.269,18.167 120.186,18.25 120.019,18.25 L118.745,18.25 C118.578,18.25 118.495,18.167 118.495,18 L118.495,1 C118.495,0.833 118.578,0.75 118.745,0.75 L120.019,0.75 C120.186,0.75 120.269,0.833 120.269,1 L120.269,8.6 C120.269,8.667 120.302,8.7 120.37,8.7 L126.57,8.7 C126.636,8.7 126.67,8.667 126.67,8.6 L126.67,1 C126.67,0.833 126.753,0.75 126.92,0.75 Z" id="Shape"></path>
            </g>
        </g>
    </g>
</svg>