<?xml version="1.0" encoding="UTF-8"?>
<svg width="159px" height="26px" viewBox="0 0 159 26" version="1.1" xmlns="http://www.w3.org/2000/svg" xmlns:xlink="http://www.w3.org/1999/xlink">
    <!-- Generator: Sketch 49.2 (51160) - http://www.bohemiancoding.com/sketch -->
    <title>PV-title</title>
    <desc>Created with Sketch.</desc>
    <defs></defs>
    <g id="PV-title" stroke="none" stroke-width="1" fill="none" fill-rule="evenodd">
        <g id="pv-title-inner" transform="translate(-4.000000, 1.000000)" fill-rule="nonzero">
            <rect id="Rectangle-path" fill="#FFFFFF" x="0" y="0" width="167" height="24.999"></rect>
            <g id="Group" transform="translate(4.000000, 3.000000)" fill="#7F88A5">
                <path d="M9.301,2.062 C10.126,2.954 10.538,4.133 10.538,5.6 C10.538,7.05 10.126,8.212 9.301,9.087 C8.476,9.962 7.396,10.4 6.063,10.4 L2.338,10.4 C2.272,10.4 2.238,10.434 2.238,10.5 L2.238,18 C2.238,18.167 2.154,18.25 1.988,18.25 L0.713,18.25 C0.547,18.25 0.463,18.167 0.463,18 L0.463,0.975 C0.463,0.808 0.547,0.725 0.713,0.725 L6.064,0.725 C7.396,0.725 8.476,1.171 9.301,2.062 Z M7.963,8.025 C8.496,7.425 8.764,6.625 8.764,5.625 C8.764,4.608 8.496,3.796 7.963,3.187 C7.43,2.578 6.722,2.274 5.838,2.274 L2.338,2.274 C2.272,2.274 2.238,2.308 2.238,2.374 L2.238,8.824 C2.238,8.89 2.271,8.924 2.338,8.924 L5.838,8.924 C6.722,8.925 7.43,8.625 7.963,8.025 Z" id="Shape"></path>
                <path d="M15.751,17.8 C14.976,17.367 14.376,16.759 13.95,15.975 C13.525,15.192 13.313,14.284 13.313,13.25 L13.313,1 C13.313,0.833 13.396,0.75 13.563,0.75 L14.837,0.75 C15.004,0.75 15.087,0.833 15.087,1 L15.087,13.35 C15.087,14.417 15.396,15.275 16.012,15.925 C16.629,16.575 17.438,16.9 18.438,16.9 C19.438,16.9 20.246,16.575 20.863,15.925 C21.479,15.275 21.788,14.417 21.788,13.35 L21.788,1 C21.788,0.833 21.871,0.75 22.038,0.75 L23.313,0.75 C23.479,0.75 23.563,0.833 23.563,1 L23.563,13.25 C23.563,14.284 23.35,15.192 22.925,15.975 C22.5,16.759 21.9,17.367 21.125,17.8 C20.35,18.234 19.453,18.45 18.437,18.45 C17.421,18.45 16.525,18.233 15.751,17.8 Z" id="Shape"></path>
                <path d="M27.363,18 L27.363,1 C27.363,0.833 27.446,0.75 27.613,0.75 L28.887,0.75 C29.037,0.75 29.137,0.809 29.188,0.925 L35.913,14.1 C35.946,14.134 35.975,14.15 36.001,14.15 C36.025,14.15 36.038,14.125 36.038,14.075 L36.038,1 C36.038,0.833 36.121,0.75 36.288,0.75 L37.563,0.75 C37.729,0.75 37.813,0.833 37.813,1 L37.813,18 C37.813,18.167 37.729,18.25 37.563,18.25 L36.262,18.25 C36.113,18.25 36.012,18.192 35.962,18.075 L29.238,4.85 C29.204,4.817 29.176,4.804 29.15,4.812 C29.126,4.821 29.113,4.85 29.113,4.9 L29.138,18 C29.138,18.167 29.055,18.25 28.888,18.25 L27.614,18.25 C27.446,18.25 27.363,18.167 27.363,18 Z" id="Shape"></path>
                <path d="M51.288,1 L51.288,2.05 C51.288,2.217 51.205,2.3 51.038,2.3 L46.963,2.3 C46.897,2.3 46.863,2.334 46.863,2.4 L46.863,18 C46.863,18.167 46.779,18.25 46.613,18.25 L45.338,18.25 C45.172,18.25 45.088,18.167 45.088,18 L45.088,2.4 C45.088,2.334 45.055,2.3 44.988,2.3 L41.063,2.3 C40.896,2.3 40.813,2.217 40.813,2.05 L40.813,1 C40.813,0.833 40.896,0.75 41.063,0.75 L51.038,0.75 C51.205,0.75 51.288,0.833 51.288,1 Z" id="Shape"></path>
                <path d="M61.713,18.025 L60.888,14.9 C60.871,14.85 60.829,14.825 60.763,14.825 L54.788,14.825 C54.721,14.825 54.679,14.85 54.663,14.9 L53.838,18.025 C53.804,18.175 53.713,18.25 53.563,18.25 L52.263,18.25 C52.179,18.25 52.117,18.225 52.075,18.175 C52.033,18.125 52.02,18.059 52.038,17.975 L56.687,0.975 C56.72,0.825 56.812,0.75 56.962,0.75 L58.562,0.75 C58.712,0.75 58.803,0.825 58.837,0.975 L63.512,17.975 L63.537,18.05 C63.537,18.184 63.453,18.25 63.287,18.25 L61.986,18.25 C61.838,18.25 61.746,18.175 61.713,18.025 Z M55.101,13.337 C55.125,13.362 55.155,13.375 55.188,13.375 L60.363,13.375 C60.396,13.375 60.425,13.362 60.451,13.337 C60.477,13.312 60.48,13.292 60.464,13.275 L57.839,3.275 C57.822,3.242 57.805,3.225 57.789,3.225 C57.771,3.225 57.755,3.242 57.738,3.275 L55.089,13.275 C55.071,13.292 55.075,13.312 55.101,13.337 Z" id="Shape"></path>
                <path d="M74.863,18.025 L70.313,1.025 L70.288,0.95 C70.288,0.817 70.371,0.75 70.538,0.75 L71.888,0.75 C72.055,0.75 72.147,0.825 72.163,0.975 L75.813,15.275 C75.829,15.309 75.846,15.325 75.863,15.325 C75.88,15.325 75.896,15.308 75.913,15.275 L79.563,0.975 C79.596,0.825 79.688,0.75 79.837,0.75 L81.137,0.75 C81.221,0.75 81.283,0.775 81.325,0.825 C81.367,0.875 81.38,0.942 81.363,1.025 L76.813,18.025 C76.779,18.175 76.688,18.25 76.538,18.25 L75.138,18.25 C74.988,18.25 74.896,18.175 74.863,18.025 Z" id="Shape"></path>
                <path d="M93.538,2.3 L86.038,2.3 C85.971,2.3 85.937,2.334 85.937,2.4 L85.937,8.6 C85.937,8.667 85.97,8.7 86.038,8.7 L91.088,8.7 C91.254,8.7 91.338,8.783 91.338,8.95 L91.338,10 C91.338,10.167 91.254,10.25 91.088,10.25 L86.038,10.25 C85.971,10.25 85.937,10.284 85.937,10.35 L85.937,16.6 C85.937,16.667 85.97,16.7 86.038,16.7 L93.538,16.7 C93.704,16.7 93.788,16.783 93.788,16.95 L93.788,18 C93.788,18.167 93.704,18.25 93.538,18.25 L84.413,18.25 C84.246,18.25 84.163,18.167 84.163,18 L84.163,1 C84.163,0.833 84.246,0.75 84.413,0.75 L93.538,0.75 C93.704,0.75 93.788,0.833 93.788,1 L93.788,2.05 C93.788,2.217 93.704,2.3 93.538,2.3 Z" id="Shape"></path>
                <path d="M97.088,18 L97.088,1 C97.088,0.833 97.171,0.75 97.338,0.75 L98.612,0.75 C98.779,0.75 98.862,0.833 98.862,1 L98.862,16.6 C98.862,16.667 98.895,16.7 98.963,16.7 L106.237,16.7 C106.404,16.7 106.487,16.783 106.487,16.95 L106.487,18 C106.487,18.167 106.404,18.25 106.237,18.25 L97.338,18.25 C97.171,18.25 97.088,18.167 97.088,18 Z" id="Shape"></path>
                <path d="M118.513,2.3 L111.013,2.3 C110.946,2.3 110.912,2.334 110.912,2.4 L110.912,8.6 C110.912,8.667 110.945,8.7 111.013,8.7 L116.063,8.7 C116.229,8.7 116.313,8.783 116.313,8.95 L116.313,10 C116.313,10.167 116.229,10.25 116.063,10.25 L111.013,10.25 C110.946,10.25 110.912,10.284 110.912,10.35 L110.912,16.6 C110.912,16.667 110.945,16.7 111.013,16.7 L118.513,16.7 C118.679,16.7 118.763,16.783 118.763,16.95 L118.763,18 C118.763,18.167 118.679,18.25 118.513,18.25 L109.388,18.25 C109.221,18.25 109.138,18.167 109.138,18 L109.138,1 C109.138,0.833 109.221,0.75 109.388,0.75 L118.513,0.75 C118.679,0.75 118.763,0.833 118.763,1 L118.763,2.05 C118.763,2.217 118.679,2.3 118.513,2.3 Z" id="Shape"></path>
                <path d="M130.362,18.05 L127.237,10.275 C127.22,10.225 127.187,10.2 127.137,10.2 L123.937,10.2 C123.87,10.2 123.836,10.233 123.836,10.3 L123.836,18 C123.836,18.167 123.753,18.25 123.586,18.25 L122.312,18.25 C122.145,18.25 122.062,18.167 122.062,18 L122.062,0.975 C122.062,0.808 122.145,0.725 122.312,0.725 L127.612,0.725 C128.945,0.725 130.02,1.167 130.837,2.05 C131.653,2.934 132.063,4.092 132.063,5.525 C132.063,6.675 131.784,7.65 131.225,8.45 C130.666,9.25 129.913,9.775 128.962,10.025 C128.896,10.059 128.879,10.1 128.912,10.15 L132.162,17.95 L132.187,18.05 C132.187,18.184 132.112,18.25 131.961,18.25 L130.637,18.25 C130.504,18.25 130.412,18.184 130.362,18.05 Z M123.837,2.375 L123.837,8.675 C123.837,8.742 123.87,8.775 123.938,8.775 L127.388,8.775 C128.254,8.775 128.954,8.48 129.488,7.888 C130.022,7.296 130.288,6.517 130.288,5.55 C130.288,4.567 130.021,3.775 129.488,3.175 C128.955,2.575 128.255,2.275 127.388,2.275 L123.938,2.275 C123.87,2.275 123.837,2.309 123.837,2.375 Z" id="Shape"></path>
                <path d="M137.225,17.812 C136.451,17.387 135.85,16.791 135.425,16.024 C135,15.258 134.787,14.374 134.787,13.374 L134.787,5.65 C134.787,4.65 135,3.763 135.425,2.987 C135.85,2.212 136.45,1.612 137.225,1.187 C138,0.762 138.896,0.549 139.913,0.549 C140.93,0.549 141.826,0.762 142.601,1.187 C143.376,1.612 143.98,2.212 144.413,2.987 C144.847,3.762 145.063,4.65 145.063,5.65 L145.063,13.375 C145.063,14.375 144.846,15.259 144.413,16.025 C143.979,16.792 143.376,17.388 142.601,17.813 C141.827,18.238 140.93,18.451 139.913,18.451 C138.896,18.451 138,18.237 137.225,17.812 Z M142.362,15.95 C142.978,15.317 143.287,14.483 143.287,13.45 L143.287,5.6 C143.287,4.55 142.978,3.704 142.362,3.062 C141.746,2.42 140.928,2.1 139.912,2.1 C138.912,2.1 138.103,2.421 137.487,3.062 C136.871,3.703 136.562,4.549 136.562,5.6 L136.562,13.45 C136.562,14.483 136.871,15.317 137.487,15.95 C138.103,16.583 138.912,16.9 139.912,16.9 C140.929,16.9 141.746,16.583 142.362,15.95 Z" id="Shape"></path>
                <path d="M149.399,17.212 C148.474,16.387 148.011,15.283 148.011,13.9 L148.011,13.2 C148.011,13.033 148.095,12.95 148.261,12.95 L149.487,12.95 C149.653,12.95 149.737,13.033 149.737,13.2 L149.737,13.8 C149.737,14.734 150.049,15.484 150.675,16.05 C151.3,16.617 152.129,16.9 153.162,16.9 C154.145,16.9 154.92,16.634 155.487,16.1 C156.053,15.567 156.337,14.867 156.337,14 C156.337,13.434 156.203,12.942 155.938,12.525 C155.67,12.108 155.284,11.725 154.775,11.375 C154.266,11.025 153.529,10.583 152.563,10.05 C151.529,9.5 150.716,9.017 150.125,8.6 C149.533,8.183 149.05,7.675 148.675,7.075 C148.3,6.475 148.113,5.742 148.113,4.875 C148.113,3.525 148.546,2.467 149.413,1.7 C150.279,0.933 151.438,0.55 152.888,0.55 C154.439,0.55 155.671,0.975 156.588,1.825 C157.505,2.675 157.963,3.8 157.963,5.2 L157.963,5.775 C157.963,5.942 157.88,6.025 157.713,6.025 L156.463,6.025 C156.296,6.025 156.213,5.942 156.213,5.775 L156.213,5.225 C156.213,4.292 155.913,3.537 155.314,2.962 C154.713,2.387 153.897,2.1 152.864,2.1 C151.93,2.1 151.197,2.342 150.664,2.825 C150.131,3.308 149.864,3.992 149.864,4.875 C149.864,5.442 149.989,5.917 150.239,6.3 C150.489,6.684 150.851,7.034 151.326,7.35 C151.802,7.667 152.53,8.092 153.514,8.625 C154.648,9.259 155.518,9.796 156.127,10.237 C156.734,10.679 157.218,11.187 157.576,11.762 C157.934,12.337 158.114,13.041 158.114,13.874 C158.114,15.258 157.66,16.366 156.752,17.199 C155.843,18.032 154.622,18.449 153.089,18.449 C151.556,18.449 150.324,18.038 149.399,17.212 Z" id="Shape"></path>
            </g>
        </g>
    </g>
</svg>